<svg width="67" height="67" viewBox="0 0 67 67" fill="none" xmlns="http://www.w3.org/2000/svg">
<g clip-path="url(#clip0)">
<path d="M4.18901 38.747L6.65701 38.034L4.18901 38.747ZM4.18901 15.963L1.71801 15.247L4.18901 15.963ZM62.651 15.963L65.122 15.247L62.651 15.963ZM62.651 38.747L60.183 38.034L62.651 38.747ZM49.924 50.586L49.444 48.06L49.924 50.586ZM16.915 50.586L17.395 48.06L16.915 50.586ZM16.915 4.124L16.436 1.6L16.915 4.124ZM49.924 4.124L50.4 1.6L49.924 4.124ZM4.35301 39.32L1.88501 40.036L4.35301 39.32ZM62.486 39.32L64.954 40.036L62.486 39.32ZM62.486 15.391L60.018 16.104L62.486 15.391ZM4.35301 15.391L6.82101 16.104L4.35301 15.391ZM35.991 53.723C35.991 53.0411 35.7201 52.3872 35.238 51.905C34.7558 51.4229 34.1019 51.152 33.42 51.152C32.7381 51.152 32.0842 51.4229 31.602 51.905C31.1199 52.3872 30.849 53.0411 30.849 53.723L35.991 53.723ZM30.849 64.27C30.849 64.9519 31.1199 65.6058 31.602 66.088C32.0842 66.5701 32.7381 66.841 33.42 66.841C34.1019 66.841 34.7558 66.5701 35.238 66.088C35.7201 65.6058 35.991 64.9519 35.991 64.27L30.849 64.27ZM24.385 61.7C24.0474 61.7 23.7131 61.7665 23.4011 61.8957C23.0892 62.0249 22.8058 62.2143 22.567 62.453C22.3283 62.6918 22.1389 62.9752 22.0097 63.2871C21.8805 63.599 21.814 63.9334 21.814 64.271C21.814 64.6086 21.8805 64.943 22.0097 65.2549C22.1389 65.5668 22.3283 65.8502 22.567 66.089C22.8058 66.3277 23.0892 66.5171 23.4011 66.6463C23.7131 66.7755 24.0474 66.842 24.385 66.842L24.385 61.7ZM42.455 66.84C43.1369 66.84 43.7908 66.5691 44.273 66.087C44.7551 65.6048 45.026 64.9509 45.026 64.269C45.026 63.5871 44.7551 62.9332 44.273 62.451C43.7908 61.9689 43.1369 61.698 42.455 61.698L42.455 66.84ZM60.019 16.1L60.183 16.672L65.122 15.243L64.954 14.671L60.019 16.1ZM60.183 38.03L60.019 38.602L64.955 40.031L65.123 39.459L60.183 38.03ZM6.82101 38.602L6.65601 38.03L1.71701 39.464L1.88501 40.036L6.82101 38.602ZM6.65601 16.672L6.82101 16.1L1.88501 14.675L1.71701 15.247L6.65601 16.672ZM6.65601 38.03C4.63696 31.0538 4.63696 23.6482 6.65601 16.672L1.71701 15.247C-0.572583 23.157 -0.572584 31.554 1.71701 39.464L6.65601 38.03ZM60.183 16.677C62.2021 23.6532 62.2021 31.0588 60.183 38.035L65.122 39.464C67.4118 31.5541 67.4118 23.1569 65.122 15.247L60.183 16.677ZM49.444 48.06C38.8558 50.072 27.9833 50.072 17.395 48.06L16.435 53.109C27.657 55.2444 39.181 55.2444 50.403 53.109L49.444 48.06ZM17.4 6.651C27.9883 4.63888 38.8608 4.63888 49.449 6.651L50.4 1.6C39.178 -0.53538 27.654 -0.535381 16.432 1.6L17.4 6.651ZM17.4 48.061C14.9362 47.6142 12.6441 46.4947 10.777 44.8262C8.90999 43.1577 7.54083 41.0052 6.82101 38.607L1.88501 40.036C2.86711 43.3458 4.74632 46.3192 7.31444 48.6266C9.88256 50.934 13.0393 52.4854 16.435 53.109L17.4 48.061ZM50.4 53.109C53.7966 52.4863 56.9544 50.9352 59.5235 48.6277C62.0926 46.3203 63.9725 43.3465 64.955 40.036L60.019 38.607C59.2994 41.0045 57.9307 43.1564 56.0645 44.8246C54.1982 46.4929 51.9069 47.6126 49.444 48.06L50.4 53.109ZM49.44 6.65C51.9033 7.09645 54.1951 8.21541 56.0621 9.88316C57.9291 11.5509 59.2986 13.7025 60.019 16.1L64.955 14.671C63.9722 11.3609 62.0921 8.38752 59.5231 6.08041C56.954 3.7733 53.7964 2.22255 50.4 1.6L49.44 6.65ZM16.436 1.6C13.0399 2.22355 9.88276 3.7752 7.31443 6.08301C4.7461 8.39082 2.86688 11.3647 1.88501 14.675L6.82101 16.1C7.54162 13.7027 8.91112 11.5513 10.7781 9.88375C12.6451 8.21618 14.9369 7.09737 17.4 6.651L16.436 1.6ZM30.849 53.723L30.849 64.27L35.991 64.27L35.991 53.723L30.849 53.723ZM24.385 66.84L42.455 66.84L42.455 61.7L24.385 61.7L24.385 66.84Z" fill="white"/>
<path d="M19.709 30.851L26.767 25.294C28.055 24.279 28.7 23.772 29.409 23.861C30.118 23.95 30.619 24.605 31.609 25.907L35.226 30.651C36.22 31.951 36.717 32.605 37.426 32.697C38.135 32.789 38.78 32.279 40.069 31.264L47.127 25.708" stroke="white" stroke-width="5.5" stroke-linecap="round"/>
</g>
<defs>
<clipPath id="clip0">
<rect width="66.84" height="66.84" fill="white" transform="translate(66.84) rotate(90)"/>
</clipPath>
</defs>
</svg>
