<svg xmlns="http://www.w3.org/2000/svg" width="76.43" height="65.429" viewBox="0 0 76.43 65.429">
  <path id="balance" d="M74.8,39.525,66.142,20.974l3.739,1.072a1.547,1.547,0,0,0,.853-2.973l-26-7.46c.005-.111.008-.222.008-.334a6.779,6.779,0,0,0-12.7-3.307L6.05.513A1.547,1.547,0,1,0,5.2,3.486l5.131,1.472L1.036,24.86A1.547,1.547,0,0,0,0,26.32a12.4,12.4,0,0,0,21.188,8.754,12.257,12.257,0,0,0,3.7-8.754,1.547,1.547,0,0,0-1.127-1.488l-8.636-18.5,16.068,4.61c-.005.111-.008.222-.008.335a6.791,6.791,0,0,0,5.234,6.6V48.518H32.15A6.215,6.215,0,0,0,25.9,54.667v.9a6.234,6.234,0,0,0-4.95,6.062v2.165a1.633,1.633,0,0,0,1.608,1.584H53.371a1.633,1.633,0,0,0,1.608-1.584V61.628a6.234,6.234,0,0,0-4.95-6.062v-.9a6.215,6.215,0,0,0-6.249-6.149H39.512V17.88a6.805,6.805,0,0,0,4.37-3.294L61.389,19.61,52.078,39.554a1.547,1.547,0,0,0-1.037,1.459A12.4,12.4,0,0,0,72.23,49.767a12.26,12.26,0,0,0,3.7-8.755A1.547,1.547,0,0,0,74.8,39.525ZM12.405,7.747,20.32,24.7H4.492Zm0,27.81a9.248,9.248,0,0,1-9.183-7.764H21.659a9.383,9.383,0,0,1-9.254,7.764ZM51.886,61.628v.656H24.045v-.656A3.119,3.119,0,0,1,27.2,58.572H48.731a3.119,3.119,0,0,1,3.155,3.056Zm-4.949-6.96v.811H28.994v-.811a3.119,3.119,0,0,1,3.155-3.056H43.781a3.119,3.119,0,0,1,3.155,3.056Zm-8.971-39.7a3.69,3.69,0,1,1,3.584-2.823,1.555,1.555,0,0,0-.087.3,3.692,3.692,0,0,1-3.5,2.521Zm33.4,24.425H55.533l7.914-16.952ZM63.447,50.25a9.248,9.248,0,0,1-9.183-7.764H72.7a9.383,9.383,0,0,1-9.254,7.764Zm0,0" transform="translate(0.25 -0.198)" fill="#fff" stroke="#fff" stroke-width="0.5"/>
</svg>
