<svg id="calendar" xmlns="http://www.w3.org/2000/svg" width="53.492" height="59.436" viewBox="0 0 53.492 59.436">
  <g id="Calendar-2" data-name="Calendar">
    <path id="Calendar-3" data-name="Calendar" d="M15.146,59.436c-4.592,0-8.419-1.391-11.07-4.025C1.41,52.764,0,48.918,0,44.293V19.274c0-4.561,1.41-8.348,4.076-10.953a14.8,14.8,0,0,1,9.545-3.9V2.074a2.057,2.057,0,0,1,4.1-.281l.019.281V4.365H35.781V2.074a2.057,2.057,0,0,1,4.1-.281l.019.281V4.417a14.718,14.718,0,0,1,9.657,4.007c2.591,2.6,3.953,6.352,3.939,10.85V44.5c0,4.57-1.408,8.363-4.071,10.972-2.648,2.593-6.477,3.964-11.075,3.964ZM4.114,19.274V44.293c0,7.093,3.918,11,11.033,11h23.2c7.113,0,11.031-3.832,11.031-10.79V19.269c.009-3.421-.911-6.084-2.74-7.918A10.4,10.4,0,0,0,39.9,8.573v2.6a2.057,2.057,0,0,1-4.1.281l-.019-.281V8.512H17.736V11.17a2.057,2.057,0,0,1-4.1.281l-.019-.281v-2.6C7.474,9.094,4.114,12.846,4.114,19.274ZM21.237,40.211a1.815,1.815,0,0,1-.727-1.788l.685-4-2.905-2.83a1.822,1.822,0,0,1,1.017-3.11l4.007-.585,1.8-3.64a1.819,1.819,0,0,1,1.635-1.016h0a1.815,1.815,0,0,1,1.632,1.017l1.8,3.638,4.015.586A1.822,1.822,0,0,1,35.2,31.593L32.3,34.423l.688,4a1.826,1.826,0,0,1-2.652,1.921l-3.585-1.886-3.595,1.888a1.789,1.789,0,0,1-1.915-.134Z" fill="#fff"/>
  </g>
</svg>
