<svg id="dollar" xmlns="http://www.w3.org/2000/svg" width="73.711" height="73.711" viewBox="0 0 73.711 73.711">
  <path id="Контур_63610" data-name="Контур 63610" d="M36.856,73.711A36.856,36.856,0,0,1,10.795,10.795,36.856,36.856,0,0,1,62.916,62.916,36.614,36.614,0,0,1,36.856,73.711Zm0-69.1A32.249,32.249,0,1,0,69.1,36.855,32.285,32.285,0,0,0,36.856,4.607Z" transform="translate(0 0)" fill="#fff"/>
  <path id="Контур_63611" data-name="Контур 63611" d="M194.366,116.731a5.759,5.759,0,1,1,5.759-5.759,2.3,2.3,0,1,0,4.607,0,10.382,10.382,0,0,0-8.062-10.1V98.3a2.3,2.3,0,1,0-4.607,0v2.565a10.365,10.365,0,0,0,2.3,20.47,5.759,5.759,0,1,1-5.759,5.759,2.3,2.3,0,1,0-4.607,0,10.382,10.382,0,0,0,8.062,10.1v2.565a2.3,2.3,0,0,0,4.607,0V137.2a10.365,10.365,0,0,0-2.3-20.47Z" transform="translate(-157.51 -82.179)" fill="#fff"/>
</svg>
