<svg xmlns="http://www.w3.org/2000/svg" width="78.19" height="62.66" viewBox="0 0 78.19 62.66">
  <g id="dollar" transform="translate(-53.454 -60.027)">
    <path id="Контур_228" data-name="Контур 228" d="M894,397.172h12.115l12.115,18.173L942.459,379l12.115,18.172H966.69" transform="translate(-837.796 -295.407)" fill="none" stroke="#fff" stroke-linecap="round" stroke-linejoin="round" stroke-width="5.5"/>
    <g id="dollar_1_" data-name="dollar (1)" transform="translate(83.255 60.027)">
      <path id="Контур_63607" data-name="Контур 63607" d="M35.626,6.112A20.869,20.869,0,0,0,6.112,35.626,20.869,20.869,0,0,0,35.626,6.112Z" transform="translate(0 0)" fill="#fff"/>
      <path id="Контур_63608" data-name="Контур 63608" d="M11.567,13.9a5.869,5.869,0,0,1,1.6,11.514.41.41,0,0,0-.3.393v1.1l-2.609.037V25.809a.409.409,0,0,0-.3-.392A5.879,5.879,0,0,1,5.7,19.808a1.326,1.326,0,0,1,1.266-1.34,1.3,1.3,0,0,1,1.343,1.3,3.261,3.261,0,1,0,3.261-3.261A5.869,5.869,0,0,1,9.962,5a.41.41,0,0,0,.3-.393V3.5l2.609-.037V4.6a.409.409,0,0,0,.3.392,5.879,5.879,0,0,1,4.266,5.609,1.326,1.326,0,0,1-1.266,1.34,1.3,1.3,0,0,1-1.343-1.3A3.261,3.261,0,1,0,11.567,13.9Z" transform="translate(9.302 5.662)" fill="#181d26" stroke="#181d26" stroke-width="0.5"/>
    </g>
  </g>
</svg>
