<svg width="99" height="36" viewBox="0 0 99 36" fill="none" xmlns="http://www.w3.org/2000/svg">
<g clip-path="url(#clip0)">
<path d="M39.5525 26.6725C40.4097 26.6725 41.2476 26.9267 41.9603 27.4029C42.673 27.8791 43.2285 28.556 43.5566 29.3479C43.8846 30.1399 43.9704 31.0113 43.8032 31.852C43.636 32.6927 43.2232 33.465 42.6171 34.0711C42.011 34.6772 41.2387 35.09 40.398 35.2572C39.5573 35.4244 38.6859 35.3386 37.8939 35.0106C37.102 34.6825 36.4251 34.127 35.9489 33.4143C35.4727 32.7016 35.2185 31.8637 35.2185 31.0065C35.2185 29.857 35.6751 28.7547 36.4879 27.9419C37.3007 27.1291 38.403 26.6725 39.5525 26.6725V26.6725Z" fill="white"/>
<path d="M2.14148 8.65148L15.8015 8.65148C17.9242 8.57609 20.023 9.11948 21.8425 10.2155C22.1674 10.4121 22.4719 10.6405 22.7515 10.8975C23.3991 11.4976 23.9117 12.2287 24.2551 13.0421C24.5986 13.8556 24.765 14.7328 24.7435 15.6155C24.7779 17.1053 24.2645 18.556 23.3005 19.6925C23.1105 19.9118 22.9003 20.1127 22.6725 20.2925C22.3525 20.5746 22.0028 20.8211 21.6295 21.0275C19.8463 22.0043 17.8348 22.4876 15.8025 22.4275L5.51148 22.4805L5.22948 22.4805L5.22948 25.5145C5.22789 25.7986 5.1578 26.0781 5.02514 26.3293C4.89249 26.5805 4.70119 26.796 4.46748 26.9575C4.1582 27.1615 3.79498 27.2684 3.42448 27.2645L0.41748 27.2645L0.41748 10.3755C0.424334 10.1188 0.486383 9.86665 0.599408 9.63611C0.712432 9.40557 0.873781 9.20208 1.07248 9.03948C1.37371 8.79126 1.75117 8.65426 2.14148 8.65148V8.65148ZM5.22948 13.4765L5.22948 17.6865L16.1495 17.6865C16.9539 17.7618 17.7568 17.5276 18.3945 17.0315C18.4745 16.9515 18.5591 16.8625 18.6485 16.7645C18.8942 16.4221 19.0235 16.0099 19.0175 15.5885C19.0342 15.1689 18.9123 14.7555 18.6707 14.4121C18.429 14.0687 18.081 13.8144 17.6805 13.6885C17.1927 13.5329 16.6823 13.4606 16.1705 13.4745L5.22948 13.4765Z" fill="white"/>
<path d="M78.1455 8.65149L81.2325 8.65149C81.2335 8.69652 81.2292 8.74151 81.2195 8.78549C81.2124 8.79775 81.2079 8.81139 81.2065 8.82549L81.2065 21.6825L81.2335 21.7095L81.2055 21.7095C81.2134 21.7162 81.2199 21.7245 81.2245 21.7337C81.2291 21.743 81.2318 21.7531 81.2325 21.7635L81.2325 22.4585L98.3405 22.4585L98.3405 25.4115C98.3575 25.7837 98.2587 26.152 98.0575 26.4656C97.8564 26.7793 97.5629 27.0227 97.2175 27.1625C97.0249 27.2315 96.8221 27.2677 96.6175 27.2695L78.1725 27.2695C77.879 27.2723 77.5896 27.2016 77.3304 27.064C77.0712 26.9264 76.8505 26.7261 76.6885 26.4815C76.5375 26.2585 76.4456 26.0007 76.4215 25.7325L76.4215 25.5985L76.3945 10.3755C76.398 10.1506 76.4459 9.92856 76.5353 9.72214C76.6247 9.51573 76.7539 9.32895 76.9155 9.17249C77.0751 9.0076 77.2662 8.8765 77.4775 8.787C77.6888 8.69749 77.916 8.65141 78.1455 8.65149V8.65149Z" fill="white"/>
<path fill-rule="evenodd" clip-rule="evenodd" d="M49.5985 33.2825C52.6285 33.2825 55.5905 32.384 58.1098 30.7006C60.6292 29.0172 62.5928 26.6246 63.7523 23.8252C64.9119 21.0258 65.2152 17.9455 64.6241 14.9737C64.033 12.0019 62.5739 9.27215 60.4314 7.12961C58.2888 4.98707 55.5591 3.52798 52.5873 2.93686C49.6155 2.34573 46.5351 2.64912 43.7358 3.80865C40.9364 4.96819 38.5438 6.93179 36.8604 9.45115C35.177 11.9705 34.2785 14.9325 34.2785 17.9625C34.2785 22.0256 35.8926 25.9223 38.7656 28.7954C41.6387 31.6684 45.5354 33.2825 49.5985 33.2825V33.2825ZM49.5985 35.3415C53.0357 35.3415 56.3957 34.3223 59.2536 32.4127C62.1116 30.5031 64.3391 27.7889 65.6545 24.6134C66.9699 21.4378 67.3141 17.9436 66.6436 14.5724C65.9731 11.2012 64.318 8.10457 61.8877 5.67403C59.4573 3.2435 56.3607 1.58823 52.9896 0.917544C49.6184 0.246858 46.1241 0.590878 42.9485 1.9061C39.7729 3.22132 37.0586 5.44868 35.1489 8.30651C33.2391 11.1643 32.2197 14.5243 32.2195 17.9615C32.2195 22.5707 34.0505 26.9911 37.3097 30.2503C40.5689 33.5095 44.9893 35.3405 49.5985 35.3405L49.5985 35.3415Z" fill="white"/>
<path d="M62.3375 11.6325C64.7311 11.6325 66.6715 9.67015 66.6715 7.24949C66.6715 4.82882 64.7311 2.86649 62.3375 2.86649C59.9439 2.86649 58.0035 4.82882 58.0035 7.24949C58.0035 9.67015 59.9439 11.6325 62.3375 11.6325Z" fill="black"/>
</g>
<defs>
<clipPath id="clip0">
<rect width="34.758" height="97.923" fill="white" transform="translate(98.3405 0.582489) rotate(90)"/>
</clipPath>
</defs>
</svg>
