<svg width="64" height="67" viewBox="0 0 64 67" fill="none" xmlns="http://www.w3.org/2000/svg">
<g clip-path="url(#clip0)">
<path d="M11.2467 15.3346L12.8192 12.9347L44.0839 33.4205L30.3189 35.492L50.3953 50.819L48.6535 53.0998L23.1986 33.6642L36.2268 31.702L11.2467 15.3346Z" fill="white"/>
<path d="M0.649806 12.2442C0.649806 18.9795 6.10981 24.4395 12.8451 24.4395C19.5803 24.4395 25.0403 18.9795 25.0403 12.2442C25.0403 5.509 19.5803 0.0489957 12.8451 0.0489954C6.10981 0.0489951 0.649807 5.509 0.649806 12.2442Z" fill="black"/>
<path d="M39.3885 53.853C39.3885 60.5883 44.8485 66.0483 51.5837 66.0483C58.319 66.0483 63.779 60.5883 63.779 53.853C63.779 47.1178 58.319 41.6578 51.5837 41.6578C44.8485 41.6578 39.3885 47.1178 39.3885 53.853Z" fill="white"/>
</g>
<defs>
<clipPath id="clip0">
<rect width="66" height="63.1299" fill="white" transform="translate(63.779 0.048996) rotate(90)"/>
</clipPath>
</defs>
</svg>
