<svg width="77" height="85" viewBox="0 0 77 85" fill="none" xmlns="http://www.w3.org/2000/svg">
<g clip-path="url(#clip0)">
<path fill-rule="evenodd" clip-rule="evenodd" d="M38.5 76.4379C45.2124 76.4381 51.7742 74.4478 57.3556 70.7187C62.9369 66.9896 67.2872 61.6892 69.856 55.4878C72.425 49.2864 73.0973 42.4623 71.7879 35.8788C70.4786 29.2953 67.2464 23.2479 62.5001 18.5013C57.7539 13.7547 51.7066 10.5222 45.1231 9.21243C38.5397 7.9027 31.7156 8.5746 25.5141 11.1432C19.3124 13.7118 14.0118 18.0616 10.2824 23.6427C6.55293 29.2239 4.56225 35.7855 4.56213 42.498C4.5619 46.9549 5.4397 51.3683 7.14513 55.4859C8.85057 59.6037 11.3504 63.3452 14.5019 66.4967C17.6533 69.6483 21.3946 72.1484 25.5122 73.854C29.6298 75.5598 34.0431 76.4377 38.5 76.4379ZM38.5 81C46.1145 81 53.5579 78.742 59.8892 74.5117C66.2205 70.2814 71.1551 64.2686 74.0691 57.2337C76.9832 50.1989 77.7457 42.458 76.2603 34.9898C74.7749 27.5215 71.1085 20.6615 65.7243 15.2771C60.3401 9.8927 53.4804 6.22578 46.0122 4.74003C38.5441 3.25427 30.803 4.01642 23.768 6.93008C16.733 9.84375 10.72 14.7781 6.48935 21.1092C2.25867 27.4402 0.00035 34.8835 0 42.498C0 52.7088 4.05627 62.5014 11.2764 69.7216C18.4966 76.9417 28.2891 80.998 38.5 80.998V81Z" fill="white"/>
<g filter="url(#filter0_d)">
<path d="M16.245 80.998C21.547 80.998 25.8452 76.6999 25.8452 71.3978C25.8452 66.0957 21.547 61.7976 16.245 61.7976C10.9429 61.7976 6.64474 66.0957 6.64474 71.3978C6.64474 76.6999 10.9429 80.998 16.245 80.998Z" fill="white"/>
</g>
<path d="M66.5001 28C71.7467 28 76 23.7467 76 18.5C76 13.2533 71.7467 9 66.5001 9C61.2534 9 57 13.2533 57 18.5C57 23.7467 61.2534 28 66.5001 28Z" fill="black"/>
</g>
<defs>
<filter id="filter0_d" x="-9.35526" y="48.7976" width="51.2004" height="51.2004" filterUnits="userSpaceOnUse" color-interpolation-filters="sRGB">
<feFlood flood-opacity="0" result="BackgroundImageFix"/>
<feColorMatrix in="SourceAlpha" type="matrix" values="0 0 0 0 0 0 0 0 0 0 0 0 0 0 0 0 0 0 127 0" result="hardAlpha"/>
<feOffset dy="3"/>
<feGaussianBlur stdDeviation="8"/>
<feColorMatrix type="matrix" values="0 0 0 0 0 0 0 0 0 0 0 0 0 0 0 0 0 0 0.31 0"/>
<feBlend mode="normal" in2="BackgroundImageFix" result="effect1_dropShadow"/>
<feBlend mode="normal" in="SourceGraphic" in2="effect1_dropShadow" result="shape"/>
</filter>
<clipPath id="clip0">
<rect width="77" height="85" fill="white"/>
</clipPath>
</defs>
</svg>
