<svg width="118" height="103" viewBox="0 0 118 103" fill="none" xmlns="http://www.w3.org/2000/svg">
<path d="M52.2625 23.1985L19.2445 67.2225" stroke="#444649" stroke-width="3"/>
<path d="M69.6885 27.7845L99.0385 67.2225" stroke="#444649" stroke-width="3"/>
<path d="M59.1415 33.0165L59.1415 73.6435" stroke="#444649" stroke-width="3"/>
<g filter="url(#filter0_d)">
<path d="M59.1445 40.2235C68.6968 40.2235 76.4405 32.4798 76.4405 22.9275C76.4405 13.3752 68.6968 5.6315 59.1445 5.6315C49.5921 5.6315 41.8485 13.3752 41.8485 22.9275C41.8485 32.4798 49.5921 40.2235 59.1445 40.2235Z" fill="white"/>
</g>
<g filter="url(#filter1_d)">
<path d="M19.2445 80.5835C25.2511 80.5835 30.1205 75.7141 30.1205 69.7075C30.1205 63.7008 25.2511 58.8315 19.2445 58.8315C13.2378 58.8315 8.36847 63.7008 8.36847 69.7075C8.36847 75.7141 13.2378 80.5835 19.2445 80.5835Z" fill="white"/>
</g>
<g filter="url(#filter2_d)">
<path d="M59.1445 91.4535C65.1511 91.4535 70.0205 86.5841 70.0205 80.5775C70.0205 74.5709 65.1511 69.7015 59.1445 69.7015C53.1378 69.7015 48.2685 74.5709 48.2685 80.5775C48.2685 86.5841 53.1378 91.4535 59.1445 91.4535Z" fill="white"/>
</g>
<g filter="url(#filter3_d)">
<path d="M98.5845 80.5835C104.591 80.5835 109.46 75.7142 109.46 69.7075C109.46 63.7009 104.591 58.8315 98.5845 58.8315C92.5778 58.8315 87.7085 63.7009 87.7085 69.7075C87.7085 75.7142 92.5778 80.5835 98.5845 80.5835Z" fill="white"/>
</g>
<defs>
<filter id="filter0_d" x="33.8485" y="0.631502" width="50.592" height="50.592" filterUnits="userSpaceOnUse" color-interpolation-filters="sRGB">
<feFlood flood-opacity="0" result="BackgroundImageFix"/>
<feColorMatrix in="SourceAlpha" type="matrix" values="0 0 0 0 0 0 0 0 0 0 0 0 0 0 0 0 0 0 127 0" result="hardAlpha"/>
<feOffset dy="3"/>
<feGaussianBlur stdDeviation="4"/>
<feColorMatrix type="matrix" values="0 0 0 0 0 0 0 0 0 0 0 0 0 0 0 0 0 0 0.188 0"/>
<feBlend mode="normal" in2="BackgroundImageFix" result="effect1_dropShadow"/>
<feBlend mode="normal" in="SourceGraphic" in2="effect1_dropShadow" result="shape"/>
</filter>
<filter id="filter1_d" x="0.368469" y="53.8315" width="37.752" height="37.752" filterUnits="userSpaceOnUse" color-interpolation-filters="sRGB">
<feFlood flood-opacity="0" result="BackgroundImageFix"/>
<feColorMatrix in="SourceAlpha" type="matrix" values="0 0 0 0 0 0 0 0 0 0 0 0 0 0 0 0 0 0 127 0" result="hardAlpha"/>
<feOffset dy="3"/>
<feGaussianBlur stdDeviation="4"/>
<feColorMatrix type="matrix" values="0 0 0 0 0 0 0 0 0 0 0 0 0 0 0 0 0 0 0.188 0"/>
<feBlend mode="normal" in2="BackgroundImageFix" result="effect1_dropShadow"/>
<feBlend mode="normal" in="SourceGraphic" in2="effect1_dropShadow" result="shape"/>
</filter>
<filter id="filter2_d" x="40.2685" y="64.7015" width="37.752" height="37.752" filterUnits="userSpaceOnUse" color-interpolation-filters="sRGB">
<feFlood flood-opacity="0" result="BackgroundImageFix"/>
<feColorMatrix in="SourceAlpha" type="matrix" values="0 0 0 0 0 0 0 0 0 0 0 0 0 0 0 0 0 0 127 0" result="hardAlpha"/>
<feOffset dy="3"/>
<feGaussianBlur stdDeviation="4"/>
<feColorMatrix type="matrix" values="0 0 0 0 0 0 0 0 0 0 0 0 0 0 0 0 0 0 0.188 0"/>
<feBlend mode="normal" in2="BackgroundImageFix" result="effect1_dropShadow"/>
<feBlend mode="normal" in="SourceGraphic" in2="effect1_dropShadow" result="shape"/>
</filter>
<filter id="filter3_d" x="79.7085" y="53.8315" width="37.752" height="37.752" filterUnits="userSpaceOnUse" color-interpolation-filters="sRGB">
<feFlood flood-opacity="0" result="BackgroundImageFix"/>
<feColorMatrix in="SourceAlpha" type="matrix" values="0 0 0 0 0 0 0 0 0 0 0 0 0 0 0 0 0 0 127 0" result="hardAlpha"/>
<feOffset dy="3"/>
<feGaussianBlur stdDeviation="4"/>
<feColorMatrix type="matrix" values="0 0 0 0 0 0 0 0 0 0 0 0 0 0 0 0 0 0 0.188 0"/>
<feBlend mode="normal" in2="BackgroundImageFix" result="effect1_dropShadow"/>
<feBlend mode="normal" in="SourceGraphic" in2="effect1_dropShadow" result="shape"/>
</filter>
</defs>
</svg>
