<svg width="67" height="67" viewBox="0 0 67 67" fill="none" xmlns="http://www.w3.org/2000/svg">
<g clip-path="url(#clip0)">
<path d="M34.0681 49.5203C30.3639 49.5638 26.7633 48.2974 23.902 45.9444C21.0407 43.5915 19.1025 40.3034 18.4297 36.6605L18.6882 36.9455C18.879 37.1478 19.1414 37.2671 19.4192 37.278C19.697 37.2888 19.968 37.1903 20.1739 37.0036C20.3799 36.8168 20.5044 36.5568 20.5207 36.2793C20.5371 36.0017 20.4439 35.7289 20.2613 35.5193L17.8695 32.8818C17.7543 32.7542 17.6099 32.6564 17.4486 32.5969C17.2873 32.5374 17.1139 32.518 16.9435 32.5403C16.773 32.5626 16.6105 32.6259 16.4699 32.7248C16.3293 32.8238 16.2149 32.9554 16.1364 33.1084L14.3618 36.553C14.2405 36.8026 14.2216 37.0897 14.3093 37.353C14.3969 37.6162 14.5842 37.8347 14.8309 37.9617C15.0776 38.0886 15.3643 38.114 15.6295 38.0323C15.8946 37.9506 16.1173 37.7683 16.2498 37.5245L16.382 37.267C17.1893 41.3502 19.3992 45.0225 22.629 47.6479C25.8588 50.2732 29.9051 51.6863 34.0671 51.6424C34.3442 51.6358 34.6078 51.5211 34.8015 51.3227C34.9952 51.1243 35.1036 50.8581 35.1036 50.5809C35.1036 50.3036 34.9952 50.0374 34.8015 49.839C34.6078 49.6407 34.3442 49.5259 34.0671 49.5193L34.0681 49.5203ZM34.0681 17.67C37.7727 17.6258 41.3739 18.8917 44.2358 21.2444C47.0978 23.5971 49.0366 26.8852 49.7101 30.5283L49.4512 30.243C49.2605 30.0408 48.998 29.9214 48.7202 29.9106C48.4424 29.8997 48.1714 29.9982 47.9655 30.185C47.7595 30.3717 47.635 30.6317 47.6187 30.9093C47.6024 31.1868 47.6955 31.4597 47.8781 31.6693L50.2699 34.3067C50.3852 34.4337 50.5295 34.5309 50.6905 34.59C50.8516 34.6491 51.0245 34.6683 51.1946 34.646C51.3646 34.6236 51.5268 34.5604 51.6671 34.4618C51.8074 34.3631 51.9217 34.232 52.0003 34.0795L53.7748 30.6348C53.8962 30.3853 53.915 30.0981 53.8274 29.8349C53.7397 29.5716 53.5524 29.3531 53.3057 29.2262C53.059 29.0992 52.7724 29.0739 52.5072 29.1556C52.242 29.2373 52.0193 29.4195 51.8868 29.6633L51.7546 29.9201C50.9467 25.8372 48.7364 22.1653 45.5064 19.5403C42.2763 16.9154 38.23 15.5027 34.0681 15.5468C33.9266 15.5434 33.7858 15.5684 33.654 15.6202C33.5223 15.672 33.4022 15.7497 33.3009 15.8486C33.1996 15.9475 33.1191 16.0657 33.0641 16.1962C33.0092 16.3266 32.9809 16.4668 32.9809 16.6084C32.9809 16.75 33.0092 16.8901 33.0641 17.0206C33.1191 17.1511 33.1996 17.2693 33.3009 17.3682C33.4022 17.4671 33.5223 17.5447 33.654 17.5966C33.7858 17.6484 33.9266 17.6733 34.0681 17.67V17.67Z" fill="white"/>
<g filter="url(#filter0_d)">
<path d="M18.9964 28.6942C22.0793 31.7772 27.0779 31.777 30.161 28.6939C33.2441 25.6108 33.2443 20.6122 30.1613 17.5293C27.0784 14.4464 22.0799 14.4466 18.9968 17.5297C15.9137 20.6128 15.9135 25.6113 18.9964 28.6942Z" fill="white"/>
</g>
<g filter="url(#filter1_d)">
<path d="M39.1812 48.7461C42.2641 51.829 47.2626 51.8289 50.3457 48.7458C53.4288 45.6627 53.429 40.6641 50.3461 37.5812C47.2632 34.4983 42.2646 34.4985 39.1815 37.5816C36.0984 40.6647 36.0983 45.6632 39.1812 48.7461Z" fill="black"/>
</g>
</g>
<defs>
<filter id="filter0_d" x="0.684357" y="2.21724" width="47.7891" height="47.7891" filterUnits="userSpaceOnUse" color-interpolation-filters="sRGB">
<feFlood flood-opacity="0" result="BackgroundImageFix"/>
<feColorMatrix in="SourceAlpha" type="matrix" values="0 0 0 0 0 0 0 0 0 0 0 0 0 0 0 0 0 0 127 0" result="hardAlpha"/>
<feOffset dy="3"/>
<feGaussianBlur stdDeviation="8"/>
<feColorMatrix type="matrix" values="0 0 0 0 0 0 0 0 0 0 0 0 0 0 0 0 0 0 0.31 0"/>
<feBlend mode="normal" in2="BackgroundImageFix" result="effect1_dropShadow"/>
<feBlend mode="normal" in="SourceGraphic" in2="effect1_dropShadow" result="shape"/>
</filter>
<filter id="filter1_d" x="20.8691" y="22.2691" width="47.7891" height="47.7891" filterUnits="userSpaceOnUse" color-interpolation-filters="sRGB">
<feFlood flood-opacity="0" result="BackgroundImageFix"/>
<feColorMatrix in="SourceAlpha" type="matrix" values="0 0 0 0 0 0 0 0 0 0 0 0 0 0 0 0 0 0 127 0" result="hardAlpha"/>
<feOffset dy="3"/>
<feGaussianBlur stdDeviation="8"/>
<feColorMatrix type="matrix" values="0 0 0 0 0 0 0 0 0 0 0 0 0 0 0 0 0 0 0.31 0"/>
<feBlend mode="normal" in2="BackgroundImageFix" result="effect1_dropShadow"/>
<feBlend mode="normal" in="SourceGraphic" in2="effect1_dropShadow" result="shape"/>
</filter>
<clipPath id="clip0">
<rect width="66" height="66.1353" fill="white" transform="translate(66.2645 0.137512) rotate(90)"/>
</clipPath>
</defs>
</svg>
