<svg id="card_iconred" xmlns="http://www.w3.org/2000/svg" width="84" height="84" viewBox="0 0 84 84">
  <circle id="Эллипс_975" data-name="Эллипс 975" cx="42" cy="42" r="42" fill="#d94633"/>
  <path id="Вычитание_68" data-name="Вычитание 68" d="M30.758,26.271H4a4,4,0,0,1-4-4V4A4.005,4.005,0,0,1,4,0H30.758a4,4,0,0,1,4,4V22.271A4,4,0,0,1,30.758,26.271ZM23.276,13.135a2,2,0,0,0-2,2v2.7a2,2,0,0,0,2,2h3.479a2,2,0,0,0,2-2v-2.7a2,2,0,0,0-2-2Z" transform="translate(24.371 28.614)" fill="#fff"/>
</svg>
