<svg xmlns="http://www.w3.org/2000/svg" width="61.381" height="121.436" viewBox="0 0 61.381 121.436">
  <path id="money_shape" d="M44.723-46.619a10.247,10.247,0,0,1-10.23,10.23A10.354,10.354,0,0,1,24.2-46.619H3.74A30.822,30.822,0,0,0,26.789-16.75V-6.33H42.134V-16.75a30.865,30.865,0,0,0,22.86-29.869,29.512,29.512,0,0,0-8.967-21.66,29.783,29.783,0,0,0-21.66-8.967A10.554,10.554,0,0,1,24.073-87.6,10.531,10.531,0,0,1,34.367-97.9,10.446,10.446,0,0,1,44.6-87.6h20.4a30.79,30.79,0,0,0-22.86-29.617v-10.546H26.789v10.546c-12.32,3.2-23.176,14.566-23.176,29.617a29.616,29.616,0,0,0,9.03,21.723,29.586,29.586,0,0,0,21.723,8.967l.126.063A10.361,10.361,0,0,1,44.723-46.619Z" transform="translate(-3.613 127.766)" fill="#3bb063"/>
</svg>
