<svg id="sends_icon" xmlns="http://www.w3.org/2000/svg" width="108" height="108" viewBox="0 0 108 108">
  <circle id="Эллипс_964" data-name="Эллипс 964" cx="54" cy="54" r="54" fill="#3bb063"/>
  <g id="Iconly_Bold_Send" data-name="Iconly/Bold/Send" transform="translate(31.329 38.108)">
    <g id="Send">
      <path id="Send-2" data-name="Send" d="M38.232,1.145a3.8,3.8,0,0,0-3.8-.99L2.77,9.363A3.775,3.775,0,0,0,.048,12.355,4.433,4.433,0,0,0,2.02,16.491l9.9,6.085a2.566,2.566,0,0,0,3.166-.38L26.424,10.788a1.444,1.444,0,0,1,2.086,0,1.5,1.5,0,0,1,0,2.1L17.153,24.3a2.6,2.6,0,0,0-.38,3.184l6.049,10a3.758,3.758,0,0,0,3.267,1.861,4.088,4.088,0,0,0,.492-.02A3.835,3.835,0,0,0,29.79,36.59L39.177,4.967a3.864,3.864,0,0,0-.945-3.822" transform="translate(0)" fill="#fff"/>
    </g>
  </g>
</svg>
