<svg xmlns="http://www.w3.org/2000/svg" width="75.167" height="88.43" viewBox="0 0 75.167 88.43">
  <g id="lock_shape" transform="translate(-3.5 -2)">
    <g id="Lock" transform="translate(3.5 2)">
      <path id="Lock-2" data-name="Lock" d="M56.3,88.43H18.874A18.69,18.69,0,0,1,0,69.974V48.143A18.414,18.414,0,0,1,13.164,30.637V23.861A24.194,24.194,0,0,1,37.518,0a24.654,24.654,0,0,1,17.33,6.986A23.412,23.412,0,0,1,62,23.861v6.777A18.414,18.414,0,0,1,75.167,48.143V69.974A18.688,18.688,0,0,1,56.3,88.43ZM37.562,50.335a3.871,3.871,0,0,0-3.908,3.824v9.754a3.93,3.93,0,0,0,7.859,0V54.16A3.894,3.894,0,0,0,37.562,50.335Zm.044-42.647A16.41,16.41,0,0,0,21.027,23.769v5.917H54.14V23.861A16.375,16.375,0,0,0,37.605,7.688Z" transform="translate(0 0)" fill="#fff"/>
    </g>
  </g>
</svg>
