<svg xmlns="http://www.w3.org/2000/svg" width="116" height="116" viewBox="0 0 116 116">
  <g id="mobile_icon" transform="translate(0.317 -0.11)">
    <circle id="Эллипс_969" data-name="Эллипс 969" cx="58" cy="58" r="58" transform="translate(-0.317 0.11)" fill="#4d50b0"/>
    <path id="smartphone_3_" data-name="smartphone (3)" d="M122.118,0h-26.2A4.919,4.919,0,0,0,91,4.913V50.99A4.919,4.919,0,0,0,95.913,55.9h26.2a4.919,4.919,0,0,0,4.913-4.913V4.913A4.919,4.919,0,0,0,122.118,0Zm-13.1,49.352a1.638,1.638,0,1,1,1.638-1.638A1.638,1.638,0,0,1,109.016,49.352Zm3.276-39.525H105.74a1.638,1.638,0,1,1,0-3.276h6.551a1.638,1.638,0,1,1,0,3.276Z" transform="translate(-51.332 30.159)" fill="#fff"/>
  </g>
</svg>
