<svg xmlns="http://www.w3.org/2000/svg" width="83" height="83" viewBox="0 0 83 83">
  <g id="shield_icon" transform="translate(-4 -3)">
    <circle id="Эллипс_970" data-name="Эллипс 970" cx="41.5" cy="41.5" r="41.5" transform="translate(4 3)" fill="#ffb940"/>
    <g id="donation" transform="translate(30.313 27.546)">
      <g id="Iconly_Bulk_Shield_Done" data-name="Iconly/Bulk/Shield Done" transform="translate(0 0)">
        <g id="Shield_Done" data-name="Shield Done" transform="translate(0)">
          <path id="Вычитание_67" data-name="Вычитание 67" d="M14.8,34.466h0a1.351,1.351,0,0,1-.618-.148L7.971,31.1a14.551,14.551,0,0,1-4.214-3.129A14.209,14.209,0,0,1,.072,18.543L0,7.107a3.123,3.123,0,0,1,2.116-2.95L13.511.184A3.182,3.182,0,0,1,14.584,0a3.249,3.249,0,0,1,1.047.172L27.07,4.01a3.113,3.113,0,0,1,2.153,2.921L29.3,18.375a14.2,14.2,0,0,1-3.56,9.47,14.51,14.51,0,0,1-4.173,3.179l-6.15,3.285A1.315,1.315,0,0,1,14.8,34.466ZM10.164,15.522a1.311,1.311,0,0,0-.927.377,1.246,1.246,0,0,0,.01,1.792l3.3,3.177a1.321,1.321,0,0,0,.919.365h0a1.307,1.307,0,0,0,.917-.377l6.72-6.626a1.232,1.232,0,0,0,.375-.893,1.245,1.245,0,0,0-.388-.9,1.327,1.327,0,0,0-1.84.012l-5.8,5.722-2.376-2.284A1.314,1.314,0,0,0,10.164,15.522Z" fill="#fff" stroke="rgba(0,0,0,0)" stroke-miterlimit="10" stroke-width="1"/>
        </g>
      </g>
    </g>
  </g>
</svg>
