<svg width="21" height="48" viewBox="0 0 21 48" fill="none" xmlns="http://www.w3.org/2000/svg">
<g clip-path="url(#clip0)">
<path d="M19.7018 45.5504C17.7077 46.3442 16.1187 46.9492 14.9347 47.3653C13.5944 47.8071 12.19 48.0181 10.7804 47.9895C8.75045 48.117 6.74552 47.4818 5.15131 46.2061C4.50508 45.6495 3.98984 44.9544 3.64309 44.1713C3.29634 43.3883 3.12682 42.537 3.14686 41.6794C3.14732 40.9496 3.1959 40.2206 3.29226 39.4973C3.39612 38.7577 3.55191 37.9237 3.7752 36.9848L6.26778 28.0678C6.48588 27.2128 6.67802 26.405 6.82861 25.6497C6.97113 24.9594 7.04593 24.2566 7.05191 23.5515C7.096 23.1295 7.05723 22.7029 6.93783 22.2961C6.81842 21.8892 6.62072 21.5102 6.35606 21.1806C5.57557 20.6438 4.6304 20.4075 3.69212 20.5145C3.0201 20.5173 2.352 20.618 1.70844 20.8135C1.03855 21.0233 0.451759 21.2121 -0.0259857 21.3957L0.633509 18.6524C2.26407 17.981 3.82194 17.4057 5.3071 16.9267C6.67034 16.4651 8.09644 16.2209 9.5341 16.2028C11.5338 16.0729 13.51 16.6972 15.0801 17.9548C15.7162 18.5223 16.2206 19.2245 16.5572 20.0115C16.8938 20.7985 17.0544 21.6508 17.0274 22.5077C17.0274 22.8959 16.9824 23.576 16.8924 24.5481C16.8087 25.4586 16.6347 26.3583 16.3731 27.2337L13.8909 36.1036C13.6884 36.817 13.5067 37.63 13.3457 38.5374C13.2093 39.229 13.1294 39.9308 13.1068 40.6356C13.0539 41.0704 13.0967 41.5118 13.2322 41.928C13.3678 42.3442 13.5927 42.725 13.8909 43.0432C14.7016 43.5484 15.6532 43.773 16.6016 43.6831C17.305 43.6708 18.0037 43.5632 18.6788 43.3631C19.2441 43.2181 19.7978 43.0305 20.3353 42.8019L19.7018 45.5504ZM19.2656 9.55174C18.1432 10.6195 16.6528 11.2029 15.1113 11.1778C13.5566 11.2072 12.0517 10.624 10.9154 9.55174C10.3609 9.0585 9.91808 8.45043 9.61701 7.76888C9.31593 7.08734 9.16368 6.3483 9.1706 5.60201C9.16524 4.85443 9.31814 4.11434 9.61907 3.43133C9.91999 2.74832 10.362 2.13817 10.9154 1.64179C12.046 0.558055 13.5529 -0.0334716 15.1113 -0.00524665C16.6566 -0.0297613 18.1493 0.562023 19.2656 1.64179C19.8125 2.14188 20.2497 2.7522 20.5489 3.43339C20.8481 4.11458 21.0027 4.85154 21.0027 5.59676C21.0027 6.34199 20.8481 7.07895 20.5489 7.76014C20.2497 8.44133 19.8125 9.05165 19.2656 9.55174Z" fill="white"/>
</g>
<defs>
<clipPath id="clip0">
<rect width="21" height="48" fill="white"/>
</clipPath>
</defs>
</svg>
