<svg xmlns="http://www.w3.org/2000/svg" width="78" height="79" viewBox="0 0 78 79">
  <g id="money_icon" transform="translate(0 -0.489)">
    <ellipse id="Эллипс_970" data-name="Эллипс 970" cx="39" cy="39.5" rx="39" ry="39.5" transform="translate(0 0.489)" fill="#3bb063"/>
    <g id="donation" transform="translate(20.961 22.35)">
      <path id="Вычитание_69" data-name="Вычитание 69" d="M17.894,35.786A17.892,17.892,0,0,1,5.242,5.242a17.892,17.892,0,1,1,25.3,25.3A17.775,17.775,0,0,1,17.894,35.786ZM9.479,20.825a1.945,1.945,0,0,0-.184.812v.86c0,2.187,3.922,3.966,8.743,3.966s8.744-1.779,8.744-3.966v-.86a1.933,1.933,0,0,0-.184-.812c-.838,1.827-4.439,3.154-8.56,3.154S10.318,22.652,9.479,20.825Zm0-4.428h0a1.953,1.953,0,0,0-.184.813v.859c0,2.187,3.922,3.966,8.743,3.966s8.744-1.779,8.744-3.966V17.21A1.941,1.941,0,0,0,26.6,16.4c-.838,1.827-4.439,3.154-8.56,3.154s-7.721-1.326-8.56-3.154Zm8.56-7.581C13.218,8.816,9.3,10.6,9.3,12.782v.86c0,2.187,3.922,3.965,8.743,3.965s8.744-1.779,8.744-3.965v-.86C26.783,10.6,22.86,8.816,18.039,8.816Z" fill="#fff"/>
    </g>
  </g>
</svg>
