<svg xmlns="http://www.w3.org/2000/svg" width="96" height="96" viewBox="0 0 96 96">
  <g id="outline_send_icon" transform="translate(-0.462 -0.462)">
    <circle id="Эллипс_964" data-name="Эллипс 964" cx="48" cy="48" r="48" transform="translate(0.462 0.462)" fill="#6e71c7"/>
    <g id="Iconly_Light-outline_Send" data-name="Iconly/Light-outline/Send" transform="translate(27.686 33.967)">
      <g id="Send" transform="translate(0 0)">
        <path id="Send-2" data-name="Send" d="M23.972,36.168a3.486,3.486,0,0,1-2.87-1.477l-.164-.247L13.713,22.472,1.7,15.081a3.585,3.585,0,0,1,.591-6.395l.28-.092L31.612.145A3.617,3.617,0,0,1,32.618,0a3.579,3.579,0,0,1,3.465,4.344l-.067.26L27.4,33.613A3.554,3.554,0,0,1,23.972,36.168ZM25.235,9.5a1.378,1.378,0,0,1,.824.27l.157.134a1.4,1.4,0,0,1,.14,1.811l-.134.157-9.743,9.8L23.32,33a.761.761,0,0,0,.663.38.774.774,0,0,0,.694-.424l.057-.142L33.348,3.812a.8.8,0,0,0-.123-.709.784.784,0,0,0-.623-.319.761.761,0,0,0-.08,0l-.135.027L3.351,11.265a.777.777,0,0,0-.545.579.8.8,0,0,0,.233.775l.122.092L14.519,19.7,24.248,9.91A1.385,1.385,0,0,1,25.235,9.5Z" transform="translate(0 0)" fill="#fff" stroke="#fff" stroke-width="1"/>
      </g>
    </g>
  </g>
</svg>
