<svg xmlns="http://www.w3.org/2000/svg" width="78" height="79" viewBox="0 0 78 79">
  <g id="send_icon" transform="translate(0 0.489)">
    <ellipse id="Эллипс_964" data-name="Эллипс 964" cx="39" cy="39.5" rx="39" ry="39.5" transform="translate(0 -0.489)" fill="#3bb063"/>
    <g id="Iconly_Bold_Send" data-name="Iconly/Bold/Send" transform="translate(23.772 27.602)">
      <g id="Send">
        <path id="Send-2" data-name="Send" d="M26.559.8A2.642,2.642,0,0,0,23.921.107l-22,6.4A2.623,2.623,0,0,0,.033,8.583,3.079,3.079,0,0,0,1.4,11.456l6.878,4.227a1.783,1.783,0,0,0,2.2-.264l7.876-7.925a1,1,0,0,1,1.449,0,1.042,1.042,0,0,1,0,1.458l-7.89,7.926a1.809,1.809,0,0,0-.264,2.212l4.2,6.947a2.61,2.61,0,0,0,2.269,1.293,2.841,2.841,0,0,0,.342-.014,2.664,2.664,0,0,0,2.228-1.9L27.215,3.45A2.684,2.684,0,0,0,26.559.8" transform="translate(0 0)" fill="#fff"/>
      </g>
    </g>
  </g>
</svg>
