<svg xmlns="http://www.w3.org/2000/svg" width="24.994" height="27.813" viewBox="0 0 24.994 27.813">
  <g id="mouse" transform="translate(-862.995 -859.49)">
    <path id="Контур_224" data-name="Контур 224" d="M751.144,397.76a9.033,9.033,0,0,1-6.538-6.894l-.134-.641a22.445,22.445,0,0,1,0-9.159l.134-.641a9.037,9.037,0,0,1,6.538-6.9,16.069,16.069,0,0,1,8.2,0,9.037,9.037,0,0,1,6.538,6.9l.134.641a22.445,22.445,0,0,1,0,9.159l-.134.641a9.033,9.033,0,0,1-6.538,6.894A16.04,16.04,0,0,1,751.144,397.76Z" transform="translate(120.25 487.75)" fill="none" stroke="#2c2c2c" stroke-width="2.5"/>
    <path id="Контур_225" data-name="Контур 225" d="M752,377v2.81" transform="translate(123.491 489.371)" fill="none" stroke="#2c2c2c" stroke-linecap="round" stroke-width="2.5"/>
  </g>
</svg>
