<svg width="230" height="74" viewBox="0 0 230 74" fill="none" xmlns="http://www.w3.org/2000/svg">
<path d="M121.663 31.045C121.663 27.1766 118.516 24.0275 114.652 24.0275H97.0621V27.4668H114.652C116.621 27.4668 118.226 29.0744 118.226 31.045C118.226 33.0155 116.627 34.6231 114.652 34.6231H97.0621V38.0623H114.652C116.621 38.0623 118.226 39.6702 118.226 41.6406C118.226 43.611 116.627 45.2188 114.652 45.2188H97.0621V48.658H114.652C118.516 48.658 121.663 45.509 121.663 41.6406C121.663 39.5252 120.721 37.6331 119.235 36.3457C120.721 35.0523 121.663 33.1605 121.663 31.045Z" fill="#231F20"/>
<path d="M133.389 31.0451C133.389 33.1604 134.331 35.0525 135.817 36.3399C134.331 37.6274 133.389 39.5191 133.389 41.6347C133.389 45.5029 136.536 48.652 140.4 48.652H157.99V45.2128H140.4C138.432 45.2128 136.826 43.6049 136.826 41.6347C136.826 39.6642 138.425 38.0564 140.4 38.0564H157.99V34.6172H140.4C138.432 34.6172 136.826 33.0094 136.826 31.0389C136.826 29.0683 138.425 27.4607 140.4 27.4607H157.99V24.0215H140.4C136.536 24.0276 133.389 27.1766 133.389 31.0451Z" fill="#231F20"/>
<path d="M180.302 24.0275H169.717V27.4668H180.302V48.6519H183.739V27.4668H194.317V24.0275H183.739H180.302Z" fill="#231F20"/>
<path d="M226.297 48.6517H230L221.474 27.3094C220.664 25.2845 218.738 23.979 216.558 23.979C214.378 23.979 212.453 25.2845 211.643 27.3094L203.116 48.6517H206.818L208.937 43.3448H224.178L226.297 48.6517ZM210.302 39.9299L214.83 28.5969C215.265 27.5089 216.261 27.4302 216.558 27.4302C216.854 27.4302 217.851 27.5148 218.28 28.5969L222.809 39.9299H210.302Z" fill="#231F20"/>
<path d="M36.2307 72.5877C56.2404 72.5877 72.4615 56.3509 72.4615 36.3219C72.4615 16.2929 56.2404 0.0561523 36.2307 0.0561523C16.221 0.0561523 0 16.2929 0 36.3219C0 56.3509 16.221 72.5877 36.2307 72.5877Z" fill="#231F20"/>
<path d="M48.7781 34.7083C48.3555 34.5873 48.0232 35.077 48.2949 35.4215C49.0015 36.3222 49.382 37.2769 49.382 38.2684C49.382 43.5146 38.7603 47.7639 25.6568 47.7639C21.9009 47.7639 18.3502 47.4133 15.1982 46.7907C14.8058 46.7123 14.5944 47.2319 14.9325 47.4495C19.1051 50.1635 26.5988 51.9768 35.1432 51.9768C48.2466 51.9768 58.8683 47.7214 58.8683 42.4811C58.8744 39.2655 54.8829 36.4248 48.7781 34.7083Z" fill="url(#paint0_linear)"/>
<path d="M44.702 20.6429C44.3397 20.5403 44.0558 20.9573 44.2913 21.2535C44.8953 22.0209 45.2213 22.8431 45.2213 23.6892C45.2213 28.1802 36.1335 31.8188 24.92 31.8188C21.7076 31.8188 18.6702 31.5227 15.971 30.9848C15.6328 30.9182 15.4578 31.3656 15.7415 31.5529C19.3164 33.8739 25.723 35.4274 33.0357 35.4274C44.249 35.4274 53.337 31.7886 53.337 27.2976C53.337 24.5415 49.9254 22.1117 44.702 20.6429Z" fill="url(#paint1_linear)"/>
<defs>
<linearGradient id="paint0_linear" x1="14.7665" y1="43.3332" x2="58.8716" y2="43.3332" gradientUnits="userSpaceOnUse">
<stop stop-color="#8077F2"/>
<stop offset="1" stop-color="#FFB29B"/>
</linearGradient>
<linearGradient id="paint1_linear" x1="15.5959" y1="28.0248" x2="53.3363" y2="28.0248" gradientUnits="userSpaceOnUse">
<stop stop-color="#8077F2"/>
<stop offset="1" stop-color="#FFB29B"/>
</linearGradient>
</defs>
</svg>
