<svg width="58" height="48" viewBox="0 0 58 48" fill="none" xmlns="http://www.w3.org/2000/svg">
<path d="M34 47.5C46.9787 47.5 57.5 36.9787 57.5 24C57.5 11.0213 46.9787 0.5 34 0.5C21.0213 0.5 10.5 11.0213 10.5 24C10.5 36.9787 21.0213 47.5 34 47.5Z" stroke="#393F4F"/>
<path d="M21 43C31.4934 43 40 34.4934 40 24C40 13.5066 31.4934 5 21 5C10.5066 5 2 13.5066 2 24C2 34.4934 10.5066 43 21 43Z" fill="#090F1F"/>
<path d="M21 3C9.4208 3 0 12.4208 0 24C0 35.5792 9.4208 45 21 45C32.5792 45 42 35.5792 42 24C42 12.4208 32.5792 3 21 3ZM21 42.375C10.8678 42.375 2.62501 34.1322 2.62501 24C2.62501 13.8678 10.8678 5.62501 21 5.62501C31.1322 5.62501 39.375 13.8678 39.375 24C39.375 34.1322 31.1322 42.375 21 42.375Z" fill="white"/>
<path d="M22.3125 10.875H19.6875V24.5434L27.947 32.8029L29.803 30.947L22.3125 23.4565V10.875Z" fill="white"/>
</svg>
