<svg id="tag_logo" xmlns="http://www.w3.org/2000/svg" width="116.735" height="41.781" viewBox="0 0 116.735 41.781">
  <path id="Контур_59067" data-name="Контур 59067" d="M12.307,10.038H0V.532H36.281v9.506H23.974V40.486H12.307Z" transform="translate(0 0.381)" fill="#fff"/>
  <path id="Контур_59068" data-name="Контур 59068" d="M72.212,19.806H83.893V36.7a27.1,27.1,0,0,1-8.205,3.767,33.814,33.814,0,0,1-9.174,1.313A24.541,24.541,0,0,1,55.06,39.155a20.292,20.292,0,0,1-7.978-7.42,20.821,20.821,0,0,1-2.849-10.845A20.521,20.521,0,0,1,47.083,10.1a19.672,19.672,0,0,1,8.035-7.42A25.044,25.044,0,0,1,66.8,0,26.159,26.159,0,0,1,77.283,2a19.465,19.465,0,0,1,7.75,5.708l-8.291,7.278a12.029,12.029,0,0,0-9.259-4.395A10.173,10.173,0,0,0,60.1,13.272a11.187,11.187,0,0,0-3.247,7.619,11.407,11.407,0,0,0,3.19,7.562,9.9,9.9,0,0,0,7.265,2.74,12.652,12.652,0,0,0,4.9-.97Z" transform="translate(31.702 0)" fill="#fff"/>
  <path id="Контур_59069" data-name="Контур 59069" d="M31.141,40.486H17.778L35.215.532h13.22L65.871,40.486H52.593L42.024,16.033Z" transform="translate(12.741 0.381)" fill="#fff"/>
  <path id="Контур_59070" data-name="Контур 59070" d="M28.44,29.683l5.79-13.457,5.79,13.457Z" transform="translate(20.382 11.628)" fill="#21905b"/>
</svg>
