<svg xmlns="http://www.w3.org/2000/svg" xmlns:xlink="http://www.w3.org/1999/xlink" width="225.398" height="65.681" viewBox="0 0 225.398 65.681">
  <defs>
    <linearGradient id="linear-gradient" x1="0.5" x2="0.5" y2="1" gradientUnits="objectBoundingBox">
      <stop offset="0" stop-color="#bff2ff"/>
      <stop offset="0.415" stop-color="#55cdff"/>
      <stop offset="1" stop-color="#ff5ad9"/>
    </linearGradient>
    <linearGradient id="linear-gradient-2" x1="0.5" x2="0.5" y2="1" gradientUnits="objectBoundingBox">
      <stop offset="0" stop-color="#26afe6"/>
      <stop offset="1" stop-color="#fe3dce"/>
    </linearGradient>
    <radialGradient id="radial-gradient" cx="0.5" cy="0.5" r="0.5" gradientUnits="objectBoundingBox">
      <stop offset="0" stop-color="#2e2e2e"/>
      <stop offset="1"/>
    </radialGradient>
    <filter id="Эллипс_5620" x="29.169" y="36.467" width="28.394" height="28.394" filterUnits="userSpaceOnUse">
      <feOffset dy="3" input="SourceAlpha"/>
      <feGaussianBlur stdDeviation="3" result="blur"/>
      <feFlood flood-color="#fff" flood-opacity="0.161"/>
      <feComposite operator="in" in2="blur"/>
      <feComposite in="SourceGraphic"/>
    </filter>
  </defs>
  <g id="logo" transform="translate(-1 -3.118)">
    <path id="Контур_59451" data-name="Контур 59451" d="M42.607,55.178A18.866,18.866,0,1,0,23.742,36.312,18.866,18.866,0,0,0,42.607,55.178Zm0,1.975A20.841,20.841,0,1,0,21.767,36.312,20.841,20.841,0,0,0,42.607,57.153Z" transform="translate(13.236 -0.354)" fill-rule="evenodd" fill="url(#linear-gradient)"/>
    <g id="Сгруппировать_36631" data-name="Сгруппировать 36631" transform="translate(37.003 28.118)">
      <path id="Контур_59450" data-name="Контур 59450" d="M42.116,54.213A18.372,18.372,0,1,0,23.744,35.841,18.372,18.372,0,0,0,42.116,54.213Zm0,2.469A20.841,20.841,0,1,0,21.275,35.841,20.841,20.841,0,0,0,42.116,56.681Z" transform="translate(-23.275 -28)" fill-rule="evenodd" fill="url(#linear-gradient-2)"/>
    </g>
    <path id="Объединение_19" data-name="Объединение 19" d="M2787.926,233.264a2.176,2.176,0,0,1-1.677-.812,2.133,2.133,0,0,1-.51-1.417v-2.723h19.379a.43.43,0,0,0,.441-.316.147.147,0,0,0,.027-.083.229.229,0,0,0,.015-.055v-1.444a.426.426,0,0,0-.318-.412.5.5,0,0,0-.166-.028H2791.2q-3.3,0-4.54-1.637a2.335,2.335,0,0,1-.357-.563,4.1,4.1,0,0,1-.262-.647,6.4,6.4,0,0,1-.193-.88,12.451,12.451,0,0,1-.082-1.664v-.11a10.01,10.01,0,0,1,.453-3.659,3.58,3.58,0,0,1,.785-1.265,2.4,2.4,0,0,1,.536-.481,4.873,4.873,0,0,1,1.8-.757,7.767,7.767,0,0,1,1.83-.206h17.468a2.189,2.189,0,0,1,1.349.482,2.274,2.274,0,0,1,.812,1.8v2.682h-.029q-1.927.027-8.143.028-4.9.027-7.592.027-2.82.028-3.837.028a.568.568,0,0,0-.373.138.537.537,0,0,0-.137.4v1.045a.507.507,0,0,0,.316.509.555.555,0,0,1,.068.027h.07q6.242-.027,7.124-.027c.148,0,.413,0,.8-.014q1.624-.027,6.161-.027h.11a11.072,11.072,0,0,1,1.583.151,6.535,6.535,0,0,1,1.182.3,3.858,3.858,0,0,1,2.132,1.83,5.888,5.888,0,0,1,.565,2.709v1.967q0,2.916-1.72,4.112a7.126,7.126,0,0,1-4.141.991Zm-39.531,0V216.03a2.063,2.063,0,0,1,.11-.743,1.882,1.882,0,0,1,.193-.385,1.535,1.535,0,0,1,.234-.261,1.857,1.857,0,0,1,1.293-.536h13.947a12.279,12.279,0,0,1,4.868.88q.413.165.646.275.343.192.73.454a6.122,6.122,0,0,1,2.6,3.15,6.487,6.487,0,0,1,.413,2.31v.179a6.4,6.4,0,0,1-.62,2.778q-.193.371-.481.825a9.05,9.05,0,0,1-.591.7,3.92,3.92,0,0,1-.33.345l-.138.137-.109.083-.207.165c-.165.12-.37.257-.619.413a.73.73,0,0,0-.11.068c-.248.129-.471.243-.673.344-.1.046-.2.092-.289.138q-.536.22-1.129.4,1.707,1.76,2.339,2.559l.839.949q.783.907,1.5,1.691a1.475,1.475,0,0,1,.263.289h-5.943a2.31,2.31,0,0,1-.8-.11c-.055-.028-.105-.055-.151-.083s-.1-.059-.151-.1a2.971,2.971,0,0,1-.645-.646q-1.308-1.554-2.765-3.4l-.483-.619a1,1,0,0,0-.163.028q-.855,0-5.131.028h-3.495v3.122a1.837,1.837,0,0,1-.756,1.485,1.787,1.787,0,0,1-1.046.317Zm4.951-9.862h11.264a3.659,3.659,0,0,0,2.009-.454,1.9,1.9,0,0,0,.73-.84,2.054,2.054,0,0,0,.192-.907,2.014,2.014,0,0,0-.922-1.679,1.837,1.837,0,0,0-.289-.165.336.336,0,0,1-.082-.041,3.026,3.026,0,0,0-.756-.22c-.11,0-.262-.01-.455-.028h-11.692Zm-20.948,9.862a2.614,2.614,0,0,1-2.476-1.582q-.564-.963-.825-1.43-.22-.4-.248-.427H2715.7a.13.13,0,0,0-.069.028.209.209,0,0,0-.042.11l-1.238,2.174a2.644,2.644,0,0,1-2.228,1.128H2707.9v-.028q3.04-5.377,5.3-9.325l2.888-5.09q1.706-3.012,1.788-3.136a4.925,4.925,0,0,1,.468-.729,2.513,2.513,0,0,1,1.9-.853h4.03a2.541,2.541,0,0,1,2.049,1.018,8.022,8.022,0,0,1,.55.935,1.522,1.522,0,0,1,.1.166q.124.192,2.118,3.713.564,1,1.293,2.283,4.525,7.991,4.648,8.17l1.61,2.875Zm-14.442-7.5h8.61q-4.223-7.4-4.305-7.579Zm-42.241,7.5a1.811,1.811,0,0,1-1.526-.812,1.638,1.638,0,0,1-.275-.77v-.138l-.027-15.666a1.833,1.833,0,0,1,1.8-1.774h3.177a.59.59,0,0,1-.014.138.1.1,0,0,0-.014.041v13.232l.028.027h-.028a.079.079,0,0,1,.028.055v.715h17.606v3.039a1.847,1.847,0,0,1-1.156,1.8,1.869,1.869,0,0,1-.619.111Zm-90.313,0V215.878a1.839,1.839,0,0,1,.674-1.375,1.751,1.751,0,0,1,1.1-.4h14.056a11.274,11.274,0,0,1,6.217,1.609,5.872,5.872,0,0,1,.935.7,6.407,6.407,0,0,1,2.049,4.855,6.264,6.264,0,0,1-1.485,4.2,4.724,4.724,0,0,1-.646.618,6.05,6.05,0,0,1-1.073.757,11.764,11.764,0,0,1-6,1.444l-10.59.056h-.289v3.122a1.816,1.816,0,0,1-.785,1.485,1.91,1.91,0,0,1-1.072.317Zm4.952-9.862h11.237a3.267,3.267,0,0,0,2.31-.674c.083-.082.17-.174.261-.275a2.021,2.021,0,0,0,.385-1.21,1.966,1.966,0,0,0-1.375-1.953,4.69,4.69,0,0,0-1.554-.221h-11.264Z" transform="translate(-2584.402 -185.574)" fill="#fff"/>
    <ellipse id="Эллипс_5619" data-name="Эллипс 5619" cx="5.197" cy="5.256" rx="5.197" ry="5.256" transform="translate(65.505 17.737)" fill="url(#radial-gradient)"/>
    <g transform="matrix(1, 0, 0, 1, 1, 3.12)" filter="url(#Эллипс_5620)">
      <circle id="Эллипс_5620-2" data-name="Эллипс 5620" cx="5.197" cy="5.197" r="5.197" transform="translate(38.17 42.47)" fill="#fff"/>
    </g>
  </g>
</svg>
