<svg width="21" height="21" viewBox="0 0 21 21" fill="none" xmlns="http://www.w3.org/2000/svg">
<path d="M17.9712 1.81738H3.02884C1.35872 1.81738 0 3.17611 0 4.84622V16.1539C0 17.824 1.35872 19.1827 3.02884 19.1827H17.9712C19.6413 19.1827 21 17.824 21 16.1539V4.84622C21 3.17611 19.6413 1.81738 17.9712 1.81738ZM19.7885 12.3174H15.3462C14.3441 12.3174 13.5288 11.5022 13.5288 10.5001C13.5288 9.49797 14.3441 8.68274 15.3462 8.68274H19.7885V12.3174ZM19.7885 7.47122H15.3462C13.676 7.47122 12.3173 8.82995 12.3173 10.5001C12.3173 12.1702 13.676 13.5289 15.3462 13.5289H19.7885V16.1539C19.7885 17.156 18.9733 17.9712 17.9712 17.9712H3.02884C2.02679 17.9712 1.21152 17.156 1.21152 16.1539V4.84622C1.21152 3.84417 2.02675 3.0289 3.02884 3.0289H17.9712C18.9732 3.0289 19.7885 3.84413 19.7885 4.84622V7.47122Z" fill="white"/>
<path d="M16.1539 9.89404H15.3462C15.0117 9.89404 14.7405 10.1653 14.7405 10.4998C14.7405 10.8344 15.0117 11.1056 15.3462 11.1056H16.1539C16.4885 11.1056 16.7597 10.8343 16.7597 10.4998C16.7597 10.1652 16.4885 9.89404 16.1539 9.89404Z" fill="white"/>
</svg>
