<svg width="50" height="50" viewBox="0 0 50 50" fill="none" xmlns="http://www.w3.org/2000/svg">
<g clip-path="url(#clip0)">
<path d="M32.5614 29.2489L15 29.2489L15 30.6775L32.5614 30.6775L29.74 33.4989L30.75 34.5089L34.7907 30.4682C35.0696 30.1892 35.0696 29.7372 34.7907 29.4582L30.75 25.4175L29.74 26.4275L32.5614 29.2489Z" fill="white"/>
<path d="M19.2503 15.4175L15.2096 19.4582C14.9308 19.7372 14.9308 20.1892 15.2096 20.4682L19.2503 24.5089L20.2604 23.4989L17.439 20.6775L35.0004 20.6775L35.0004 19.2489L17.439 19.2489L20.2604 16.4275L19.2503 15.4175Z" fill="white"/>
</g>
<circle cx="25" cy="25" r="24" stroke="white" stroke-width="2"/>
<defs>
<clipPath id="clip0">
<rect width="20" height="20" fill="white" transform="translate(15 35) rotate(-90)"/>
</clipPath>
</defs>
</svg>
