<svg width="50" height="49" viewBox="0 0 50 49" fill="none" xmlns="http://www.w3.org/2000/svg">
<path d="M38.889 22.588L16.6384 0.782799C16.1238 0.278063 15.4368 0 14.7043 0C13.9717 0 13.2848 0.278063 12.7701 0.782799L11.1315 2.38823C10.0653 3.43435 10.0653 5.1346 11.1315 6.17913L29.8159 24.4898L11.1108 42.8209C10.5962 43.3256 10.312 43.9985 10.312 44.7159C10.312 45.4342 10.5962 46.107 11.1108 46.6122L12.7494 48.2172C13.2644 48.7219 13.951 49 14.6835 49C15.416 49 16.103 48.7219 16.6177 48.2172L38.889 26.3921C39.4049 25.8857 39.6882 25.2097 39.6866 24.491C39.6882 23.7696 39.4049 23.094 38.889 22.588Z" fill="#1C75BC"/>
</svg>
