<svg viewBox="0 0 91 91" xmlns="http://www.w3.org/2000/svg">
<path d="M82.4679 22.548L60.4637 0.544044C60.1152 0.195685 59.6429 0 59.1504 0H17.0138C12.0369 0 7.98808 4.04914 7.98808 9.02605V81.9741C7.98808 86.9509 12.037 91 17.0139 91H73.9861C78.963 91 83.0119 86.951 83.0119 81.9741V23.8613C83.0117 23.3688 82.8161 22.8964 82.4679 22.548ZM61.0081 6.34137L76.6713 22.0044H66.3197C64.9007 22.0044 63.5666 21.4518 62.5634 20.4487C61.5605 19.4457 61.0079 18.1118 61.0081 16.693V6.34137ZM79.2975 81.974C79.2975 84.9028 76.9148 87.2855 73.9861 87.2855H17.0138C14.0849 87.2855 11.7022 84.9028 11.7022 81.974V9.02605C11.7024 6.09717 14.0851 3.71429 17.0138 3.71429H57.2938V16.6926C57.2935 19.1036 58.2322 21.3702 59.9369 23.0749C61.6417 24.7797 63.9084 25.7185 66.3195 25.7185H79.2973V81.974H79.2975Z" fill="white"/>
<path d="M48.8932 62.4716H48.0618C47.0362 62.4716 46.2046 63.303 46.2046 64.3287C46.2046 65.3544 47.0362 66.1859 48.0618 66.1859H48.8932C49.9187 66.1859 50.7504 65.3544 50.7504 64.3287C50.7504 63.303 49.9187 62.4716 48.8932 62.4716Z" fill="white"/>
<path d="M42.0536 62.4716H24.0151C22.9895 62.4716 22.1579 63.303 22.1579 64.3287C22.1579 65.3544 22.9895 66.1859 24.0151 66.1859H42.0536C43.0792 66.1859 43.9108 65.3544 43.9108 64.3287C43.9108 63.303 43.0793 62.4716 42.0536 62.4716Z" fill="white"/>
<path d="M66.9848 53.986H24.0153C22.9897 53.986 22.1581 54.8174 22.1581 55.8431C22.1581 56.8689 22.9897 57.7003 24.0153 57.7003H66.9848C68.0103 57.7003 68.8419 56.8689 68.8419 55.8431C68.8419 54.8174 68.0103 53.986 66.9848 53.986Z" fill="white"/>
<path d="M66.9848 45.4996H24.0153C22.9897 45.4996 22.1581 46.3311 22.1581 47.3568C22.1581 48.3825 22.9897 49.2139 24.0153 49.2139H66.9848C68.0103 49.2139 68.8419 48.3825 68.8419 47.3568C68.8419 46.3311 68.0103 45.4996 66.9848 45.4996Z" fill="white"/>
<path d="M66.9848 37.014H24.0153C22.9897 37.014 22.1581 37.8454 22.1581 38.8711C22.1581 39.8968 22.9897 40.7283 24.0153 40.7283H66.9848C68.0103 40.7283 68.8419 39.8968 68.8419 38.8711C68.8419 37.8454 68.0103 37.014 66.9848 37.014Z" fill="white"/>
</svg>
