<svg width="18" height="18" viewBox="0 0 18 18" fill="none" xmlns="http://www.w3.org/2000/svg">
<g clip-path="url(#clip0)">
<path d="M17.3092 8.65462C17.3092 3.8748 13.4344 0 8.65462 0C3.8748 0 0 3.8748 0 8.65462C0 12.9743 3.16485 16.5548 7.30234 17.2041V11.1563H5.10488V8.65462H7.30234V6.7479C7.30234 4.57884 8.59445 3.38071 10.5713 3.38071C11.5179 3.38071 12.5086 3.54975 12.5086 3.54975V5.6796H11.4173C10.3423 5.6796 10.0069 6.34678 10.0069 7.03188V8.65462H12.4072L12.0235 11.1563H10.0069V17.2041C14.1444 16.5548 17.3092 12.9743 17.3092 8.65462Z" fill="white"/>
</g>
<defs>
<clipPath id="clip0">
<rect width="17.3092" height="17.3092" fill="white"/>
</clipPath>
</defs>
</svg>
