<svg viewBox="0 0 20 19" xmlns="http://www.w3.org/2000/svg">
    <path d="M9.81818 0.0256348C4.39364 0.0256348 0 4.34563 0 9.67363C0 13.9372 2.81291 17.5527 6.71318 18.8275C7.20409 18.9183 7.38409 18.6196 7.38409 18.3635C7.38409 18.1345 7.37591 17.5274 7.37182 16.7231C4.64073 17.3048 4.06473 15.4287 4.06473 15.4287C3.618 14.3152 2.97245 14.0174 2.97245 14.0174C2.08309 13.4193 3.04118 13.4315 3.04118 13.4315C4.02709 13.4986 4.545 14.4256 4.545 14.4256C5.42045 15.9008 6.84327 15.4745 7.40455 15.2283C7.49291 14.604 7.74573 14.1794 8.02636 13.938C5.84591 13.6966 3.55418 12.867 3.55418 9.17045C3.55418 8.11745 3.93464 7.25673 4.56464 6.58173C4.45418 6.33791 4.12282 5.35691 4.65055 4.02818C4.65055 4.02818 5.47282 3.76963 7.35055 5.01736C8.136 4.803 8.97055 4.69663 9.80509 4.69173C10.6396 4.69663 11.4742 4.803 12.2596 5.01736C14.1251 3.76963 14.9474 4.02818 14.9474 4.02818C15.4751 5.35691 15.1437 6.33791 15.0455 6.58173C15.6715 7.25673 16.0519 8.11745 16.0519 9.17045C16.0519 12.8768 13.7569 13.6925 11.5724 13.9298C11.916 14.2195 12.2351 14.811 12.2351 15.7151C12.2351 17.0062 12.2228 18.0436 12.2228 18.357C12.2228 18.6098 12.3946 18.9117 12.8978 18.8152C16.8259 17.5486 19.6364 13.9306 19.6364 9.67363C19.6364 4.34563 15.2403 0.0256348 9.81818 0.0256348Z"/>
</svg>
