<svg viewBox="0 0 91 91" xmlns="http://www.w3.org/2000/svg">
<g clip-path="url(#clip0)">
<path d="M82.5851 19.2364C82.5836 19.207 82.5805 19.1777 82.5755 19.1485C82.4617 18.9861 82.3217 18.8463 82.2049 18.687C81.3551 17.5296 80.4557 16.4157 79.5063 15.345C79.2464 15.0524 78.9861 14.763 78.7196 14.477C77.7424 13.4303 76.7171 12.4321 75.6443 11.4829C75.4462 11.3073 75.2606 11.1254 75.0624 10.953C72.4184 8.68794 69.5236 6.73321 66.4346 5.12741C66.3108 5.06245 66.1808 5.00721 66.0539 4.94206C64.6783 4.24299 63.2678 3.61458 61.828 3.0597C61.5024 2.94274 61.2067 2.83207 60.8983 2.73454C59.6172 2.273 58.3169 1.86879 56.9969 1.52192C56.6066 1.41792 56.2168 1.31067 55.82 1.21962C54.5197 0.917322 53.2194 0.686455 51.8898 0.497878C51.4869 0.4394 51.09 0.361301 50.6835 0.312537C47.2589 -0.10367 43.7964 -0.10367 40.3715 0.312537C39.9652 0.361301 39.5686 0.4394 39.1654 0.497878C37.8358 0.686455 36.5224 0.917322 35.2349 1.21962C34.8383 1.31067 34.4482 1.41792 34.0581 1.52192C32.7295 1.8686 31.4292 2.27281 30.157 2.73454C29.8318 2.84503 29.536 2.9557 29.2273 3.0597C27.7874 3.61458 26.3766 4.2428 25.001 4.94206C24.8741 5.00702 24.7442 5.06225 24.6206 5.12741C21.5212 6.73149 18.6165 8.68602 15.9632 10.953C15.765 11.1252 15.5796 11.3073 15.3813 11.4829C14.2976 12.4365 13.2725 13.4346 12.306 14.477C12.0395 14.763 11.7793 15.0524 11.5193 15.345C10.5678 16.4134 9.66832 17.5274 8.82106 18.6868C8.70407 18.8461 8.56428 18.9859 8.45038 19.1484C8.43552 19.1768 8.42237 19.2061 8.4113 19.2362C-2.80173 34.9505 -2.80173 56.0507 8.4113 71.7649C8.42237 71.7947 8.43532 71.824 8.45038 71.8523C8.56408 72.0151 8.70392 72.1547 8.82106 72.3139C9.66852 73.4716 10.5678 74.5854 11.5193 75.6562C11.7793 75.9489 12.0395 76.238 12.306 76.5242C13.2856 77.5707 14.3106 78.5692 15.3813 79.5181C15.5796 79.6935 15.765 79.8755 15.9632 80.0479C18.6071 82.3133 21.5022 84.2678 24.5912 85.8734C24.7149 85.9386 24.8447 85.9937 24.9716 86.059C26.3473 86.7581 27.7579 87.3866 29.1979 87.9412C29.5231 88.0584 29.8189 88.1692 30.1276 88.2667C31.4085 88.7278 32.7089 89.1322 34.0288 89.479C34.4189 89.5832 34.809 89.6904 35.2056 89.7814C36.506 90.0837 37.8063 90.3147 39.136 90.5033C39.5391 90.5614 39.9357 90.6398 40.3422 90.6883C43.7669 91.1049 47.2293 91.1049 50.6542 90.6883C51.0607 90.6398 51.457 90.5614 51.8605 90.5033C53.1901 90.3147 54.5035 90.0837 55.7907 89.7814C56.1875 89.6904 56.5773 89.5832 56.9676 89.479C58.2982 89.1322 59.599 88.7283 60.869 88.2667C61.194 88.156 61.4898 88.0453 61.7987 87.9412C63.2385 87.3866 64.649 86.7581 66.0246 86.059C66.1515 85.9943 66.2814 85.9386 66.4053 85.8734C69.4942 84.2678 72.3891 82.3133 75.0331 80.0479C75.2313 79.8755 75.4168 79.6935 75.615 79.5181C76.6989 78.5666 77.7237 77.5687 78.6903 76.5242C78.9567 76.238 79.2171 75.9489 79.4769 75.6562C80.4284 74.5854 81.3283 73.4716 82.1756 72.3139C82.2924 72.1547 82.4319 72.0151 82.5462 71.8523C82.5608 71.824 82.574 71.7947 82.5851 71.7649C93.7983 56.0507 93.7983 34.9507 82.5851 19.2364ZM78.8758 25.3873C81.985 30.5077 83.8621 36.2801 84.3601 42.2499H64.8871C64.6485 38.3762 64.0388 34.5345 63.0666 30.7774C68.5671 29.7473 73.8916 27.932 78.8758 25.3873ZM53.7851 7.38674C53.9671 7.429 54.1425 7.4875 54.3245 7.52981C55.4883 7.80296 56.6425 8.11494 57.7709 8.50508C57.9433 8.56357 58.1122 8.63192 58.281 8.69365C59.3993 9.08374 60.5014 9.51614 61.5808 9.99409C61.7694 10.0819 61.9549 10.1794 62.1435 10.2672C63.1773 10.7593 64.1869 11.2913 65.1733 11.8635L65.8234 12.2569C66.7597 12.829 67.6702 13.4413 68.5544 14.0937C68.7819 14.2594 69.0094 14.4189 69.2339 14.6008C70.1004 15.2509 70.9305 15.9477 71.7237 16.6911C71.932 16.8797 72.1464 17.065 72.3511 17.2601C73.1838 18.05 73.9765 18.8855 74.7439 19.7503C74.8415 19.864 74.9457 19.968 75.0432 20.0755C70.6414 22.1733 65.9781 23.6712 61.1779 24.5292C58.9544 18.4161 56.0166 12.5869 52.4267 7.16273C52.8782 7.24387 53.3397 7.28942 53.7851 7.38674ZM32.6279 42.2497C32.8843 38.7322 33.4832 35.2481 34.416 31.8468C38.0994 32.2843 41.8055 32.5013 45.5148 32.4969C49.2275 32.4958 52.9368 32.2733 56.6233 31.8304C57.5545 35.2372 58.1501 38.7269 58.4013 42.2497H32.6279ZM58.4013 48.7517C58.145 52.2692 57.5459 55.7534 56.6132 59.1548C52.9297 58.717 49.2239 58.5001 45.5146 58.5047C41.802 58.5001 38.0927 58.7175 34.4061 59.1548C33.476 55.7529 32.8805 52.2692 32.6278 48.7517H58.4013ZM45.5146 8.60927C49.2141 13.8527 52.2568 19.5301 54.5748 25.5141C51.5657 25.8338 48.5412 25.9944 45.5146 25.9953C42.4914 25.9917 39.4703 25.8302 36.4639 25.5109C38.7848 19.5309 41.8239 13.8554 45.5146 8.60927ZM16.2888 19.7469C17.0528 18.8821 17.8492 18.0466 18.6815 17.2566C18.8862 17.0616 19.1009 16.8763 19.3089 16.6877C20.1109 15.9574 20.941 15.2606 21.7991 14.5973C22.0235 14.4249 22.2509 14.2722 22.4786 14.0903C23.3628 13.4401 24.2731 12.8277 25.2093 12.2534L25.8595 11.86C26.8456 11.2837 27.8556 10.7515 28.8893 10.2638C29.0779 10.176 29.2632 10.0785 29.4518 9.99065C30.5311 9.503 31.6332 9.07059 32.7516 8.69021C32.9205 8.62848 33.0767 8.56013 33.2619 8.50164C34.3899 8.1245 35.5376 7.81247 36.7079 7.52637C36.89 7.48406 37.0655 7.42562 37.2508 7.38654C37.6962 7.28902 38.1579 7.24352 38.6097 7.16217C35.0179 12.5873 32.0795 18.4177 29.8549 24.5318C25.0548 23.6739 20.3915 22.1759 15.9897 20.0781C16.0873 19.9646 16.1912 19.8606 16.2888 19.7469ZM12.1536 25.3873C17.1368 27.9318 22.4599 29.7471 27.9596 30.7774C26.9883 34.5347 26.3797 38.3764 26.1423 42.2499H6.66931C7.16728 36.2801 9.04466 30.5077 12.1536 25.3873ZM12.1536 65.6143C9.04446 60.494 7.16708 54.7216 6.66931 48.7517H26.1423C26.3808 52.6256 26.9904 56.4673 27.9628 60.2241C22.4622 61.2539 17.138 63.0693 12.1536 65.6143ZM37.2444 83.6146C37.0622 83.5726 36.8868 83.514 36.7047 83.4715C35.5408 83.1985 34.3867 82.8866 33.2587 82.4963C33.0863 82.4377 32.9173 82.3694 32.7481 82.3077C31.6298 81.9175 30.5278 81.4852 29.4484 81.0075C29.2598 80.9195 29.0745 80.8219 28.8859 80.734C27.8521 80.242 26.8422 79.7102 25.8561 79.1379L25.2059 78.7446C24.2697 78.1723 23.3594 77.5601 22.4752 76.9079C22.2475 76.7421 22.02 76.5828 21.7957 76.4008C20.9288 75.7507 20.0986 75.0535 19.3055 74.3104C19.0975 74.1218 18.8828 73.9362 18.678 73.7411C17.8458 72.9514 17.0526 72.1157 16.2853 71.2512C16.1878 71.1375 16.0838 71.0333 15.9863 70.9262C20.3882 68.8281 25.0514 67.3302 29.8515 66.4722C32.0751 72.5854 35.0126 78.4145 38.6029 83.8386C38.1512 83.7577 37.6897 83.7122 37.2444 83.6146ZM45.5146 82.3922C41.815 77.1491 38.7722 71.4717 36.4542 65.4874C42.4748 64.8393 48.5477 64.8393 54.5682 65.4874L54.5652 65.4904C52.2447 71.4707 49.2054 77.146 45.5146 82.3922ZM74.7404 71.2548C73.9765 72.1193 73.1803 72.955 72.3481 73.7446C72.1434 73.9398 71.9285 74.1253 71.7202 74.3139C70.9184 75.0465 70.0883 75.7431 69.2304 76.4039C69.0059 76.5763 68.7784 76.7456 68.5509 76.9109C67.6667 77.5611 66.7562 78.1738 65.8199 78.7481L65.1697 79.1414C64.1859 79.7158 63.1758 80.2476 62.1399 80.7375C61.9514 80.8255 61.7663 80.923 61.5778 81.011C60.4984 81.4984 59.3963 81.9306 58.278 82.3113C58.1086 82.373 57.9524 82.4412 57.7674 82.4999C56.6395 82.877 55.4919 83.1889 54.3215 83.4751C54.1395 83.5175 53.9641 83.5757 53.7785 83.6151C53.3332 83.7122 52.8716 83.7582 52.4196 83.8391C56.0101 78.415 58.9474 72.5859 61.1713 66.4727C65.971 67.3307 70.6343 68.8286 75.0361 70.9267C74.9421 71.0369 74.838 71.141 74.7404 71.2548ZM78.8758 65.6143C73.8926 63.0698 68.5696 61.2544 63.0696 60.2241C64.0408 56.4668 64.6495 52.6251 64.8871 48.7517H84.3601C83.8621 54.7211 81.9845 60.4935 78.8758 65.6143Z" fill="white"/>
</g>
<defs>
<clipPath id="clip0">
<rect width="91" height="91" fill="white"/>
</clipPath>
</defs>
</svg>
