<svg width="18" height="18" viewBox="0 0 18 18" fill="none" xmlns="http://www.w3.org/2000/svg">
<g clip-path="url(#clip0)">
<path d="M9.27303 1.55851C11.5854 1.55851 11.8593 1.56865 12.7687 1.60922C13.6139 1.64641 14.0703 1.7884 14.3745 1.90672C14.7768 2.06223 15.0676 2.25155 15.3685 2.55244C15.6727 2.8567 15.8587 3.14406 16.0142 3.54637C16.1325 3.85063 16.2745 4.31041 16.3117 5.1522C16.3522 6.065 16.3624 6.33883 16.3624 8.64786C16.3624 10.9603 16.3522 11.2341 16.3117 12.1435C16.2745 12.9887 16.1325 13.4451 16.0142 13.7494C15.8587 14.1517 15.6693 14.4424 15.3685 14.7433C15.0642 15.0475 14.7768 15.2335 14.3745 15.389C14.0703 15.5073 13.6105 15.6493 12.7687 15.6865C11.8559 15.7271 11.5821 15.7372 9.27303 15.7372C6.96062 15.7372 6.68679 15.7271 5.77737 15.6865C4.9322 15.6493 4.4758 15.5073 4.17154 15.389C3.76923 15.2335 3.47849 15.0442 3.17761 14.7433C2.87334 14.439 2.6874 14.1517 2.53189 13.7494C2.41357 13.4451 2.27158 12.9853 2.23439 12.1435C2.19382 11.2307 2.18368 10.9569 2.18368 8.64786C2.18368 6.33545 2.19382 6.06161 2.23439 5.1522C2.27158 4.30703 2.41357 3.85063 2.53189 3.54637C2.6874 3.14406 2.87672 2.85332 3.17761 2.55244C3.48187 2.24817 3.76923 2.06223 4.17154 1.90672C4.4758 1.7884 4.93558 1.64641 5.77737 1.60922C6.68679 1.56865 6.96062 1.55851 9.27303 1.55851ZM9.27303 0C6.92344 0 6.62931 0.0101421 5.70638 0.0507107C4.78683 0.0912792 4.15463 0.24003 3.60696 0.453015C3.03562 0.676142 2.55218 0.970264 2.07211 1.45371C1.58867 1.93377 1.29455 2.41721 1.07142 2.98517C0.858439 3.53622 0.709687 4.16504 0.669119 5.08459C0.62855 6.0109 0.618408 6.30503 0.618408 8.65462C0.618408 11.0042 0.62855 11.2983 0.669119 12.2213C0.709687 13.1408 0.858439 13.773 1.07142 14.3207C1.29455 14.892 1.58867 15.3755 2.07211 15.8555C2.55218 16.3356 3.03562 16.6331 3.60358 16.8528C4.15463 17.0658 4.78344 17.2146 5.703 17.2551C6.62593 17.2957 6.92005 17.3059 9.26965 17.3059C11.6192 17.3059 11.9134 17.2957 12.8363 17.2551C13.7559 17.2146 14.388 17.0658 14.9357 16.8528C15.5037 16.6331 15.9871 16.3356 16.4672 15.8555C16.9472 15.3755 17.2447 14.892 17.4645 14.3241C17.6775 13.773 17.8262 13.1442 17.8668 12.2247C17.9074 11.3017 17.9175 11.0076 17.9175 8.658C17.9175 6.30841 17.9074 6.01429 17.8668 5.09135C17.8262 4.1718 17.6775 3.5396 17.4645 2.99193C17.2515 2.41721 16.9574 1.93377 16.4739 1.45371C15.9939 0.973645 15.5104 0.676142 14.9425 0.456396C14.3914 0.243411 13.7626 0.0946599 12.8431 0.0540914C11.9167 0.0101421 11.6226 0 9.27303 0Z" fill="white"/>
<path d="M9.27291 4.20898C6.81851 4.20898 4.82727 6.20022 4.82727 8.65462C4.82727 11.109 6.81851 13.1003 9.27291 13.1003C11.7273 13.1003 13.7185 11.109 13.7185 8.65462C13.7185 6.20022 11.7273 4.20898 9.27291 4.20898ZM9.27291 11.5384C7.68059 11.5384 6.38916 10.2469 6.38916 8.65462C6.38916 7.0623 7.68059 5.77087 9.27291 5.77087C10.8652 5.77087 12.1567 7.0623 12.1567 8.65462C12.1567 10.2469 10.8652 11.5384 9.27291 11.5384Z" fill="white"/>
<path d="M14.9322 4.03316C14.9322 4.60789 14.4657 5.07104 13.8943 5.07104C13.3196 5.07104 12.8564 4.60451 12.8564 4.03316C12.8564 3.45844 13.323 2.99529 13.8943 2.99529C14.4657 2.99529 14.9322 3.46182 14.9322 4.03316Z" fill="white"/>
</g>
<defs>
<clipPath id="clip0">
<rect width="17.3092" height="17.3092" fill="white" transform="translate(0.618408)"/>
</clipPath>
</defs>
</svg>
