<svg width="18" height="18" viewBox="0 0 18 18" fill="none" xmlns="http://www.w3.org/2000/svg">
<g clip-path="url(#clip0)">
<path fill-rule="evenodd" clip-rule="evenodd" d="M17.5461 9.01522C17.5461 13.795 13.6713 17.6698 8.89144 17.6698C4.11162 17.6698 0.236816 13.795 0.236816 9.01522C0.236816 4.2354 4.11162 0.360596 8.89144 0.360596C13.6713 0.360596 17.5461 4.2354 17.5461 9.01522ZM9.20155 6.74982C8.35976 7.09995 6.67737 7.82463 4.15437 8.92386C3.74467 9.08678 3.53006 9.24616 3.51052 9.40201C3.4775 9.6654 3.80733 9.76911 4.25648 9.91034C4.31758 9.92955 4.38088 9.94946 4.44577 9.97055C4.88766 10.1142 5.48208 10.2822 5.7911 10.2889C6.0714 10.295 6.38426 10.1794 6.72966 9.94223C9.08697 8.35098 10.3038 7.54668 10.3802 7.52934C10.4341 7.51711 10.5088 7.50173 10.5594 7.54671C10.61 7.59169 10.605 7.67687 10.5997 7.69972C10.567 7.83901 9.2723 9.04269 8.60229 9.6656C8.39341 9.85979 8.24525 9.99753 8.21496 10.029C8.14711 10.0995 8.07797 10.1661 8.01151 10.2302C7.60098 10.6259 7.29313 10.9227 8.02855 11.4073C8.38197 11.6402 8.66477 11.8328 8.94691 12.025C9.25503 12.2348 9.56235 12.4441 9.95998 12.7047C10.0613 12.7711 10.158 12.8401 10.2523 12.9073C10.6108 13.1629 10.933 13.3926 11.331 13.356C11.5623 13.3347 11.8011 13.1172 11.9225 12.4687C12.2092 10.9359 12.7727 7.61494 12.903 6.24644C12.9144 6.12655 12.9 5.9731 12.8885 5.90574C12.877 5.83838 12.8529 5.74241 12.7653 5.67136C12.6616 5.58722 12.5016 5.56948 12.43 5.57074C12.1045 5.57648 11.605 5.75013 9.20155 6.74982Z" fill="white"/>
</g>
<defs>
<clipPath id="clip0">
<rect width="17.3092" height="17.3092" fill="white" transform="translate(0.236816 0.360596)"/>
</clipPath>
</defs>
</svg>
