<svg width="18" height="18" viewBox="0 0 18 18" fill="none" xmlns="http://www.w3.org/2000/svg">
<g clip-path="url(#clip0)">
<path d="M5.75452 15.6865C12.2847 15.6865 15.8574 10.275 15.8574 5.58361C15.8574 5.43148 15.8541 5.27597 15.8473 5.12384C16.5423 4.62122 17.1421 3.99866 17.6184 3.28541C16.9712 3.57339 16.2839 3.76147 15.5802 3.84322C16.3212 3.39908 16.876 2.70134 17.1418 1.87937C16.4447 2.29247 15.6824 2.58389 14.8875 2.74111C14.3519 2.17203 13.6438 1.79524 12.8726 1.66898C12.1014 1.54272 11.3101 1.67402 10.621 2.0426C9.93191 2.41118 9.38343 2.99649 9.06036 3.70805C8.73729 4.41961 8.65762 5.21778 8.83367 5.97916C7.42222 5.90833 6.0414 5.54167 4.78075 4.90295C3.52009 4.26424 2.40773 3.36772 1.51578 2.27153C1.06244 3.05313 0.923723 3.97803 1.12781 4.85823C1.3319 5.73844 1.86348 6.50792 2.61451 7.01027C2.05068 6.99237 1.4992 6.84057 1.00563 6.5674V6.61135C1.00513 7.43158 1.28869 8.22668 1.80812 8.86149C2.32755 9.49629 3.05079 9.93162 3.85489 10.0935C3.33259 10.2364 2.78441 10.2572 2.25278 10.1543C2.47968 10.8597 2.92115 11.4767 3.51558 11.9191C4.11 12.3616 4.82773 12.6074 5.56858 12.6223C4.31083 13.6102 2.75715 14.1461 1.15776 14.1436C0.874125 14.1431 0.590767 14.1258 0.309204 14.0915C1.93401 15.1339 3.82408 15.6875 5.75452 15.6865Z" fill="white"/>
</g>
<defs>
<clipPath id="clip0">
<rect width="17.3092" height="17.3092" fill="white" transform="translate(0.309204)"/>
</clipPath>
</defs>
</svg>
