<svg width="19" height="18" viewBox="0 0 19 18" fill="none" xmlns="http://www.w3.org/2000/svg">
<g clip-path="url(#clip0)">
<path d="M18.0644 5.19281C18.0644 5.19281 17.8954 3.99942 17.3748 3.47541C16.7155 2.78574 15.9785 2.78236 15.6405 2.74179C13.2199 2.56599 9.58562 2.56599 9.58562 2.56599H9.57885C9.57885 2.56599 5.94459 2.56599 3.524 2.74179C3.18593 2.78236 2.44893 2.78574 1.78969 3.47541C1.26906 3.99942 1.10341 5.19281 1.10341 5.19281C1.10341 5.19281 0.927612 6.5958 0.927612 7.99542V9.30713C0.927612 10.7067 1.10003 12.1097 1.10003 12.1097C1.10003 12.1097 1.26906 13.3031 1.78631 13.8271C2.44555 14.5168 3.31101 14.4931 3.69642 14.5675C5.08251 14.6994 9.58223 14.7399 9.58223 14.7399C9.58223 14.7399 13.2199 14.7332 15.6405 14.5608C15.9785 14.5202 16.7155 14.5168 17.3748 13.8271C17.8954 13.3031 18.0644 12.1097 18.0644 12.1097C18.0644 12.1097 18.2369 10.7101 18.2369 9.30713V7.99542C18.2369 6.5958 18.0644 5.19281 18.0644 5.19281ZM7.79384 10.8994V6.0346L12.4694 8.47548L7.79384 10.8994Z" fill="white"/>
</g>
<defs>
<clipPath id="clip0">
<rect width="17.3092" height="17.3092" fill="white" transform="translate(0.927612)"/>
</clipPath>
</defs>
</svg>
