<svg  viewBox="0 0 18 20" xmlns="http://www.w3.org/2000/svg">
<g clip-path="url(#clip0)">
<path fill-rule="evenodd" clip-rule="evenodd" d="M14.9979 5.05856C16.7848 6.85324 17.6066 8.86327 17.6066 11.4476C17.6066 16.4727 13.9736 19.9663 8.76823 19.9663H3.67009L0.704102 16.9872V-0.00243571H5.89755C8.68486 -0.00243571 11.0314 1.00259 12.6276 2.68958L14.9979 5.05856ZM3.51523 2.67761H3.4795V3.27584L6.01666 5.80036V5.19016L3.51523 2.67761ZM6.44547 5.10642L4.02743 2.67761H3.682L6.10005 5.10642H6.44547ZM7.2912 5.10642L4.87315 2.67761H4.1942L6.61224 5.10642H7.2912ZM5.93328 2.67761H5.03991L7.45796 5.10642H8.35133L5.93328 2.67761ZM9.22087 5.11838L6.85046 2.73744C6.60032 2.70155 6.3621 2.68958 6.10005 2.67761L8.51809 5.10642H8.76823C8.92308 5.10642 9.07794 5.10642 9.22087 5.11838ZM9.98321 5.20213L7.67237 2.88101C7.46987 2.83315 7.25546 2.79726 7.04105 2.76137L9.39955 5.13035C9.60205 5.14231 9.80453 5.17821 9.98321 5.20213ZM10.6741 5.36964L8.4228 3.10834C8.25603 3.04852 8.07736 2.98869 7.89869 2.94083L10.1976 5.24999C10.3644 5.28589 10.5192 5.32178 10.6741 5.36964ZM10.9361 5.45338C11.091 5.52517 11.2577 5.59697 11.4007 5.66875L9.20896 3.46727C9.0541 3.38353 8.88735 3.29977 8.72058 3.22799L10.9361 5.45338ZM3.4795 8.00183L3.90831 8.43255L3.81302 8.52827L3.4795 8.19326V14.4627H6.01666V5.96786L3.4795 3.46727V4.05354L5.88564 6.45841L5.79034 6.54216L3.4795 4.23301V4.83123L5.48064 6.85323L5.39725 6.94896L3.4795 5.0107V5.62089L5.08755 7.24806L5.00418 7.34378L3.4795 5.80036V6.41055L4.69447 7.64289L4.6111 7.73861L3.4795 6.59002V7.21217L4.3014 8.03772L4.2061 8.13344L3.4795 7.39164V8.00183ZM11.2101 5.30981C10.8051 4.67569 10.2691 4.13728 9.62586 3.71854L11.2101 5.30981ZM14.7597 5.29784L13.7949 4.30479C14.4382 5.51321 14.8551 7.00878 14.8551 8.56416C14.8551 8.73167 14.8551 8.89916 14.8431 9.0547L17.2731 11.5074V11.4476C17.2731 8.94703 16.4631 7.05664 14.7597 5.29784ZM6.35019 14.4507C9.81645 14.2593 12.0559 11.974 12.0559 8.56416C12.0559 7.67879 11.901 6.8652 11.6151 6.14733C10.8885 5.64482 10.0547 5.44143 8.76823 5.44143H6.35019V14.4507ZM14.3429 11.6391L16.8681 14.1755C17.1063 13.3979 17.2493 12.5603 17.2731 11.6749L14.8312 9.22221C14.7717 10.0837 14.6049 10.8853 14.3429 11.6391ZM16.8205 14.2952L14.2952 11.7587C14.0688 12.3569 13.783 12.9193 13.4375 13.4218L16.0105 16.0061C16.344 15.4796 16.6179 14.9053 16.8205 14.2952ZM14.9622 17.2983C15.3315 16.9393 15.6531 16.5326 15.939 16.1018L13.3781 13.5294C13.0803 13.9482 12.7467 14.343 12.3655 14.6899L14.9622 17.2983ZM11.2339 15.5873L13.8426 18.2075C14.2118 17.9563 14.5573 17.6812 14.8788 17.382L12.2821 14.7738C11.9606 15.0729 11.6151 15.3481 11.2339 15.5873ZM10.0904 16.2215L12.699 18.8417C13.0564 18.6742 13.4018 18.4828 13.7353 18.2794L11.1267 15.6592C10.8051 15.8744 10.4597 16.0539 10.0904 16.2215ZM8.97073 16.6402L11.5675 19.2485C11.9129 19.1528 12.2583 19.0212 12.5799 18.8895L9.9713 16.2693C9.64969 16.4129 9.31617 16.5444 8.97073 16.6402ZM7.88677 16.9035L10.4716 19.4997C10.8051 19.4399 11.1267 19.3681 11.4364 19.2843L8.85161 16.6881C8.54191 16.7718 8.2203 16.8436 7.88677 16.9035ZM7.73193 16.9274C7.44605 16.9872 7.14825 17.0231 6.85046 17.047L9.41145 19.6074C9.72116 19.5954 10.0189 19.5595 10.3167 19.5237L7.73193 16.9274ZM8.4228 19.6314H8.76823C8.93499 19.6314 9.08985 19.6314 9.24469 19.6194L6.69562 17.059C6.43356 17.0709 6.17152 17.0829 5.89755 17.0829H5.88564L8.4228 19.6314ZM1.27586 17.0829L3.81302 19.6314H3.97978L1.45454 17.0829H1.27586ZM1.6213 17.0829L4.15845 19.6314H4.37286L1.83569 17.0829H1.6213ZM2.00246 17.0829L4.53963 19.6314H4.8136L2.27643 17.0829H2.00246ZM2.4432 17.0829L4.98035 19.6314H5.32579L2.78863 17.0829H2.4432ZM2.9554 17.0829L5.49255 19.6314H5.90945L3.3723 17.0829H2.9554ZM3.53906 17.0829L6.07622 19.6314H6.5765L4.03934 17.0829H3.53906ZM4.21801 17.0829L6.75518 19.6314H7.36266L4.8255 17.0829H4.21801ZM4.99227 17.0829L7.52943 19.6314H8.25604L5.70696 17.0829H4.99227ZM30.7212 14.4866L33.6873 17.4658V19.9663H22.2283L19.2623 16.9872V-0.00243571H30.3759L33.3418 2.97673V5.33375H24.8965L24.8845 7.04467H29.0179L31.9839 10.0238V12.4287H24.8845V14.4866H30.7212ZM33.0083 3.12031L30.4711 0.571862V2.56993L33.0083 4.99873V3.12031ZM24.8012 4.99873L22.276 2.56993H22.0973L24.6226 4.99873H24.8012ZM25.2777 4.99873L22.7405 2.56993H22.4546L24.9799 4.99873H25.2777ZM25.8732 4.99873L23.3361 2.56993H22.9192L25.4563 4.99873H25.8732ZM26.5879 4.99873L24.0627 2.56993H23.5148L26.0519 4.99873H26.5879ZM27.5409 4.99873L24.9918 2.56993H24.2414L26.7666 4.99873H27.5409ZM28.4938 4.99873L25.9448 2.56993H25.1823L27.7196 4.99873H28.4938ZM29.4825 4.99873L26.9453 2.56993H26.1353L28.6725 4.99873H29.4825ZM30.4354 4.99873L27.922 2.56993H27.124L29.6611 4.99873H30.4354ZM31.2692 4.99873L28.7439 2.56993H28.0888L30.626 4.99873H31.2692ZM31.9839 4.99873L29.4586 2.56993H28.9107L31.4598 4.99873H31.9839ZM32.4604 4.99873L29.947 2.56993H29.6254L32.1744 4.99873H32.4604ZM32.8177 4.99873L30.3043 2.56993H30.1138L32.6509 4.99873H32.8177ZM22.0139 6.06358L22.5976 6.62591L22.5022 6.70966L22.0139 6.24304V7.04467H24.551V5.09445L22.0139 2.66566V3.16816L24.2175 5.28589L24.1104 5.35767L22.0139 3.34764V3.898L23.8126 5.62089L23.7053 5.70465L22.0139 4.0655V4.61587L23.4076 5.9559L23.3004 6.03965L22.0139 4.79534V5.3457L23.0026 6.2909L22.9073 6.37466L22.0139 5.51321V6.06358ZM29.1132 7.61897V9.6649H29.1012L31.6504 12.0937V10.1674L29.1132 7.61897ZM24.6344 12.0937H24.8488L22.3117 9.6649H22.0973L24.6344 12.0937ZM22.4904 9.6649L25.0275 12.0937H25.4444L22.9192 9.6649H22.4904ZM23.0978 9.6649L25.6231 12.0937H26.2783L23.7292 9.6649H23.0978ZM23.9197 9.6649L26.457 12.0937H27.3503L24.825 9.6649H23.9197ZM28.4938 12.0937L25.9805 9.6649H25.0037L27.5289 12.0937H28.4938ZM29.6373 12.0937L27.1001 9.6649H26.1472L28.6844 12.0937H29.6373ZM30.4592 12.0937L27.9459 9.6649H27.2788L29.816 12.0937H30.4592ZM31.0548 12.0937L28.5295 9.6649H28.1127L30.6498 12.0937H31.0548ZM28.6963 9.6649L31.2454 12.0937H31.4598L28.9345 9.6649H28.6963ZM22.0139 13.9123L22.3237 14.2114L22.2283 14.3071L22.0139 14.1038V14.4866H24.551V12.1774L22.0139 9.74865V10.2751L24.2175 12.4048L24.1342 12.4885L22.0139 10.4546V11.0169L23.8483 12.7757L23.753 12.8594L22.0139 11.1843V11.7348L23.4671 13.1346L23.3718 13.2184L22.0139 11.9142V12.4646L23.086 13.4936L22.9907 13.5773L22.0139 12.644V13.1944L22.7048 13.8525L22.6095 13.9362L22.0139 13.3619V13.9123ZM30.8165 15.0609V17.0829L33.3537 19.6314V17.6094L30.8165 15.0609ZM20.9895 17.0829H19.8341L22.3712 19.6314H23.5266L20.9895 17.0829ZM22.1926 17.0829H21.1563L23.6934 19.6314H24.7417L22.1926 17.0829ZM22.3594 17.0829L24.9084 19.6314H25.8375L23.2885 17.0829H22.3594ZM23.4552 17.0829L26.0043 19.6314H26.8262L24.289 17.0829H23.4552ZM25.1823 17.0829H24.4557L26.9929 19.6314H27.7315L25.1823 17.0829ZM28.5415 19.6314L26.0043 17.0829H25.3492L27.8983 19.6314H28.5415ZM26.171 17.0829L28.7082 19.6314H29.2799L26.7428 17.0829H26.171ZM26.9096 17.0829L29.4467 19.6314H29.9589L27.4098 17.0829H26.9096ZM27.5766 17.0829L30.1256 19.6314H30.5664L28.0173 17.0829H27.5766ZM28.1841 17.0829L30.7332 19.6314H31.1143L28.5653 17.0829H28.1841ZM28.732 17.0829L31.2811 19.6314H31.6147L29.0655 17.0829H28.732ZM29.2323 17.0829L31.7814 19.6314H32.0673L29.5182 17.0829H29.2323ZM29.685 17.0829L32.234 19.6314H32.4722L29.9351 17.0829H29.685ZM30.1019 17.0829L32.639 19.6314H32.8534L30.3043 17.0829H30.1019ZM30.4711 17.0829L33.0201 19.6314H33.187L30.6378 17.0829H30.4711ZM49.5892 5.42946H40.8104V7.61897H45.1462L48.1121 10.5981V13.0388H40.8104V19.9663H38.166L35.2 16.9872V-0.00243571H46.6232L49.5892 2.97673V5.42946ZM46.7185 0.571862V2.66566L49.2438 5.09445H49.2556V3.12031L46.7185 0.571862ZM40.5483 5.09445H40.7389L38.2018 2.66566H38.035L40.5483 5.09445ZM41.2034 5.09445L38.6544 2.66566H38.3923L40.9056 5.09445H41.2034ZM41.8109 5.09445L39.2619 2.66566H38.845L41.3703 5.09445H41.8109ZM42.5852 5.09445L40.0481 2.66566H39.4524L41.9777 5.09445H42.5852ZM43.6573 5.09445L41.12 2.66566H40.2386L42.7519 5.09445H43.6573ZM44.6817 5.09445L42.1444 2.66566H41.2987L43.8359 5.09445H44.6817ZM45.8014 5.09445L43.2641 2.66566H42.3231L44.8603 5.09445H45.8014ZM46.8615 5.09445L44.3362 2.66566H43.4309L45.98 5.09445H46.8615ZM47.6476 5.09445L45.1105 2.66566H44.5149L47.0401 5.09445H47.6476ZM48.2551 5.09445L45.7179 2.66566H45.2892L47.8263 5.09445H48.2551ZM48.7077 5.09445L46.1824 2.66566H45.8966L48.4338 5.09445H48.7077ZM46.3611 2.66566L48.8864 5.09445H49.0651L46.5398 2.66566H46.3611ZM37.9397 7.61897H40.4768V5.19016L37.9397 2.74941V3.1562L40.2029 5.3457L40.1195 5.42946L37.9397 3.33567V3.88603L39.8337 5.7166L39.7384 5.81232L37.9397 4.0655V4.61587L39.4643 6.0875L39.369 6.18322L37.9397 4.79534V5.3457L39.0951 6.45841L39.0117 6.54216L37.9397 5.51321V6.07554L38.7259 6.82931L38.6425 6.91305L37.9397 6.24304V6.79342L38.3566 7.20021L38.2732 7.28396L37.9397 6.96091V7.61897ZM45.2415 8.19326V10.2751L47.7786 12.7039V10.7417L45.2415 8.19326ZM38.0111 10.2751L40.5364 12.7039H40.7746L38.2375 10.2751H38.0111ZM38.4162 10.2751L40.9414 12.7039H41.3464L38.8211 10.2751H38.4162ZM38.9998 10.2751L41.5131 12.7039H42.2635L39.7145 10.2751H38.9998ZM39.8932 10.2751L42.4304 12.7039H43.3595L40.8342 10.2751H39.8932ZM41.0129 10.2751L43.5262 12.7039H44.5983L42.0849 10.2751H41.0129ZM42.2517 10.2751L44.777 12.7039H45.7179L43.1808 10.2751H42.2517ZM43.3475 10.2751L45.8966 12.7039H46.6114L44.0979 10.2751H43.3475ZM44.2648 10.2751L46.7899 12.7039H47.195L44.6697 10.2751H44.2648ZM44.8365 10.2751L47.3737 12.7039H47.5999L45.0746 10.2751H44.8365ZM37.9397 17.0829L40.4768 19.6314V12.7637L40.453 12.7876L37.9397 10.3828V10.7776L40.2148 12.9791L40.1315 13.0628L37.9397 10.9571V11.5074L39.8455 13.3499L39.7503 13.4457L37.9397 11.6869V12.2373L39.4763 13.7208L39.381 13.8165L37.9397 12.4168V12.9671L39.1071 14.0918L39.0237 14.1755L37.9397 13.1346V13.697L38.7377 14.4627L38.6544 14.5464L37.9397 13.8644V14.4268L38.3685 14.8336L38.2851 14.9173L37.9397 14.5824V17.0829ZM35.7718 17.0829L38.3089 19.6314H38.7973L36.272 17.0829H35.7718ZM36.8676 17.0829H36.4388L38.976 19.6314H39.4048L36.8676 17.0829ZM37.0344 17.0829L39.5834 19.6314H39.8932L37.3679 17.0829H37.0344ZM37.5346 17.0829L40.0719 19.6314H40.2982L37.7729 17.0829H37.5346ZM53.5676 -0.00243571L56.5337 2.97673V19.9663H53.8417L50.8756 16.9872V-0.00243571H53.5676ZM53.663 0.763294L56.2001 3.31173V3.12031L53.663 0.571862V0.763294ZM53.663 1.27777L56.2001 3.82621V3.49121L53.663 0.942761V1.27777ZM53.663 1.98368L56.2001 4.53212V3.99371L53.663 1.44527V1.98368ZM53.663 2.97673L56.2001 5.52517V4.71158L53.663 2.16314V2.97673ZM53.663 4.32872L56.2001 6.87716V5.69268L53.663 3.14423V4.32872ZM53.663 6.19519L56.2001 8.74362V7.04467L53.663 4.49623V6.19519ZM53.663 17.0829L56.2001 19.6314V8.91113L53.663 6.36269V17.0829ZM51.9953 17.0829H51.4474L53.9845 19.6314H54.5206L51.9953 17.0829ZM55.1281 19.6314L52.5909 17.0829H52.1621L54.6993 19.6314H55.1281ZM52.7577 17.0829L55.3067 19.6314H55.6164L53.0912 17.0829H52.7577ZM53.2579 17.0829L55.7951 19.6314H56.0215L53.4962 17.0829H53.2579ZM79.4634 4.02961C80.6188 5.17821 81.1667 6.48234 81.1667 8.09755C81.1667 11.4476 78.6177 13.8884 75.0799 13.8884H72.0544V19.9663H69.3743L66.4084 16.9872V-0.00243571H72.4118C74.5082 -0.00243571 76.1877 0.751329 77.093 1.66064L79.4634 4.02961ZM69.1838 6.81734L69.4339 7.0686L69.3386 7.16432L69.1838 7.00878V8.67184H71.6018V4.98677L69.1838 2.55798V3.07245L71.2683 5.2141L71.1849 5.29784L69.1838 3.26388V3.83817L70.899 5.585L70.8156 5.66875L69.1838 4.01765V4.57998L70.5417 5.9559L70.4464 6.03965L69.1838 4.75945V5.32178L70.1724 6.3268L70.0771 6.41055L69.1838 5.50124V6.06358L69.8031 6.6977L69.7078 6.78145L69.1838 6.25501V6.81734ZM71.8996 4.86712L69.6126 2.55798H69.3505L71.6613 4.87909L71.7686 4.86712H71.8996ZM72.4356 4.86712L70.1366 2.55798H69.7793L72.0783 4.86712H72.4356ZM73.1145 4.86712L70.8156 2.55798H70.3034L72.6023 4.86712H73.1145ZM73.9007 4.86712L71.6018 2.55798H70.9823L73.2813 4.86712H73.9007ZM72.4594 2.55798H71.7686L74.0675 4.86712H74.7584L72.4594 2.55798ZM75.4373 4.86712L73.2098 2.62976C73.0311 2.59387 72.8287 2.5819 72.6381 2.56993L74.9251 4.86712H75.4373ZM75.6874 4.59194L73.9245 2.8212C73.7697 2.76137 73.591 2.71352 73.4242 2.67761L75.6279 4.89105C75.6755 4.89105 75.7232 4.89105 75.7708 4.90302C75.7471 4.79534 75.7232 4.69963 75.6874 4.59194ZM75.5802 4.31676C75.3182 3.71853 74.8537 3.25191 74.2342 2.9528L75.5802 4.31676ZM79.2252 4.2689L78.177 3.20405C78.4629 3.85014 78.6534 4.65177 78.6534 5.45338C78.6534 5.59697 78.6534 5.74054 78.6416 5.87214L80.8332 7.87022C80.7856 6.44644 80.2496 5.32178 79.2252 4.2689ZM72.3404 8.67184C74.401 8.67184 75.8423 7.39164 75.8423 5.57303C75.8423 5.46535 75.8423 5.35767 75.8304 5.24999C75.6279 5.2141 75.4134 5.20213 75.211 5.20213H71.9353V8.67184H72.3404ZM80.4997 10.0597C80.7141 9.4615 80.8332 8.80345 80.8332 8.09755V8.03772L78.6296 6.01572C78.57 6.6977 78.4033 7.33181 78.1412 7.90611L80.4997 10.0597ZM78.0817 8.01379C77.8673 8.45648 77.6052 8.85131 77.2835 9.21024L79.7374 11.4476C80.0232 11.0648 80.2734 10.634 80.4521 10.1794L78.0817 8.01379ZM78.7964 12.3688C79.1179 12.1176 79.4039 11.8425 79.666 11.5314L77.2002 9.294C76.9263 9.59311 76.6285 9.84436 76.295 10.0837L78.7964 12.3688ZM75.2824 10.646L77.8196 12.9671C78.1412 12.8116 78.4271 12.6441 78.701 12.4407L76.1877 10.1554C75.9019 10.3349 75.6041 10.5024 75.2824 10.646ZM74.2819 10.9929L76.8429 13.3261C77.1407 13.2423 77.4385 13.1346 77.7124 13.015L75.1633 10.6938C74.8775 10.8135 74.5797 10.9092 74.2819 10.9929ZM73.3171 11.1725L75.8899 13.5055C76.1758 13.4696 76.4498 13.4218 76.7118 13.3619L74.1508 11.0169C73.8768 11.0886 73.6029 11.1365 73.3171 11.1725ZM74.9489 13.5534H75.0799C75.2943 13.5534 75.5088 13.5414 75.7112 13.5294L73.1503 11.1963C72.912 11.2203 72.6619 11.2323 72.4118 11.2442L74.9489 13.5534ZM71.5779 11.2442L74.1151 13.5534H74.7584L72.2331 11.2442H71.5779ZM71.7209 19.6314V13.5534H71.7328L69.1956 11.2442H69.1838V11.8544L71.3874 13.8644L71.2921 13.9482L69.1838 12.0219V12.656L70.9705 14.2832L70.8752 14.367L69.1838 12.8236V13.4457L70.5536 14.7019L70.4701 14.7858L69.1838 13.6132V14.2473L70.1366 15.1207L70.0533 15.2044L69.1838 14.4148V15.025L69.7317 15.5275L69.6483 15.6232L69.1838 15.2044V17.0829L71.7209 19.6314ZM69.3743 11.2442L71.8996 13.5534H72.1617L69.6244 11.2442H69.3743ZM69.7912 11.2442L72.3284 13.5534H72.65L70.1129 11.2442H69.7912ZM70.3034 11.2442L72.8287 13.5534H73.2337L70.7084 11.2442H70.3034ZM70.8632 11.2442L73.4123 13.5534H73.9364L71.4112 11.2442H70.8632ZM66.9801 17.0829L69.5173 19.6314H70.0414L67.5161 17.0829H66.9801ZM68.1117 17.0829H67.6829L70.22 19.6314H70.6488L68.1117 17.0829ZM68.2785 17.0829L70.8275 19.6314H71.1373L68.612 17.0829H68.2785ZM68.7787 17.0829L71.316 19.6314H71.5422L69.017 17.0829H68.7787ZM96.9257 -0.0144002L99.7727 2.84512V12.2971C99.7727 17.0829 96.9377 20.2176 92.6376 20.2176C90.3626 20.2176 88.7306 19.5715 87.2535 18.088L84.8117 15.6592C83.4658 14.331 82.7392 12.333 82.7392 9.77258V-0.0144002H85.4193L88.3852 2.96477V12.5603C88.3852 13.3021 88.4686 14.0199 88.6591 14.6661C89.0522 14.7618 89.481 14.8216 89.9337 14.8216C92.6257 14.8216 94.2456 12.9073 94.2456 9.67687V-0.0144002H96.9257ZM88.0517 3.10834L85.5145 0.559896V0.751329L88.0517 3.29977V3.10834ZM97.021 0.763294L99.4392 3.1921V2.98869L97.021 0.571862V0.763294ZM88.0517 3.81425V3.47924L85.5145 0.930797V1.2658L88.0517 3.81425ZM97.021 1.27777L99.4392 3.70657V3.37156L97.021 0.942761V1.27777ZM88.0517 4.52015V3.98175L85.5145 1.43331V1.97171L88.0517 4.52015ZM97.021 1.98368L99.4392 4.41247V3.87408L97.021 1.44527V1.98368ZM88.0517 5.51321V4.69963L85.5145 2.15117V2.96477L88.0517 5.51321ZM97.021 2.97673L99.4392 5.40553V4.59194L97.021 2.16314V2.97673ZM88.0517 6.8652V5.68071L85.5145 3.13227V4.31676L88.0517 6.8652ZM97.021 4.32872L99.4392 6.75751V5.57303L97.021 3.14423V4.32872ZM88.0517 8.73167V7.0327L85.5145 4.48426V6.18322L88.0517 8.73167ZM99.4392 6.92502L97.021 4.49623V6.19519L99.4392 8.62399V6.92502ZM85.5145 6.35072V9.67687C85.5145 12.1654 86.5389 13.9004 88.2899 14.5464C88.1351 13.9242 88.0517 13.2542 88.0517 12.5603V8.89916L85.5145 6.35072ZM99.0341 15.1925C99.2962 14.3191 99.4392 13.3499 99.4392 12.2971V8.79149L97.021 6.36269V9.77258C97.021 10.8853 96.89 11.8903 96.6279 12.7757L99.0341 15.1925ZM96.5804 12.8953C96.4017 13.4816 96.1634 14.0199 95.8656 14.4866L98.2599 16.8915C98.5576 16.4129 98.8078 15.8864 98.9865 15.3121L96.5804 12.8953ZM97.3427 18.064C97.6643 17.7409 97.9501 17.394 98.2004 16.9992L95.8061 14.5942C95.556 14.9891 95.27 15.3361 94.9485 15.6592L97.3427 18.064ZM93.9478 16.4249L96.366 18.8537C96.6876 18.6503 96.9853 18.4109 97.2593 18.1477L94.8532 15.7309C94.5792 15.9941 94.2815 16.2215 93.9478 16.4249ZM92.9593 16.9274L95.3891 19.3681C95.687 19.2365 95.9848 19.0929 96.2587 18.9135L93.8407 16.4847C93.5667 16.6521 93.2689 16.7958 92.9593 16.9274ZM86.1934 16.6043L87.4918 17.8486C87.742 18.088 87.9921 18.3032 88.2422 18.4947L86.5031 16.7479L86.1934 16.6043ZM87.1344 16.9872C87.0153 16.9393 86.8963 16.9035 86.7772 16.8555L88.7783 18.8657C88.9569 18.9734 89.1237 19.0809 89.3023 19.1648L87.1344 16.9872ZM91.9824 17.2264L94.4243 19.6792C94.7103 19.6074 94.9842 19.5237 95.2582 19.416L92.8282 16.9752C92.5542 17.0709 92.2684 17.1547 91.9824 17.2264ZM87.3727 17.059L89.624 19.3203C89.7788 19.3801 89.9337 19.4519 90.1005 19.4997L87.7896 17.1786C87.6466 17.1427 87.5156 17.1069 87.3727 17.059ZM88.0278 17.2384L90.3626 19.5835C90.5293 19.6314 90.6961 19.6792 90.8748 19.7151L88.5043 17.3341C88.3375 17.2983 88.1827 17.2743 88.0278 17.2384ZM91.0533 17.382L93.4953 19.8348C93.7693 19.8108 94.0312 19.7629 94.2815 19.7031L91.8396 17.2504C91.5894 17.3103 91.3274 17.3581 91.0533 17.382ZM88.6949 17.3581L91.0772 19.751C91.2678 19.7869 91.4584 19.8108 91.6489 19.8348L89.2548 17.4298C89.0642 17.4179 88.8855 17.394 88.6949 17.3581ZM90.2196 17.4538L92.6376 19.8826C92.8759 19.8826 93.1141 19.8706 93.3404 19.8468L90.9105 17.406C90.6841 17.4298 90.4459 17.4418 90.2196 17.4538ZM89.4334 17.4418L91.8276 19.8468C92.042 19.8706 92.2445 19.8826 92.4708 19.8826L90.0528 17.4538H89.8861C89.7312 17.4538 89.5883 17.4538 89.4334 17.4418ZM112.994 14.4268L115.96 17.406V19.9663H105.109L102.143 16.9872V-0.00243571H104.823L107.789 2.97673V14.4268H112.994ZM107.456 3.12031L104.918 0.571862V0.751329L107.456 3.29977V3.12031ZM107.456 3.81425V3.47924L104.918 0.930797V1.2658L107.456 3.81425ZM107.456 4.52015V3.98175L104.918 1.43331V1.97171L107.456 4.52015ZM107.456 5.51321V4.69963L104.918 2.15117V2.96477L107.456 5.51321ZM107.456 6.8652V5.68071L104.918 3.13227V4.31676L107.456 6.8652ZM107.456 8.73167V7.0327L104.918 4.48426V6.18322L107.456 8.73167ZM104.918 14.4268H107.456V8.89916L104.918 6.35072V14.4268ZM115.627 19.6314V17.5495L113.09 15.001V17.0829L115.627 19.6314ZM102.715 17.0829L105.252 19.6314H106.36L103.811 17.0829H102.715ZM103.978 17.0829L106.527 19.6314H107.527L104.978 17.0829H103.978ZM105.145 17.0829L107.694 19.6314H108.587L106.038 17.0829H105.145ZM106.205 17.0829L108.754 19.6314H109.54L107.003 17.0829H106.205ZM107.17 17.0829L109.719 19.6314H110.422L107.884 17.0829H107.17ZM108.051 17.0829L110.588 19.6314H111.219L108.671 17.0829H108.051ZM108.837 17.0829L111.387 19.6314H111.946L109.397 17.0829H108.837ZM109.564 17.0829L112.113 19.6314H112.602L110.052 17.0829H109.564ZM110.219 17.0829L112.768 19.6314H113.198L110.66 17.0829H110.219ZM110.826 17.0829L113.363 19.6314H113.745L111.196 17.0829H110.826ZM111.362 17.0829L113.912 19.6314H114.234L111.696 17.0829H111.362ZM111.863 17.0829L114.4 19.6314H114.685L112.137 17.0829H111.863ZM112.315 17.0829L114.852 19.6314H115.091L112.554 17.0829H112.315ZM112.721 17.0829L115.258 19.6314H115.46L112.923 17.0829H112.721ZM128.754 11.7946C129.671 12.7159 130.063 13.7328 130.063 15.1327C130.063 18.1358 127.705 20.2176 124.287 20.2176C121.81 20.2654 119.962 19.5357 118.807 18.6503L115.877 15.707V12.8834L116.163 12.7637C117.449 13.9721 119.236 14.6541 121.094 14.6541C122.643 14.6541 123.893 14.0918 124.382 13.2423C122.524 12.333 120.344 11.8305 119.117 10.2631L117.318 7.96593C116.461 6.8652 116.044 6.06358 116.044 4.74748C116.044 1.80421 118.379 -0.217797 121.785 -0.217797C123.513 -0.253691 125.263 0.212927 126.526 1.03848L129.468 3.99371V6.67377L129.206 6.80537C127.86 5.81232 126.324 5.24999 124.894 5.24999C123.25 5.24999 122.024 5.90804 121.702 6.93699C123.37 7.53522 125.156 8.13344 126.288 9.294L128.754 11.7946ZM126.598 1.58884V3.79032H126.585L129.135 6.35072V4.13728L126.598 1.58884ZM122.298 2.3785C122.202 2.36654 122.107 2.36654 122.024 2.36654C121.845 2.36654 121.666 2.3785 121.488 2.39047L124.06 4.9748C124.299 4.93891 124.56 4.91499 124.823 4.91499L122.298 2.3785ZM125.669 4.96284L123.203 2.48619C122.965 2.43833 122.714 2.40244 122.465 2.3785L124.99 4.91499C125.216 4.91499 125.443 4.93891 125.669 4.96284ZM123.917 4.99873L121.333 2.40244C121.023 2.4503 120.737 2.51011 120.463 2.59387L123.072 5.2141C123.334 5.11838 123.619 5.04659 123.917 4.99873ZM126.467 5.11838L124.084 2.72547C123.87 2.65369 123.644 2.5819 123.417 2.53404L125.871 4.99873C126.061 5.02267 126.265 5.07053 126.467 5.11838ZM122.952 5.26195L120.344 2.64172C119.999 2.76137 119.713 2.92888 119.474 3.13227L122.107 5.77643C122.345 5.57303 122.63 5.40553 122.952 5.26195ZM127.229 5.35767L124.978 3.09637C124.776 3.00066 124.56 2.90494 124.346 2.8212L126.693 5.17821C126.871 5.22606 127.05 5.28589 127.229 5.35767ZM121.38 6.81734C121.5 6.44644 121.714 6.1234 122.012 5.84822L119.379 3.20405C119.046 3.51513 118.832 3.898 118.771 4.31676L121.19 6.74556L121.38 6.81734ZM127.944 5.65678L125.943 3.64675C125.74 3.51513 125.537 3.38353 125.323 3.27584L127.503 5.46535C127.646 5.52517 127.801 5.585 127.944 5.65678ZM126.371 3.90997L128.289 5.83625C128.408 5.89608 128.539 5.96786 128.67 6.05161L126.479 3.85014L126.371 3.90997ZM118.76 4.56801C118.76 5.57303 119.677 6.13536 120.916 6.63788L118.76 4.47229V4.56801ZM119.641 10.3469C120.07 10.8135 120.666 11.1843 121.345 11.5194L118.605 8.76756C118.462 8.68381 118.319 8.60005 118.188 8.51631C118.617 9.11453 119.093 9.74865 119.641 10.3469ZM119.796 9.34186C119.511 9.22221 119.224 9.0906 118.962 8.95899L121.666 11.6749C121.928 11.7946 122.202 11.9142 122.488 12.0339L119.796 9.34186ZM120.07 9.44954L122.774 12.1536C122.989 12.2493 123.203 12.333 123.417 12.4287L120.69 9.68882C120.487 9.61704 120.284 9.53329 120.07 9.44954ZM120.951 9.78455L123.715 12.5603C123.893 12.6321 124.072 12.7159 124.251 12.7996L121.428 9.95204C121.273 9.90419 121.106 9.84436 120.951 9.78455ZM124.537 12.9073C124.549 12.8474 124.572 12.7876 124.584 12.7279L122.071 10.1913C121.952 10.1435 121.821 10.0956 121.702 10.0597L124.537 12.9073ZM122.357 10.299L124.608 12.5603C124.621 12.5125 124.621 12.4526 124.621 12.4048V12.3928L122.667 10.4306L122.357 10.299ZM124.608 12.2134L124.572 12.0339L123.238 10.6938C123.155 10.646 123.06 10.6101 122.965 10.5622L124.608 12.2134ZM128.515 12.0339L127.169 10.6819C127.336 11.1365 127.432 11.651 127.432 12.2493C127.432 12.5483 127.407 12.8355 127.36 13.1227L129.718 15.4916C129.73 15.3719 129.73 15.2524 129.73 15.1327C129.73 13.8047 129.373 12.8953 128.515 12.0339ZM124.478 11.7587C124.311 11.4357 124.013 11.1605 123.632 10.9212L124.478 11.7587ZM129.706 15.6472L127.336 13.2662C127.217 13.8165 127.014 14.331 126.728 14.7858L129.23 17.2983C129.48 16.7958 129.647 16.2454 129.706 15.6472ZM128.384 18.4109C128.694 18.1118 128.956 17.7769 129.159 17.406L126.657 14.8934C126.43 15.2524 126.157 15.5635 125.835 15.8506L128.384 18.4109ZM124.847 16.5206L127.432 19.1288C127.752 18.9374 128.039 18.734 128.301 18.4947L125.74 15.9224C125.466 16.1497 125.168 16.353 124.847 16.5206ZM117.116 16.4727L119.022 18.3871C119.201 18.5186 119.379 18.6503 119.582 18.7699L117.426 16.6163L117.116 16.4727ZM123.846 16.9513L126.443 19.5595C126.752 19.4519 127.05 19.3323 127.324 19.1766L124.739 16.5804C124.466 16.724 124.168 16.8555 123.846 16.9513ZM117.724 16.7359L119.962 18.9852C120.094 19.0451 120.225 19.1169 120.368 19.1766L118.057 16.8555L117.724 16.7359ZM118.307 16.9274L120.654 19.2963C120.796 19.3442 120.951 19.404 121.106 19.4519L118.7 17.035L118.307 16.9274ZM122.881 17.1906L125.466 19.7869C125.763 19.7391 126.049 19.6792 126.312 19.5954L123.727 16.9992C123.452 17.0709 123.179 17.1427 122.881 17.1906ZM118.926 17.0949L121.345 19.5237C121.512 19.5715 121.678 19.6194 121.857 19.6553L119.391 17.1786C119.236 17.1547 119.081 17.1188 118.926 17.0949ZM119.593 17.2146L122.059 19.6912C122.25 19.7271 122.428 19.7629 122.619 19.7869L120.129 17.2743C119.939 17.2624 119.772 17.2384 119.593 17.2146ZM125.311 19.8108L122.738 17.2146C122.488 17.2624 122.226 17.2863 121.963 17.3103L124.525 19.8826C124.799 19.8706 125.061 19.8468 125.311 19.8108ZM120.321 17.2983L122.834 19.8108C123.048 19.8348 123.25 19.8586 123.465 19.8706L120.927 17.3221C120.725 17.3221 120.523 17.3103 120.321 17.2983ZM123.632 19.8706C123.846 19.8826 124.072 19.8826 124.287 19.8826H124.346L121.797 17.3103C121.666 17.3221 121.547 17.3221 121.416 17.3221H121.094L123.632 19.8706ZM143.452 14.4866L146.418 17.4658V19.9663H134.959L131.993 16.9872V-0.00243571H143.107L146.073 2.97673V5.33375H137.627L137.616 7.04467H141.749L144.715 10.0238V12.4287H137.616V14.4866H143.452ZM145.739 3.12031L143.202 0.571862V2.56993L145.739 4.99873V3.12031ZM137.533 4.99873L135.007 2.56993H134.828L137.354 4.99873H137.533ZM138.008 4.99873L135.471 2.56993H135.185L137.711 4.99873H138.008ZM138.604 4.99873L136.067 2.56993H135.65L138.188 4.99873H138.604ZM139.319 4.99873L136.794 2.56993H136.246L138.783 4.99873H139.319ZM140.272 4.99873L137.723 2.56993H136.972L139.497 4.99873H140.272ZM141.225 4.99873L138.676 2.56993H137.914L140.45 4.99873H141.225ZM142.214 4.99873L139.677 2.56993H138.867L141.404 4.99873H142.214ZM143.167 4.99873L140.654 2.56993H139.855L142.392 4.99873H143.167ZM144.001 4.99873L141.476 2.56993H140.819L143.357 4.99873H144.001ZM144.715 4.99873L142.19 2.56993H141.641L144.191 4.99873H144.715ZM145.192 4.99873L142.678 2.56993H142.357L144.905 4.99873H145.192ZM145.549 4.99873L143.036 2.56993H142.845L145.382 4.99873H145.549ZM134.745 6.06358L135.328 6.62591L135.234 6.70966L134.745 6.24304V7.04467H137.282V5.09445L134.745 2.66566V3.16816L136.949 5.28589L136.841 5.35767L134.745 3.34764V3.898L136.544 5.62089L136.436 5.70465L134.745 4.0655V4.61587L136.138 5.9559L136.032 6.03965L134.745 4.79534V5.3457L135.734 6.2909L135.638 6.37466L134.745 5.51321V6.06358ZM141.845 7.61897V9.6649H141.833L144.381 12.0937V10.1674L141.845 7.61897ZM137.366 12.0937H137.58L135.043 9.6649H134.828L137.366 12.0937ZM135.222 9.6649L137.759 12.0937H138.176L135.65 9.6649H135.222ZM135.829 9.6649L138.355 12.0937H139.01L136.46 9.6649H135.829ZM136.651 9.6649L139.188 12.0937H140.081L137.556 9.6649H136.651ZM141.225 12.0937L138.712 9.6649H137.735L140.26 12.0937H141.225ZM142.369 12.0937L139.832 9.6649H138.879L141.415 12.0937H142.369ZM143.19 12.0937L140.677 9.6649H140.01L142.547 12.0937H143.19ZM143.785 12.0937L141.26 9.6649H140.844L143.381 12.0937H143.785ZM141.427 9.6649L143.977 12.0937H144.191L141.666 9.6649H141.427ZM134.745 13.9123L135.055 14.2114L134.959 14.3071L134.745 14.1038V14.4866H137.282V12.1774L134.745 9.74865V10.2751L136.949 12.4048L136.866 12.4885L134.745 10.4546V11.0169L136.58 12.7757L136.484 12.8594L134.745 11.1843V11.7348L136.199 13.1346L136.103 13.2184L134.745 11.9142V12.4646L135.817 13.4936L135.722 13.5773L134.745 12.644V13.1944L135.436 13.8525L135.34 13.9362L134.745 13.3619V13.9123ZM143.548 15.0609V17.0829L146.084 19.6314V17.6094L143.548 15.0609ZM133.721 17.0829H132.566L135.102 19.6314H136.258L133.721 17.0829ZM134.924 17.0829H133.888L136.425 19.6314H137.473L134.924 17.0829ZM135.091 17.0829L137.639 19.6314H138.569L136.019 17.0829H135.091ZM136.187 17.0829L138.735 19.6314H139.557L137.021 17.0829H136.187ZM137.914 17.0829H137.187L139.724 19.6314H140.462L137.914 17.0829ZM141.272 19.6314L138.735 17.0829H138.08L140.629 19.6314H141.272ZM138.902 17.0829L141.439 19.6314H142.011L139.474 17.0829H138.902ZM139.64 17.0829L142.178 19.6314H142.69L140.141 17.0829H139.64ZM140.307 17.0829L142.857 19.6314H143.298L140.748 17.0829H140.307ZM140.915 17.0829L143.465 19.6314H143.846L141.296 17.0829H140.915ZM141.463 17.0829L144.012 19.6314H144.346L141.796 17.0829H141.463ZM141.963 17.0829L144.513 19.6314H144.799L142.249 17.0829H141.963ZM142.416 17.0829L144.966 19.6314H145.203L142.667 17.0829H142.416ZM142.833 17.0829L145.37 19.6314H145.584L143.036 17.0829H142.833ZM143.202 17.0829L145.751 19.6314H145.918L143.369 17.0829H143.202Z" fill="white"/>
</g>
<defs>
<clipPath id="clip0">
<rect width="18" height="20" fill="white"/>
</clipPath>
</defs>
</svg>
