<svg width="398" height="115" viewBox="0 0 398 115" fill="none" xmlns="http://www.w3.org/2000/svg">
<rect width="398" height="115" rx="15" fill="white"/>
<path d="M131.26 60.021C131.992 60.177 132.58 60.543 133.024 61.119C133.468 61.683 133.69 62.331 133.69 63.063C133.69 64.119 133.318 64.959 132.574 65.583C131.842 66.195 130.816 66.501 129.496 66.501H123.61V53.865H129.298C130.582 53.865 131.584 54.159 132.304 54.747C133.036 55.335 133.402 56.133 133.402 57.141C133.402 57.885 133.204 58.503 132.808 58.995C132.424 59.487 131.908 59.829 131.26 60.021ZM126.688 58.977H128.704C129.208 58.977 129.592 58.869 129.856 58.653C130.132 58.425 130.27 58.095 130.27 57.663C130.27 57.231 130.132 56.901 129.856 56.673C129.592 56.445 129.208 56.331 128.704 56.331H126.688V58.977ZM128.956 64.017C129.472 64.017 129.868 63.903 130.144 63.675C130.432 63.435 130.576 63.093 130.576 62.649C130.576 62.205 130.426 61.857 130.126 61.605C129.838 61.353 129.436 61.227 128.92 61.227H126.688V64.017H128.956ZM138.553 53.181V66.501H135.475V53.181H138.553ZM145.356 66.645C144.372 66.645 143.484 66.435 142.692 66.015C141.912 65.595 141.294 64.995 140.838 64.215C140.394 63.435 140.172 62.523 140.172 61.479C140.172 60.447 140.4 59.541 140.856 58.761C141.312 57.969 141.936 57.363 142.728 56.943C143.52 56.523 144.408 56.313 145.392 56.313C146.376 56.313 147.264 56.523 148.056 56.943C148.848 57.363 149.472 57.969 149.928 58.761C150.384 59.541 150.612 60.447 150.612 61.479C150.612 62.511 150.378 63.423 149.91 64.215C149.454 64.995 148.824 65.595 148.02 66.015C147.228 66.435 146.34 66.645 145.356 66.645ZM145.356 63.981C145.944 63.981 146.442 63.765 146.85 63.333C147.27 62.901 147.48 62.283 147.48 61.479C147.48 60.675 147.276 60.057 146.868 59.625C146.472 59.193 145.98 58.977 145.392 58.977C144.792 58.977 144.294 59.193 143.898 59.625C143.502 60.045 143.304 60.663 143.304 61.479C143.304 62.283 143.496 62.901 143.88 63.333C144.276 63.765 144.768 63.981 145.356 63.981ZM151.633 61.479C151.633 60.435 151.843 59.523 152.263 58.743C152.695 57.963 153.289 57.363 154.045 56.943C154.813 56.523 155.689 56.313 156.673 56.313C157.933 56.313 158.983 56.643 159.823 57.303C160.675 57.963 161.233 58.893 161.497 60.093H158.221C157.945 59.325 157.411 58.941 156.619 58.941C156.055 58.941 155.605 59.163 155.269 59.607C154.933 60.039 154.765 60.663 154.765 61.479C154.765 62.295 154.933 62.925 155.269 63.369C155.605 63.801 156.055 64.017 156.619 64.017C157.411 64.017 157.945 63.633 158.221 62.865H161.497C161.233 64.041 160.675 64.965 159.823 65.637C158.971 66.309 157.921 66.645 156.673 66.645C155.689 66.645 154.813 66.435 154.045 66.015C153.289 65.595 152.695 64.995 152.263 64.215C151.843 63.435 151.633 62.523 151.633 61.479ZM169.281 66.501L166.221 62.289V66.501H163.143V53.181H166.221V60.543L169.263 56.457H173.061L168.885 61.497L173.097 66.501H169.281ZM177.563 60.165C177.563 58.917 177.833 57.807 178.373 56.835C178.913 55.851 179.663 55.089 180.623 54.549C181.595 53.997 182.693 53.721 183.917 53.721C185.417 53.721 186.701 54.117 187.769 54.909C188.837 55.701 189.551 56.781 189.911 58.149H186.527C186.275 57.621 185.915 57.219 185.447 56.943C184.991 56.667 184.469 56.529 183.881 56.529C182.933 56.529 182.165 56.859 181.577 57.519C180.989 58.179 180.695 59.061 180.695 60.165C180.695 61.269 180.989 62.151 181.577 62.811C182.165 63.471 182.933 63.801 183.881 63.801C184.469 63.801 184.991 63.663 185.447 63.387C185.915 63.111 186.275 62.709 186.527 62.181H189.911C189.551 63.549 188.837 64.629 187.769 65.421C186.701 66.201 185.417 66.591 183.917 66.591C182.693 66.591 181.595 66.321 180.623 65.781C179.663 65.229 178.913 64.467 178.373 63.495C177.833 62.523 177.563 61.413 177.563 60.165ZM191.184 61.461C191.184 60.429 191.376 59.523 191.76 58.743C192.156 57.963 192.69 57.363 193.362 56.943C194.034 56.523 194.784 56.313 195.612 56.313C196.32 56.313 196.938 56.457 197.466 56.745C198.006 57.033 198.42 57.411 198.708 57.879V56.457H201.786V66.501H198.708V65.079C198.408 65.547 197.988 65.925 197.448 66.213C196.92 66.501 196.302 66.645 195.594 66.645C194.778 66.645 194.034 66.435 193.362 66.015C192.69 65.583 192.156 64.977 191.76 64.197C191.376 63.405 191.184 62.493 191.184 61.461ZM198.708 61.479C198.708 60.711 198.492 60.105 198.06 59.661C197.64 59.217 197.124 58.995 196.512 58.995C195.9 58.995 195.378 59.217 194.946 59.661C194.526 60.093 194.316 60.693 194.316 61.461C194.316 62.229 194.526 62.841 194.946 63.297C195.378 63.741 195.9 63.963 196.512 63.963C197.124 63.963 197.64 63.741 198.06 63.297C198.492 62.853 198.708 62.247 198.708 61.479ZM207.09 58.131C207.45 57.579 207.9 57.147 208.44 56.835C208.98 56.511 209.58 56.349 210.24 56.349V59.607H209.394C208.626 59.607 208.05 59.775 207.666 60.111C207.282 60.435 207.09 61.011 207.09 61.839V66.501H204.012V56.457H207.09V58.131ZM211.1 61.461C211.1 60.429 211.292 59.523 211.676 58.743C212.072 57.963 212.606 57.363 213.278 56.943C213.95 56.523 214.7 56.313 215.528 56.313C216.188 56.313 216.788 56.451 217.328 56.727C217.88 57.003 218.312 57.375 218.624 57.843V53.181H221.702V66.501H218.624V65.061C218.336 65.541 217.922 65.925 217.382 66.213C216.854 66.501 216.236 66.645 215.528 66.645C214.7 66.645 213.95 66.435 213.278 66.015C212.606 65.583 212.072 64.977 211.676 64.197C211.292 63.405 211.1 62.493 211.1 61.461ZM218.624 61.479C218.624 60.711 218.408 60.105 217.976 59.661C217.556 59.217 217.04 58.995 216.428 58.995C215.816 58.995 215.294 59.217 214.862 59.661C214.442 60.093 214.232 60.693 214.232 61.461C214.232 62.229 214.442 62.841 214.862 63.297C215.294 63.741 215.816 63.963 216.428 63.963C217.04 63.963 217.556 63.741 217.976 63.297C218.408 62.853 218.624 62.247 218.624 61.479Z" fill="#101010"/>
<path d="M338.738 42.501H307.738C299.178 42.501 292.238 49.4406 292.238 58.001C292.238 66.5614 299.178 73.501 307.738 73.501H338.738C347.298 73.501 354.238 66.5614 354.238 58.001C354.238 49.4406 347.298 42.501 338.738 42.501Z" fill="#6E71C7"/>
<path d="M319.238 58.001C319.238 51.6497 314.089 46.501 307.738 46.501C301.387 46.501 296.238 51.6497 296.238 58.001C296.238 64.3523 301.387 69.501 307.738 69.501C314.089 69.501 319.238 64.3523 319.238 58.001Z" fill="white"/>
<path d="M50.08 31.986H89.727C90.6477 31.9824 91.5601 32.1613 92.4114 32.5121C93.2626 32.863 94.036 33.3791 94.6868 34.0304C95.3376 34.6818 95.853 35.4556 96.2031 36.3072C96.5533 37.1588 96.7313 38.0713 96.727 38.992L96.611 67.535C96.6079 68.4635 96.4174 69.3819 96.051 70.235C95.5073 71.4959 94.6058 72.5696 93.4582 73.3234C92.3105 74.0772 90.967 74.4779 89.594 74.476H50.168C48.7961 74.4779 47.4537 74.0774 46.3071 73.3242C45.1605 72.5709 44.2599 71.4979 43.717 70.238C43.3514 69.3847 43.1619 68.4663 43.16 67.538L43.075 38.992C43.0733 38.0716 43.2533 37.1599 43.6047 36.3091C43.9561 35.4584 44.472 34.6855 45.1228 34.0346C45.7736 33.3837 46.5465 32.8677 47.3972 32.5161C48.2478 32.1646 49.1595 31.9844 50.08 31.986V31.986Z" fill="#262626"/>
<path d="M41.821 42.039H81.416C82.7921 42.0374 84.1382 42.4416 85.2859 43.2009C86.4337 43.9601 87.3321 45.0409 87.869 46.308C88.2313 47.1681 88.416 48.0926 88.412 49.026L88.327 77.494C88.3257 78.4224 88.1363 79.3409 87.77 80.194C87.2273 81.4513 86.3278 82.5218 85.1827 83.273C84.0377 84.0241 82.6974 84.4229 81.328 84.42H41.954C40.5832 84.4225 39.2418 84.0234 38.0954 83.2718C36.9491 82.5202 36.0482 81.4491 35.504 80.191C35.1368 79.338 34.9463 78.4195 34.944 77.491L34.832 49.026C34.8271 48.1089 35.0045 47.2001 35.3539 46.3522C35.7032 45.5044 36.2176 44.7344 36.867 44.087C37.5171 43.436 38.2895 42.92 39.1396 42.5686C39.9898 42.2171 40.9011 42.0371 41.821 42.039V42.039Z" fill="#6E71C7"/>
<path d="M61.624 52.804C59.5556 52.8012 57.5322 53.4074 55.806 54.5469C54.0798 55.6864 52.7273 57.3089 51.917 59.212C51.3728 60.5017 51.0936 61.8877 51.0962 63.2875C51.0988 64.6873 51.383 66.0723 51.932 67.36C52.6123 68.9415 53.6689 70.3328 55.0097 71.4127C56.3506 72.4925 57.9351 73.2282 59.6253 73.5557C61.3155 73.8833 63.0602 73.7926 64.7073 73.2918C66.3545 72.7909 67.8543 71.895 69.076 70.682C70.0359 69.7303 70.8027 68.6019 71.334 67.359C71.8816 66.0707 72.1643 64.6854 72.1653 63.2856C72.1664 61.8858 71.8857 60.5001 71.34 59.211C70.5279 57.3074 69.1737 55.685 67.446 54.5457C65.7183 53.4064 63.6935 52.8007 61.624 52.804V52.804ZM54.076 63.288C54.0725 62.2803 54.2728 61.2822 54.665 60.354C55.2439 58.9866 56.2127 57.82 57.4505 56.9998C58.6882 56.1796 60.1402 55.7421 61.625 55.742C62.014 55.7417 62.4024 55.7708 62.787 55.829C63.1636 55.886 63.5353 55.9712 63.899 56.084C64.2566 56.1951 64.6053 56.3332 64.942 56.497C65.2746 56.6585 65.5942 56.8454 65.898 57.056L55.4 67.529C55.1881 67.2276 54.9999 66.9104 54.837 66.58C54.6722 66.2461 54.5332 65.9001 54.421 65.545C54.3074 65.1853 54.2211 64.8176 54.163 64.445C54.1046 64.0621 54.0755 63.6753 54.076 63.288V63.288ZM61.636 70.788C61.2478 70.7891 60.86 70.761 60.476 70.704C60.1002 70.6472 59.7291 70.5623 59.366 70.45C59.0088 70.3394 58.6605 70.202 58.324 70.039C57.9919 69.8781 57.6726 69.6918 57.369 69.482L67.869 59.043C68.0807 59.345 68.2686 59.6629 68.431 59.994C68.5952 60.3286 68.7336 60.6753 68.845 61.031C68.958 61.3906 69.0436 61.7584 69.101 62.131C69.1593 62.5129 69.1884 62.8986 69.188 63.285C69.1875 64.7646 68.7493 66.211 67.9287 67.4421C67.108 68.6733 65.9415 69.6342 64.576 70.204C63.644 70.5928 62.6439 70.792 61.634 70.79L61.636 70.788Z" fill="#F8F8F8"/>
</svg>
