<svg id="Слой_1" data-name="Слой 1" xmlns="http://www.w3.org/2000/svg" viewBox="0 0 137 137"><defs><style>.cls-1{fill:#3bb063;}.cls-2{fill:#fff;}</style></defs><path class="cls-1" d="M121,.87H16a16,16,0,0,0-16,16v105a16,16,0,0,0,16,16H121a16,16,0,0,0,16-16v-105A16,16,0,0,0,121,.87Z" transform="translate(0 -0.87)"/><path class="cls-2" d="M101.53,27.8h-9.3a1.95,1.95,0,0,0-2,1.94,1.95,1.95,0,0,0,2,2h9.3A3.29,3.29,0,0,1,104.82,35v9.3a1.95,1.95,0,0,0,1.94,1.94,1.95,1.95,0,0,0,1.95-1.94V35a7.19,7.19,0,0,0-7.18-7.18Z" transform="translate(0 -0.87)"/><path class="cls-2" d="M30.24,46.22a1.95,1.95,0,0,0,1.94-1.95V35a3.32,3.32,0,0,1,1-2.32,3.25,3.25,0,0,1,2.32-1h9.3a1.95,1.95,0,0,0,1.95-2,1.95,1.95,0,0,0-1.95-1.94h-9.3A7.19,7.19,0,0,0,28.29,35v9.3a1.95,1.95,0,0,0,1.95,1.95Z" transform="translate(0 -0.87)"/><path class="cls-2" d="M44.77,107.05h-9.3a3.29,3.29,0,0,1-3.29-3.29v-9.3a1.95,1.95,0,0,0-1.95-1.94,1.95,1.95,0,0,0-1.94,1.94v9.3a7.17,7.17,0,0,0,7.18,7.18h9.3a1.95,1.95,0,0,0,0-3.89Z" transform="translate(0 -0.87)"/><path class="cls-2" d="M106.76,92.52a1.95,1.95,0,0,0-1.94,2v9.3a3.29,3.29,0,0,1-3.29,3.28h-9.3a1.95,1.95,0,0,0-2,2,1.95,1.95,0,0,0,2,1.94h9.3a7.19,7.19,0,0,0,7.18-7.17v-9.3a2,2,0,0,0-.57-1.38,1.94,1.94,0,0,0-1.38-.57Z" transform="translate(0 -0.87)"/><path class="cls-2" d="M89.6,48.28c-13.5-10-28.06-10.27-42-.18a1.89,1.89,0,0,0-.79,1.27,1.94,1.94,0,0,0,.9,2,2.08,2.08,0,0,0,.72.26,2,2,0,0,0,.76,0,2.1,2.1,0,0,0,.69-.33c12.57-9.12,25.26-8.82,37.36.15a1.86,1.86,0,0,0,.69.34,2,2,0,0,0,.77,0,2.06,2.06,0,0,0,.72-.25A2,2,0,0,0,90,51a1.9,1.9,0,0,0,.36-1.46,2.08,2.08,0,0,0-.26-.72,2,2,0,0,0-.53-.56Z" transform="translate(0 -0.87)"/><path class="cls-2" d="M68.5,48.93c-8.27,0-18.89,5.5-23.41,12.29a1.82,1.82,0,0,0-.3.7,1.94,1.94,0,0,0,0,.76,1.65,1.65,0,0,0,.29.71,1.74,1.74,0,0,0,.54.54,2,2,0,0,0,.7.29,2,2,0,0,0,.77,0,1.82,1.82,0,0,0,.7-.3,1.89,1.89,0,0,0,.54-.55C52.07,57.76,61.5,52.83,68.5,52.83s16.23,3.65,20.1,10.43a1.74,1.74,0,0,0,.5.58,1.91,1.91,0,0,0,.68.35,2.15,2.15,0,0,0,.76,0,1.86,1.86,0,0,0,.72-.24,2,2,0,0,0,.58-.5,1.94,1.94,0,0,0,.34-.69,2.14,2.14,0,0,0,0-.76,2.06,2.06,0,0,0-.25-.72C87.52,53.52,77.05,48.93,68.5,48.93Z" transform="translate(0 -0.87)"/><path class="cls-2" d="M58,81c0-6.36,4.72-11.54,10.51-11.54S79,74.61,79,81v2.08A1.95,1.95,0,0,0,81,85a1.95,1.95,0,0,0,2-2V81c0-8.51-6.46-15.43-14.4-15.43S54.1,72.46,54.1,81c0,8.28,6.22,12.71,9,16.68a2,2,0,0,0,.54.53,1.91,1.91,0,0,0,.71.29,1.94,1.94,0,0,0,.76,0,2,2,0,0,0,.71-.3,2.13,2.13,0,0,0,.53-.55,2.07,2.07,0,0,0,.28-.71,2.21,2.21,0,0,0,0-.77,2,2,0,0,0-.31-.7C63.3,91.14,58,87.58,58,81Z" transform="translate(0 -0.87)"/><path class="cls-2" d="M90,88.07c6-12-4.68-30.83-21.46-30.83-11.81,0-22.7,10-22.7,22.7,0,4.6.59,8.5,3.47,12.54a2,2,0,0,0,3.51-.81,2,2,0,0,0-.34-1.45c-2-2.85-2.75-5.54-2.75-10.28,0-10,8.79-18.81,18.81-18.81a18.93,18.93,0,0,1,13.67,6.1c5.15,5.49,7,13.7,4.31,19.1-2.81,5.61-11.88,4-11.88-3.29,0-14.43-14.78-10.11-12.14.48a2,2,0,0,0,.32.7,1.85,1.85,0,0,0,.56.52,1.91,1.91,0,0,0,.72.27,2.21,2.21,0,0,0,.77,0,2,2,0,0,0,.7-.33,2.13,2.13,0,0,0,.51-.57,2.11,2.11,0,0,0,.25-.73,2,2,0,0,0-.05-.77c-.68-2.72.56-4.84,2.26-4.84,1.52,0,2.21,2.67,2.21,5.31,0,11.4,14.6,14.34,19.25,5Z" transform="translate(0 -0.87)"/></svg>