<svg width="239" height="305" viewBox="0 0 239 305" fill="none" xmlns="http://www.w3.org/2000/svg">
<rect width="239" height="305" rx="15" fill="white"/>
<path d="M80.736 158.769C79.812 158.769 78.984 158.619 78.252 158.319C77.52 158.019 76.932 157.575 76.488 156.987C76.056 156.399 75.828 155.691 75.804 154.863H79.08C79.128 155.331 79.29 155.691 79.566 155.943C79.842 156.183 80.202 156.303 80.646 156.303C81.102 156.303 81.462 156.201 81.726 155.997C81.99 155.781 82.122 155.487 82.122 155.115C82.122 154.803 82.014 154.545 81.798 154.341C81.594 154.137 81.336 153.969 81.024 153.837C80.724 153.705 80.292 153.555 79.728 153.387C78.912 153.135 78.246 152.883 77.73 152.631C77.214 152.379 76.77 152.007 76.398 151.515C76.026 151.023 75.84 150.381 75.84 149.589C75.84 148.413 76.266 147.495 77.118 146.835C77.97 146.163 79.08 145.827 80.448 145.827C81.84 145.827 82.962 146.163 83.814 146.835C84.666 147.495 85.122 148.419 85.182 149.607H81.852C81.828 149.199 81.678 148.881 81.402 148.653C81.126 148.413 80.772 148.293 80.34 148.293C79.968 148.293 79.668 148.395 79.44 148.599C79.212 148.791 79.098 149.073 79.098 149.445C79.098 149.853 79.29 150.171 79.674 150.399C80.058 150.627 80.658 150.873 81.474 151.137C82.29 151.413 82.95 151.677 83.454 151.929C83.97 152.181 84.414 152.547 84.786 153.027C85.158 153.507 85.344 154.125 85.344 154.881C85.344 155.601 85.158 156.255 84.786 156.843C84.426 157.431 83.898 157.899 83.202 158.247C82.506 158.595 81.684 158.769 80.736 158.769ZM96.7062 153.459C96.7062 153.747 96.6882 154.047 96.6522 154.359H89.6862C89.7342 154.983 89.9322 155.463 90.2802 155.799C90.6402 156.123 91.0782 156.285 91.5942 156.285C92.3622 156.285 92.8962 155.961 93.1962 155.313H96.4722C96.3042 155.973 95.9982 156.567 95.5542 157.095C95.1222 157.623 94.5762 158.037 93.9162 158.337C93.2562 158.637 92.5182 158.787 91.7022 158.787C90.7182 158.787 89.8422 158.577 89.0742 158.157C88.3062 157.737 87.7062 157.137 87.2742 156.357C86.8422 155.577 86.6262 154.665 86.6262 153.621C86.6262 152.577 86.8362 151.665 87.2562 150.885C87.6882 150.105 88.2882 149.505 89.0562 149.085C89.8242 148.665 90.7062 148.455 91.7022 148.455C92.6742 148.455 93.5382 148.659 94.2942 149.067C95.0502 149.475 95.6382 150.057 96.0582 150.813C96.4902 151.569 96.7062 152.451 96.7062 153.459ZM93.5562 152.649C93.5562 152.121 93.3762 151.701 93.0162 151.389C92.6562 151.077 92.2062 150.921 91.6662 150.921C91.1502 150.921 90.7122 151.071 90.3522 151.371C90.0042 151.671 89.7882 152.097 89.7042 152.649H93.5562ZM103.928 156.033V158.643H102.362C101.246 158.643 100.376 158.373 99.752 157.833C99.128 157.281 98.816 156.387 98.816 155.151V151.155H97.592V148.599H98.816V146.151H101.894V148.599H103.91V151.155H101.894V155.187C101.894 155.487 101.966 155.703 102.11 155.835C102.254 155.967 102.494 156.033 102.83 156.033H103.928ZM112.535 156.267H116.567V158.643H109.457V146.007H112.535V156.267ZM119.583 147.555C119.043 147.555 118.599 147.399 118.251 147.087C117.915 146.763 117.747 146.367 117.747 145.899C117.747 145.419 117.915 145.023 118.251 144.711C118.599 144.387 119.043 144.225 119.583 144.225C120.111 144.225 120.543 144.387 120.879 144.711C121.227 145.023 121.401 145.419 121.401 145.899C121.401 146.367 121.227 146.763 120.879 147.087C120.543 147.399 120.111 147.555 119.583 147.555ZM121.113 148.599V158.643H118.035V148.599H121.113ZM136.16 148.491C137.408 148.491 138.398 148.869 139.13 149.625C139.874 150.381 140.246 151.431 140.246 152.775V158.643H137.186V153.189C137.186 152.541 137.012 152.043 136.664 151.695C136.328 151.335 135.86 151.155 135.26 151.155C134.66 151.155 134.186 151.335 133.838 151.695C133.502 152.043 133.334 152.541 133.334 153.189V158.643H130.274V153.189C130.274 152.541 130.1 152.043 129.752 151.695C129.416 151.335 128.948 151.155 128.348 151.155C127.748 151.155 127.274 151.335 126.926 151.695C126.59 152.043 126.422 152.541 126.422 153.189V158.643H123.344V148.599H126.422V149.859C126.734 149.439 127.142 149.109 127.646 148.869C128.15 148.617 128.72 148.491 129.356 148.491C130.112 148.491 130.784 148.653 131.372 148.977C131.972 149.301 132.44 149.763 132.776 150.363C133.124 149.811 133.598 149.361 134.198 149.013C134.798 148.665 135.452 148.491 136.16 148.491ZM143.946 147.555C143.406 147.555 142.962 147.399 142.614 147.087C142.278 146.763 142.11 146.367 142.11 145.899C142.11 145.419 142.278 145.023 142.614 144.711C142.962 144.387 143.406 144.225 143.946 144.225C144.474 144.225 144.906 144.387 145.242 144.711C145.59 145.023 145.764 145.419 145.764 145.899C145.764 146.367 145.59 146.763 145.242 147.087C144.906 147.399 144.474 147.555 143.946 147.555ZM145.476 148.599V158.643H142.398V148.599H145.476ZM153.305 156.033V158.643H151.739C150.623 158.643 149.753 158.373 149.129 157.833C148.505 157.281 148.193 156.387 148.193 155.151V151.155H146.969V148.599H148.193V146.151H151.271V148.599H153.287V151.155H151.271V155.187C151.271 155.487 151.343 155.703 151.487 155.835C151.631 155.967 151.871 156.033 152.207 156.033H153.305ZM159.105 158.787C158.229 158.787 157.449 158.637 156.765 158.337C156.081 158.037 155.541 157.629 155.145 157.113C154.749 156.585 154.527 155.997 154.479 155.349H157.521C157.557 155.697 157.719 155.979 158.007 156.195C158.295 156.411 158.649 156.519 159.069 156.519C159.453 156.519 159.747 156.447 159.951 156.303C160.167 156.147 160.275 155.949 160.275 155.709C160.275 155.421 160.125 155.211 159.825 155.079C159.525 154.935 159.039 154.779 158.367 154.611C157.647 154.443 157.047 154.269 156.567 154.089C156.087 153.897 155.673 153.603 155.325 153.207C154.977 152.799 154.803 152.253 154.803 151.569C154.803 150.993 154.959 150.471 155.271 150.003C155.595 149.523 156.063 149.145 156.675 148.869C157.299 148.593 158.037 148.455 158.889 148.455C160.149 148.455 161.139 148.767 161.859 149.391C162.591 150.015 163.011 150.843 163.119 151.875H160.275C160.227 151.527 160.071 151.251 159.807 151.047C159.555 150.843 159.219 150.741 158.799 150.741C158.439 150.741 158.163 150.813 157.971 150.957C157.779 151.089 157.683 151.275 157.683 151.515C157.683 151.803 157.833 152.019 158.133 152.163C158.445 152.307 158.925 152.451 159.573 152.595C160.317 152.787 160.923 152.979 161.391 153.171C161.859 153.351 162.267 153.651 162.615 154.071C162.975 154.479 163.161 155.031 163.173 155.727C163.173 156.315 163.005 156.843 162.669 157.311C162.345 157.767 161.871 158.127 161.247 158.391C160.635 158.655 159.921 158.787 159.105 158.787Z" fill="#101010"/>
<path d="M54.4 212.805L52.244 208.997H51.32V212.805H49.36V203.033H53.028C53.784 203.033 54.428 203.168 54.96 203.439C55.492 203.7 55.8887 204.06 56.15 204.517C56.4207 204.965 56.556 205.469 56.556 206.029C56.556 206.673 56.3694 207.256 55.996 207.779C55.6227 208.292 55.0674 208.647 54.33 208.843L56.668 212.805H54.4ZM51.32 207.527H52.958C53.49 207.527 53.8867 207.401 54.148 207.149C54.4094 206.888 54.54 206.528 54.54 206.071C54.54 205.623 54.4094 205.278 54.148 205.035C53.8867 204.783 53.49 204.657 52.958 204.657H51.32V207.527ZM61.2968 212.931C60.6621 212.931 60.0928 212.819 59.5888 212.595C59.0848 212.362 58.6835 212.049 58.3848 211.657C58.0955 211.265 57.9368 210.831 57.9088 210.355H59.8828C59.9201 210.654 60.0648 210.901 60.3168 211.097C60.5781 211.293 60.9001 211.391 61.2828 211.391C61.6561 211.391 61.9455 211.316 62.1508 211.167C62.3655 211.018 62.4728 210.826 62.4728 210.593C62.4728 210.341 62.3421 210.154 62.0808 210.033C61.8288 209.902 61.4228 209.762 60.8628 209.613C60.2841 209.473 59.8081 209.328 59.4348 209.179C59.0708 209.03 58.7535 208.801 58.4828 208.493C58.2215 208.185 58.0908 207.77 58.0908 207.247C58.0908 206.818 58.2121 206.426 58.4548 206.071C58.7068 205.716 59.0615 205.436 59.5188 205.231C59.9855 205.026 60.5315 204.923 61.1568 204.923C62.0808 204.923 62.8181 205.156 63.3688 205.623C63.9195 206.08 64.2228 206.701 64.2788 207.485H62.4028C62.3748 207.177 62.2441 206.934 62.0108 206.757C61.7868 206.57 61.4835 206.477 61.1008 206.477C60.7461 206.477 60.4708 206.542 60.2748 206.673C60.0881 206.804 59.9948 206.986 59.9948 207.219C59.9948 207.48 60.1255 207.681 60.3868 207.821C60.6481 207.952 61.0541 208.087 61.6048 208.227C62.1648 208.367 62.6268 208.512 62.9908 208.661C63.3548 208.81 63.6675 209.044 63.9288 209.361C64.1995 209.669 64.3395 210.08 64.3488 210.593C64.3488 211.041 64.2228 211.442 63.9708 211.797C63.7281 212.152 63.3735 212.432 62.9068 212.637C62.4495 212.833 61.9128 212.931 61.2968 212.931ZM66.8257 212.903C66.471 212.903 66.177 212.796 65.9437 212.581C65.7197 212.357 65.6077 212.082 65.6077 211.755C65.6077 211.428 65.7197 211.158 65.9437 210.943C66.177 210.719 66.471 210.607 66.8257 210.607C67.171 210.607 67.4557 210.719 67.6797 210.943C67.9037 211.158 68.0157 211.428 68.0157 211.755C68.0157 212.082 67.9037 212.357 67.6797 212.581C67.4557 212.796 67.171 212.903 66.8257 212.903ZM75.8664 204.083L72.1424 212.805H70.1544L73.9064 204.307H69.1184V202.627H75.8664V204.083ZM79.4063 210.747L77.7683 214.681H76.5083L77.4183 210.747H79.4063ZM80.595 207.569C80.595 205.954 80.8844 204.69 81.463 203.775C82.051 202.86 83.0217 202.403 84.375 202.403C85.7284 202.403 86.6944 202.86 87.273 203.775C87.861 204.69 88.155 205.954 88.155 207.569C88.155 209.193 87.861 210.467 87.273 211.391C86.6944 212.315 85.7284 212.777 84.375 212.777C83.0217 212.777 82.051 212.315 81.463 211.391C80.8844 210.467 80.595 209.193 80.595 207.569ZM86.223 207.569C86.223 206.878 86.1764 206.3 86.083 205.833C85.999 205.357 85.8217 204.97 85.551 204.671C85.2897 204.372 84.8977 204.223 84.375 204.223C83.8524 204.223 83.4557 204.372 83.185 204.671C82.9237 204.97 82.7464 205.357 82.653 205.833C82.569 206.3 82.527 206.878 82.527 207.569C82.527 208.278 82.569 208.876 82.653 209.361C82.737 209.837 82.9144 210.224 83.185 210.523C83.4557 210.812 83.8524 210.957 84.375 210.957C84.8977 210.957 85.2944 210.812 85.565 210.523C85.8357 210.224 86.013 209.837 86.097 209.361C86.181 208.876 86.223 208.278 86.223 207.569ZM89.6458 207.569C89.6458 205.954 89.9351 204.69 90.5138 203.775C91.1018 202.86 92.0725 202.403 93.4258 202.403C94.7791 202.403 95.7451 202.86 96.3238 203.775C96.9118 204.69 97.2058 205.954 97.2058 207.569C97.2058 209.193 96.9118 210.467 96.3238 211.391C95.7451 212.315 94.7791 212.777 93.4258 212.777C92.0725 212.777 91.1018 212.315 90.5138 211.391C89.9351 210.467 89.6458 209.193 89.6458 207.569ZM95.2738 207.569C95.2738 206.878 95.2271 206.3 95.1338 205.833C95.0498 205.357 94.8725 204.97 94.6018 204.671C94.3405 204.372 93.9485 204.223 93.4258 204.223C92.9031 204.223 92.5065 204.372 92.2358 204.671C91.9745 204.97 91.7971 205.357 91.7038 205.833C91.6198 206.3 91.5778 206.878 91.5778 207.569C91.5778 208.278 91.6198 208.876 91.7038 209.361C91.7878 209.837 91.9651 210.224 92.2358 210.523C92.5065 210.812 92.9031 210.957 93.4258 210.957C93.9485 210.957 94.3451 210.812 94.6158 210.523C94.8865 210.224 95.0638 209.837 95.1478 209.361C95.2318 208.876 95.2738 208.278 95.2738 207.569ZM98.6966 207.569C98.6966 205.954 98.9859 204.69 99.5646 203.775C100.153 202.86 101.123 202.403 102.477 202.403C103.83 202.403 104.796 202.86 105.375 203.775C105.963 204.69 106.257 205.954 106.257 207.569C106.257 209.193 105.963 210.467 105.375 211.391C104.796 212.315 103.83 212.777 102.477 212.777C101.123 212.777 100.153 212.315 99.5646 211.391C98.9859 210.467 98.6966 209.193 98.6966 207.569ZM104.325 207.569C104.325 206.878 104.278 206.3 104.185 205.833C104.101 205.357 103.923 204.97 103.653 204.671C103.391 204.372 102.999 204.223 102.477 204.223C101.954 204.223 101.557 204.372 101.287 204.671C101.025 204.97 100.848 205.357 100.755 205.833C100.671 206.3 100.629 206.878 100.629 207.569C100.629 208.278 100.671 208.876 100.755 209.361C100.839 209.837 101.016 210.224 101.287 210.523C101.557 210.812 101.954 210.957 102.477 210.957C102.999 210.957 103.396 210.812 103.667 210.523C103.937 210.224 104.115 209.837 104.199 209.361C104.283 208.876 104.325 208.278 104.325 207.569Z" fill="#101010"/>
<path d="M30.52 265.805L28.28 261.913H27.062V265.805H25.466V256.075H28.826C29.5727 256.075 30.2027 256.206 30.716 256.467C31.2387 256.728 31.626 257.078 31.878 257.517C32.1393 257.956 32.27 258.446 32.27 258.987C32.27 259.622 32.0833 260.2 31.71 260.723C31.346 261.236 30.7813 261.586 30.016 261.773L32.424 265.805H30.52ZM27.062 260.639H28.826C29.4233 260.639 29.8713 260.49 30.17 260.191C30.478 259.892 30.632 259.491 30.632 258.987C30.632 258.483 30.4827 258.091 30.184 257.811C29.8853 257.522 29.4327 257.377 28.826 257.377H27.062V260.639ZM37.1117 265.931C36.5051 265.931 35.9591 265.824 35.4737 265.609C34.9977 265.385 34.6197 265.086 34.3397 264.713C34.0597 264.33 33.9104 263.906 33.8917 263.439H35.5437C35.5717 263.766 35.7257 264.041 36.0057 264.265C36.2951 264.48 36.6544 264.587 37.0837 264.587C37.5317 264.587 37.8771 264.503 38.1197 264.335C38.3717 264.158 38.4977 263.934 38.4977 263.663C38.4977 263.374 38.3577 263.159 38.0777 263.019C37.8071 262.879 37.3731 262.725 36.7757 262.557C36.1971 262.398 35.7257 262.244 35.3617 262.095C34.9977 261.946 34.6804 261.717 34.4097 261.409C34.1484 261.101 34.0177 260.695 34.0177 260.191C34.0177 259.78 34.1391 259.407 34.3817 259.071C34.6244 258.726 34.9697 258.455 35.4177 258.259C35.8751 258.063 36.3977 257.965 36.9857 257.965C37.8631 257.965 38.5677 258.189 39.0997 258.637C39.6411 259.076 39.9304 259.678 39.9677 260.443H38.3717C38.3437 260.098 38.2037 259.822 37.9517 259.617C37.6997 259.412 37.3591 259.309 36.9297 259.309C36.5097 259.309 36.1877 259.388 35.9637 259.547C35.7397 259.706 35.6277 259.916 35.6277 260.177C35.6277 260.382 35.7024 260.555 35.8517 260.695C36.0011 260.835 36.1831 260.947 36.3977 261.031C36.6124 261.106 36.9297 261.204 37.3497 261.325C37.9097 261.474 38.3671 261.628 38.7217 261.787C39.0857 261.936 39.3984 262.16 39.6597 262.459C39.9211 262.758 40.0564 263.154 40.0657 263.649C40.0657 264.088 39.9444 264.48 39.7017 264.825C39.4591 265.17 39.1137 265.441 38.6657 265.637C38.2271 265.833 37.7091 265.931 37.1117 265.931ZM42.4342 265.903C42.1449 265.903 41.9022 265.805 41.7062 265.609C41.5102 265.413 41.4122 265.17 41.4122 264.881C41.4122 264.592 41.5102 264.349 41.7062 264.153C41.9022 263.957 42.1449 263.859 42.4342 263.859C42.7142 263.859 42.9522 263.957 43.1482 264.153C43.3442 264.349 43.4422 264.592 43.4422 264.881C43.4422 265.17 43.3442 265.413 43.1482 265.609C42.9522 265.805 42.7142 265.903 42.4342 265.903ZM44.9572 260.569C44.9572 258.954 45.2279 257.694 45.7692 256.789C46.3199 255.874 47.2625 255.417 48.5972 255.417C49.9319 255.417 50.8699 255.874 51.4112 256.789C51.9619 257.694 52.2372 258.954 52.2372 260.569C52.2372 262.202 51.9619 263.481 51.4112 264.405C50.8699 265.32 49.9319 265.777 48.5972 265.777C47.2625 265.777 46.3199 265.32 45.7692 264.405C45.2279 263.481 44.9572 262.202 44.9572 260.569ZM50.6692 260.569C50.6692 259.813 50.6179 259.174 50.5152 258.651C50.4219 258.128 50.2259 257.704 49.9272 257.377C49.6285 257.041 49.1852 256.873 48.5972 256.873C48.0092 256.873 47.5659 257.041 47.2672 257.377C46.9685 257.704 46.7679 258.128 46.6652 258.651C46.5719 259.174 46.5252 259.813 46.5252 260.569C46.5252 261.353 46.5719 262.011 46.6652 262.543C46.7585 263.075 46.9545 263.504 47.2532 263.831C47.5612 264.158 48.0092 264.321 48.5972 264.321C49.1852 264.321 49.6285 264.158 49.9272 263.831C50.2352 263.504 50.4359 263.075 50.5292 262.543C50.6225 262.011 50.6692 261.353 50.6692 260.569Z" fill="#9A9A9A"/>
<path d="M152.28 265.805L150.04 261.913H148.822V265.805H147.226V256.075H150.586C151.333 256.075 151.963 256.206 152.476 256.467C152.999 256.728 153.386 257.078 153.638 257.517C153.899 257.956 154.03 258.446 154.03 258.987C154.03 259.622 153.843 260.2 153.47 260.723C153.106 261.236 152.541 261.586 151.776 261.773L154.184 265.805H152.28ZM148.822 260.639H150.586C151.183 260.639 151.631 260.49 151.93 260.191C152.238 259.892 152.392 259.491 152.392 258.987C152.392 258.483 152.243 258.091 151.944 257.811C151.645 257.522 151.193 257.377 150.586 257.377H148.822V260.639ZM158.872 265.931C158.265 265.931 157.719 265.824 157.234 265.609C156.758 265.385 156.38 265.086 156.1 264.713C155.82 264.33 155.67 263.906 155.652 263.439H157.304C157.332 263.766 157.486 264.041 157.766 264.265C158.055 264.48 158.414 264.587 158.844 264.587C159.292 264.587 159.637 264.503 159.88 264.335C160.132 264.158 160.258 263.934 160.258 263.663C160.258 263.374 160.118 263.159 159.838 263.019C159.567 262.879 159.133 262.725 158.536 262.557C157.957 262.398 157.486 262.244 157.122 262.095C156.758 261.946 156.44 261.717 156.17 261.409C155.908 261.101 155.778 260.695 155.778 260.191C155.778 259.78 155.899 259.407 156.142 259.071C156.384 258.726 156.73 258.455 157.178 258.259C157.635 258.063 158.158 257.965 158.746 257.965C159.623 257.965 160.328 258.189 160.86 258.637C161.401 259.076 161.69 259.678 161.728 260.443H160.132C160.104 260.098 159.964 259.822 159.712 259.617C159.46 259.412 159.119 259.309 158.69 259.309C158.27 259.309 157.948 259.388 157.724 259.547C157.5 259.706 157.388 259.916 157.388 260.177C157.388 260.382 157.462 260.555 157.612 260.695C157.761 260.835 157.943 260.947 158.158 261.031C158.372 261.106 158.69 261.204 159.11 261.325C159.67 261.474 160.127 261.628 160.482 261.787C160.846 261.936 161.158 262.16 161.42 262.459C161.681 262.758 161.816 263.154 161.826 263.649C161.826 264.088 161.704 264.48 161.462 264.825C161.219 265.17 160.874 265.441 160.426 265.637C159.987 265.833 159.469 265.931 158.872 265.931ZM164.194 265.903C163.905 265.903 163.662 265.805 163.466 265.609C163.27 265.413 163.172 265.17 163.172 264.881C163.172 264.592 163.27 264.349 163.466 264.153C163.662 263.957 163.905 263.859 164.194 263.859C164.474 263.859 164.712 263.957 164.908 264.153C165.104 264.349 165.202 264.592 165.202 264.881C165.202 265.17 165.104 265.413 164.908 265.609C164.712 265.805 164.474 265.903 164.194 265.903ZM167.599 263.635C168.495 262.86 169.2 262.226 169.713 261.731C170.236 261.227 170.67 260.704 171.015 260.163C171.361 259.622 171.533 259.08 171.533 258.539C171.533 257.979 171.398 257.54 171.127 257.223C170.866 256.906 170.451 256.747 169.881 256.747C169.331 256.747 168.901 256.924 168.593 257.279C168.295 257.624 168.136 258.091 168.117 258.679H166.577C166.605 257.615 166.923 256.803 167.529 256.243C168.145 255.674 168.925 255.389 169.867 255.389C170.885 255.389 171.678 255.669 172.247 256.229C172.826 256.789 173.115 257.536 173.115 258.469C173.115 259.141 172.943 259.79 172.597 260.415C172.261 261.031 171.855 261.586 171.379 262.081C170.913 262.566 170.315 263.131 169.587 263.775L168.957 264.335H173.395V265.665H166.591V264.503L167.599 263.635ZM174.797 260.569C174.797 258.954 175.068 257.694 175.609 256.789C176.16 255.874 177.103 255.417 178.437 255.417C179.772 255.417 180.71 255.874 181.251 256.789C181.802 257.694 182.077 258.954 182.077 260.569C182.077 262.202 181.802 263.481 181.251 264.405C180.71 265.32 179.772 265.777 178.437 265.777C177.103 265.777 176.16 265.32 175.609 264.405C175.068 263.481 174.797 262.202 174.797 260.569ZM180.509 260.569C180.509 259.813 180.458 259.174 180.355 258.651C180.262 258.128 180.066 257.704 179.767 257.377C179.469 257.041 179.025 256.873 178.437 256.873C177.849 256.873 177.406 257.041 177.107 257.377C176.809 257.704 176.608 258.128 176.505 258.651C176.412 259.174 176.365 259.813 176.365 260.569C176.365 261.353 176.412 262.011 176.505 262.543C176.599 263.075 176.795 263.504 177.093 263.831C177.401 264.158 177.849 264.321 178.437 264.321C179.025 264.321 179.469 264.158 179.767 263.831C180.075 263.504 180.276 263.075 180.369 262.543C180.463 262.011 180.509 261.353 180.509 260.569ZM185.726 263.887L184.032 267.751H182.996L183.99 263.887H185.726ZM186.911 260.569C186.911 258.954 187.181 257.694 187.723 256.789C188.273 255.874 189.216 255.417 190.551 255.417C191.885 255.417 192.823 255.874 193.365 256.789C193.915 257.694 194.191 258.954 194.191 260.569C194.191 262.202 193.915 263.481 193.365 264.405C192.823 265.32 191.885 265.777 190.551 265.777C189.216 265.777 188.273 265.32 187.723 264.405C187.181 263.481 186.911 262.202 186.911 260.569ZM192.623 260.569C192.623 259.813 192.571 259.174 192.469 258.651C192.375 258.128 192.179 257.704 191.881 257.377C191.582 257.041 191.139 256.873 190.551 256.873C189.963 256.873 189.519 257.041 189.221 257.377C188.922 257.704 188.721 258.128 188.619 258.651C188.525 259.174 188.479 259.813 188.479 260.569C188.479 261.353 188.525 262.011 188.619 262.543C188.712 263.075 188.908 263.504 189.207 263.831C189.515 264.158 189.963 264.321 190.551 264.321C191.139 264.321 191.582 264.158 191.881 263.831C192.189 263.504 192.389 263.075 192.483 262.543C192.576 262.011 192.623 261.353 192.623 260.569ZM195.879 260.569C195.879 258.954 196.15 257.694 196.691 256.789C197.242 255.874 198.185 255.417 199.519 255.417C200.854 255.417 201.792 255.874 202.333 256.789C202.884 257.694 203.159 258.954 203.159 260.569C203.159 262.202 202.884 263.481 202.333 264.405C201.792 265.32 200.854 265.777 199.519 265.777C198.185 265.777 197.242 265.32 196.691 264.405C196.15 263.481 195.879 262.202 195.879 260.569ZM201.591 260.569C201.591 259.813 201.54 259.174 201.437 258.651C201.344 258.128 201.148 257.704 200.849 257.377C200.551 257.041 200.107 256.873 199.519 256.873C198.931 256.873 198.488 257.041 198.189 257.377C197.891 257.704 197.69 258.128 197.587 258.651C197.494 259.174 197.447 259.813 197.447 260.569C197.447 261.353 197.494 262.011 197.587 262.543C197.681 263.075 197.877 263.504 198.175 263.831C198.483 264.158 198.931 264.321 199.519 264.321C200.107 264.321 200.551 264.158 200.849 263.831C201.157 263.504 201.358 263.075 201.451 262.543C201.545 262.011 201.591 261.353 201.591 260.569ZM204.848 260.569C204.848 258.954 205.119 257.694 205.66 256.789C206.211 255.874 207.153 255.417 208.488 255.417C209.823 255.417 210.761 255.874 211.302 256.789C211.853 257.694 212.128 258.954 212.128 260.569C212.128 262.202 211.853 263.481 211.302 264.405C210.761 265.32 209.823 265.777 208.488 265.777C207.153 265.777 206.211 265.32 205.66 264.405C205.119 263.481 204.848 262.202 204.848 260.569ZM210.56 260.569C210.56 259.813 210.509 259.174 210.406 258.651C210.313 258.128 210.117 257.704 209.818 257.377C209.519 257.041 209.076 256.873 208.488 256.873C207.9 256.873 207.457 257.041 207.158 257.377C206.859 257.704 206.659 258.128 206.556 258.651C206.463 259.174 206.416 259.813 206.416 260.569C206.416 261.353 206.463 262.011 206.556 262.543C206.649 263.075 206.845 263.504 207.144 263.831C207.452 264.158 207.9 264.321 208.488 264.321C209.076 264.321 209.519 264.158 209.818 263.831C210.126 263.504 210.327 263.075 210.42 262.543C210.513 262.011 210.56 261.353 210.56 260.569Z" fill="#9A9A9A"/>
<path d="M28.916 237.029H210.079" stroke="#DADADA" stroke-width="9" stroke-linecap="square"/>
<path d="M28.916 237.029H96.083" stroke="black" stroke-width="9" stroke-linecap="square"/>
<path d="M91.998 247.805C98.0732 247.805 102.998 242.88 102.998 236.805C102.998 230.73 98.0732 225.805 91.998 225.805C85.9229 225.805 80.998 230.73 80.998 236.805C80.998 242.88 85.9229 247.805 91.998 247.805Z" fill="black"/>
<path d="M91.998 244.805C96.4163 244.805 99.998 241.223 99.998 236.805C99.998 232.387 96.4163 228.805 91.998 228.805C87.5798 228.805 83.998 232.387 83.998 236.805C83.998 241.223 87.5798 244.805 91.998 244.805Z" fill="white"/>
<path d="M158.205 71.46V93.239L171.948 88.016L152.905 40.189L75.048 71.46" fill="#3BB063"/>
<path d="M75.048 71.46H158.205V122.938H75.048V71.46Z" fill="#3BB063"/>
<path d="M82.968 88.705C85.1733 88.0451 87.18 86.8474 88.8077 85.2197C90.4354 83.592 91.6331 81.5853 92.293 79.38H140.96C141.62 81.5854 142.817 83.5922 144.445 85.2199C146.073 86.8477 148.08 88.0452 150.285 88.705V105.693C148.08 106.353 146.073 107.55 144.445 109.178C142.817 110.806 141.62 112.813 140.96 115.018H92.291C91.6314 112.813 90.434 110.806 88.8067 109.179C87.1793 107.551 85.173 106.353 82.968 105.693V88.705Z" fill="#97E7B2"/>
<path d="M116.627 107.099C122.095 107.099 126.527 102.667 126.527 97.1989C126.527 91.7313 122.095 87.299 116.627 87.299C111.159 87.299 106.727 91.7313 106.727 97.1989C106.727 102.667 111.159 107.099 116.627 107.099Z" fill="#3BB063"/>
<path d="M156.833 71.46L152.139 59.382L151.925 58.849C149.632 59.0524 147.325 58.6828 145.211 57.7736C143.097 56.8643 141.241 55.4439 139.812 53.64L139.281 53.854L96.827 71.46H156.833Z" fill="#97E7B2"/>
<path d="M94.8469 99.179C95.9405 99.179 96.8269 98.2925 96.8269 97.199C96.8269 96.1055 95.9405 95.219 94.8469 95.219C93.7534 95.219 92.8669 96.1055 92.8669 97.199C92.8669 98.2925 93.7534 99.179 94.8469 99.179Z" fill="#3BB063"/>
<path d="M138.405 99.179C139.498 99.179 140.385 98.2925 140.385 97.199C140.385 96.1055 139.498 95.219 138.405 95.219C137.311 95.219 136.425 96.1055 136.425 97.199C136.425 98.2925 137.311 99.179 138.405 99.179Z" fill="#3BB063"/>
</svg>
