<svg xmlns="http://www.w3.org/2000/svg" width="78" height="78" viewBox="0 0 78 78">
  <g id="Сгруппировать_36765" data-name="Сгруппировать 36765" transform="translate(0.199)">
    <circle id="Эллипс_970" data-name="Эллипс 970" cx="39" cy="39" r="39" transform="translate(-0.199)" fill="#3bb063"/>
    <g id="donation" transform="translate(23.359 20.252)">
      <g id="Iconly_Bulk_Shield_Done" data-name="Iconly/Bulk/Shield Done" transform="translate(2.528 3.555)">
        <g id="Shield_Done" data-name="Shield Done" transform="translate(0)">
          <path id="Вычитание_70" data-name="Вычитание 70" d="M2367.961-14678.421a1.227,1.227,0,0,1-.546-.13l-5.471-2.835a12.851,12.851,0,0,1-3.717-2.757,12.525,12.525,0,0,1-3.249-8.317l-.063-10.081a2.75,2.75,0,0,1,1.864-2.6l10.048-3.5a2.787,2.787,0,0,1,.945-.164,2.869,2.869,0,0,1,.923.152l10.085,3.382a2.748,2.748,0,0,1,1.9,2.576l.063,10.089a12.5,12.5,0,0,1-3.138,8.35,12.789,12.789,0,0,1-3.68,2.8l-5.419,2.9A1.167,1.167,0,0,1,2367.961-14678.421Zm-4.087-16.7a1.151,1.151,0,0,0-.815.332,1.093,1.093,0,0,0-.331.787,1.107,1.107,0,0,0,.339.793l2.913,2.8a1.177,1.177,0,0,0,.816.325,1.181,1.181,0,0,0,.808-.332l5.925-5.844a1.086,1.086,0,0,0,.329-.789,1.093,1.093,0,0,0-.341-.787,1.156,1.156,0,0,0-.808-.325,1.156,1.156,0,0,0-.816.332l-5.116,5.047-2.093-2.016A1.166,1.166,0,0,0,2363.874-14695.121Z" transform="translate(-2354.914 14708.807)" fill="#fff" stroke="rgba(0,0,0,0)" stroke-miterlimit="10" stroke-width="1"/>
        </g>
      </g>
    </g>
  </g>
</svg>
