<svg xmlns="http://www.w3.org/2000/svg" width="78" height="78" viewBox="0 0 78 78">
  <g id="Сгруппировать_36764" data-name="Сгруппировать 36764" transform="translate(0.31)">
    <circle id="Эллипс_972" data-name="Эллипс 972" cx="39" cy="39" r="39" transform="translate(-0.31)" fill="#4d50b0"/>
    <g id="donation" transform="translate(23.248 18.46)">
      <g id="Iconly_Bulk_Lock" data-name="Iconly/Bulk/Lock" transform="translate(1.804 4.496)">
        <g id="Lock" transform="translate(0 0)">
          <path id="Fill_1" data-name="Fill 1" d="M20.426,21.315H6.849A6.782,6.782,0,0,1,0,14.618V6.7A6.782,6.782,0,0,1,6.849,0H20.426a6.782,6.782,0,0,1,6.849,6.7v7.92A6.782,6.782,0,0,1,20.426,21.315Zm-6.8-13.823A1.4,1.4,0,0,0,12.211,8.88v3.539a1.426,1.426,0,0,0,2.852,0V8.88A1.413,1.413,0,0,0,13.629,7.493Z" transform="translate(0 10.771)" fill="#fff"/>
          <path id="Fill_4" data-name="Fill 4" d="M17.721,8.657v2.36a6.662,6.662,0,0,0-1.793-.239h-1.06V8.657a5.939,5.939,0,0,0-6-5.867A5.948,5.948,0,0,0,2.853,8.625v2.152H1.81A6.124,6.124,0,0,0,0,11.033V8.657A8.771,8.771,0,0,1,8.836,0a8.762,8.762,0,0,1,8.885,8.657" transform="translate(4.777)" fill="#fff"/>
        </g>
      </g>
    </g>
  </g>
</svg>
