<svg width="335" height="111" viewBox="0 0 335 111" fill="none" xmlns="http://www.w3.org/2000/svg">
<rect width="335" height="111" rx="20" fill="white"/>
<path d="M106.458 48.209L109.38 56.459L112.286 48.209H115.364V59.584H113.013V56.475L113.247 51.107L110.177 59.584H108.568L105.505 51.115L105.739 56.475V59.584H103.396V48.209H106.458ZM116.911 55.279C116.911 54.441 117.073 53.693 117.396 53.037C117.719 52.381 118.182 51.873 118.786 51.514C119.396 51.154 120.101 50.975 120.903 50.975C122.044 50.975 122.974 51.324 123.693 52.021C124.416 52.719 124.82 53.667 124.903 54.865L124.919 55.443C124.919 56.74 124.557 57.782 123.833 58.568C123.109 59.35 122.138 59.74 120.919 59.74C119.7 59.74 118.726 59.35 117.997 58.568C117.273 57.787 116.911 56.725 116.911 55.381V55.279ZM119.169 55.443C119.169 56.245 119.32 56.86 119.622 57.287C119.924 57.709 120.357 57.92 120.919 57.92C121.466 57.92 121.893 57.712 122.2 57.295C122.508 56.873 122.661 56.201 122.661 55.279C122.661 54.493 122.508 53.883 122.2 53.451C121.893 53.019 121.461 52.803 120.903 52.803C120.351 52.803 119.924 53.019 119.622 53.451C119.32 53.878 119.169 54.542 119.169 55.443ZM133.927 55.436C133.927 56.79 133.638 57.847 133.06 58.607C132.482 59.363 131.674 59.74 130.638 59.74C129.721 59.74 128.989 59.389 128.443 58.686L128.341 59.584H126.31V47.584H128.568V51.889C129.088 51.279 129.773 50.975 130.622 50.975C131.653 50.975 132.461 51.355 133.044 52.115C133.633 52.87 133.927 53.936 133.927 55.311V55.436ZM131.669 55.271C131.669 54.417 131.534 53.795 131.263 53.404C130.992 53.008 130.588 52.811 130.052 52.811C129.333 52.811 128.838 53.105 128.568 53.693V57.029C128.844 57.623 129.344 57.92 130.068 57.92C130.797 57.92 131.276 57.561 131.505 56.842C131.614 56.498 131.669 55.975 131.669 55.271ZM137.708 59.584H135.443V51.131H137.708V59.584ZM135.31 48.9434C135.31 48.6048 135.422 48.3262 135.646 48.1074C135.875 47.8887 136.185 47.7793 136.575 47.7793C136.961 47.7793 137.268 47.8887 137.497 48.1074C137.726 48.3262 137.841 48.6048 137.841 48.9434C137.841 49.2871 137.724 49.5684 137.489 49.7871C137.26 50.006 136.956 50.115 136.575 50.115C136.195 50.115 135.888 50.006 135.653 49.7871C135.424 49.5684 135.31 49.2871 135.31 48.9434ZM141.958 59.584H139.693V47.584H141.958V59.584ZM147.716 59.74C146.476 59.74 145.466 59.36 144.685 58.6C143.909 57.839 143.521 56.826 143.521 55.561V55.342C143.521 54.493 143.685 53.735 144.013 53.068C144.341 52.396 144.804 51.881 145.403 51.521C146.008 51.157 146.695 50.975 147.466 50.975C148.622 50.975 149.531 51.339 150.193 52.068C150.859 52.798 151.193 53.831 151.193 55.17V56.092H145.81C145.883 56.644 146.101 57.087 146.466 57.42C146.836 57.753 147.302 57.92 147.864 57.92C148.734 57.92 149.414 57.605 149.903 56.975L151.013 58.217C150.674 58.696 150.216 59.071 149.638 59.342C149.06 59.607 148.419 59.74 147.716 59.74ZM147.458 52.803C147.01 52.803 146.646 52.954 146.364 53.256C146.088 53.558 145.911 53.99 145.833 54.553H148.974V54.373C148.963 53.873 148.828 53.488 148.568 53.217C148.307 52.941 147.937 52.803 147.458 52.803ZM158.958 55.576V59.584H156.614V48.209H161.052C161.906 48.209 162.656 48.3652 163.302 48.6777C163.953 48.9902 164.453 49.4355 164.802 50.014C165.151 50.587 165.325 51.24 165.325 51.975C165.325 53.089 164.943 53.969 164.177 54.615C163.416 55.256 162.362 55.576 161.013 55.576H158.958ZM158.958 53.678H161.052C161.672 53.678 162.143 53.532 162.466 53.24C162.794 52.949 162.958 52.532 162.958 51.99C162.958 51.433 162.794 50.982 162.466 50.639C162.138 50.295 161.685 50.118 161.107 50.107H158.958V53.678ZM171.599 59.584C171.495 59.381 171.419 59.128 171.372 58.826C170.825 59.436 170.114 59.74 169.239 59.74C168.411 59.74 167.724 59.501 167.177 59.021C166.635 58.542 166.364 57.938 166.364 57.209C166.364 56.313 166.695 55.626 167.357 55.146C168.023 54.667 168.984 54.425 170.239 54.42H171.278V53.936C171.278 53.545 171.177 53.232 170.974 52.998C170.776 52.764 170.461 52.646 170.028 52.646C169.648 52.646 169.349 52.738 169.13 52.92C168.916 53.102 168.81 53.352 168.81 53.67H166.552C166.552 53.18 166.703 52.727 167.005 52.311C167.307 51.894 167.734 51.568 168.286 51.334C168.838 51.094 169.458 50.975 170.146 50.975C171.187 50.975 172.013 51.238 172.622 51.764C173.237 52.285 173.544 53.019 173.544 53.967V57.631C173.549 58.433 173.661 59.04 173.88 59.451V59.584H171.599ZM169.732 58.014C170.065 58.014 170.372 57.941 170.653 57.795C170.935 57.644 171.143 57.443 171.278 57.193V55.74H170.435C169.304 55.74 168.703 56.131 168.63 56.912L168.622 57.045C168.622 57.326 168.721 57.558 168.919 57.74C169.117 57.923 169.388 58.014 169.732 58.014ZM178.31 56.389L179.872 51.131H182.294L178.896 60.896L178.708 61.342C178.203 62.446 177.37 62.998 176.208 62.998C175.88 62.998 175.547 62.949 175.208 62.85V61.139L175.552 61.146C175.979 61.146 176.297 61.081 176.505 60.951C176.719 60.821 176.885 60.605 177.005 60.303L177.271 59.607L174.31 51.131H176.739L178.31 56.389ZM185.302 51.131L185.372 52.076C185.971 51.342 186.781 50.975 187.802 50.975C188.89 50.975 189.638 51.404 190.044 52.264C190.638 51.404 191.484 50.975 192.583 50.975C193.5 50.975 194.182 51.243 194.63 51.779C195.078 52.311 195.302 53.113 195.302 54.186V59.584H193.036V54.193C193.036 53.714 192.943 53.365 192.755 53.146C192.568 52.923 192.237 52.811 191.763 52.811C191.086 52.811 190.617 53.133 190.357 53.779L190.364 59.584H188.107V54.201C188.107 53.712 188.01 53.357 187.818 53.139C187.625 52.92 187.297 52.811 186.833 52.811C186.193 52.811 185.729 53.076 185.443 53.607V59.584H183.185V51.131H185.302ZM200.935 59.74C199.695 59.74 198.685 59.36 197.903 58.6C197.127 57.839 196.739 56.826 196.739 55.561V55.342C196.739 54.493 196.903 53.735 197.232 53.068C197.56 52.396 198.023 51.881 198.622 51.521C199.226 51.157 199.914 50.975 200.685 50.975C201.841 50.975 202.75 51.339 203.411 52.068C204.078 52.798 204.411 53.831 204.411 55.17V56.092H199.028C199.101 56.644 199.32 57.087 199.685 57.42C200.054 57.753 200.521 57.92 201.083 57.92C201.953 57.92 202.633 57.605 203.122 56.975L204.232 58.217C203.893 58.696 203.435 59.071 202.857 59.342C202.278 59.607 201.638 59.74 200.935 59.74ZM200.677 52.803C200.229 52.803 199.864 52.954 199.583 53.256C199.307 53.558 199.13 53.99 199.052 54.553H202.193V54.373C202.182 53.873 202.047 53.488 201.786 53.217C201.526 52.941 201.156 52.803 200.677 52.803ZM207.778 51.131L207.849 52.107C208.453 51.352 209.263 50.975 210.278 50.975C211.174 50.975 211.841 51.238 212.278 51.764C212.716 52.29 212.94 53.076 212.95 54.123V59.584H210.693V54.178C210.693 53.699 210.588 53.352 210.38 53.139C210.172 52.92 209.825 52.811 209.341 52.811C208.706 52.811 208.229 53.081 207.911 53.623V59.584H205.653V51.131H207.778ZM217.372 49.0527V51.131H218.818V52.787H217.372V57.006C217.372 57.318 217.432 57.542 217.552 57.678C217.672 57.813 217.901 57.881 218.239 57.881C218.489 57.881 218.711 57.863 218.903 57.826V59.537C218.461 59.673 218.005 59.74 217.536 59.74C215.953 59.74 215.146 58.941 215.114 57.342V52.787H213.88V51.131H215.114V49.0527H217.372Z" fill="#151515"/>
<path d="M259.226 59.583H256.968V50.88L254.273 51.716V49.8799L258.984 48.1924H259.226V59.583ZM263.265 53.989L263.921 48.208H270.296V50.091H265.773L265.491 52.536C266.028 52.25 266.598 52.106 267.202 52.106C268.286 52.106 269.135 52.442 269.749 53.114C270.364 53.786 270.671 54.726 270.671 55.935C270.671 56.669 270.515 57.328 270.202 57.911C269.895 58.489 269.452 58.94 268.874 59.263C268.296 59.58 267.614 59.739 266.827 59.739C266.14 59.739 265.502 59.601 264.913 59.325C264.325 59.044 263.859 58.651 263.515 58.146C263.176 57.64 262.997 57.065 262.976 56.419H265.21C265.257 56.893 265.421 57.263 265.702 57.528C265.989 57.789 266.361 57.919 266.82 57.919C267.33 57.919 267.723 57.737 267.999 57.372C268.275 57.002 268.413 56.481 268.413 55.81C268.413 55.164 268.254 54.669 267.937 54.325C267.619 53.981 267.169 53.81 266.585 53.81C266.049 53.81 265.614 53.95 265.281 54.231L265.062 54.435L263.265 53.989ZM279.773 54.88C279.773 56.453 279.447 57.656 278.796 58.489C278.145 59.323 277.192 59.739 275.937 59.739C274.697 59.739 273.749 59.33 273.093 58.513C272.437 57.695 272.101 56.523 272.085 54.997V52.903C272.085 51.315 272.413 50.109 273.07 49.2861C273.731 48.4632 274.682 48.0518 275.921 48.0518C277.161 48.0518 278.109 48.4606 278.765 49.2783C279.421 50.091 279.757 51.26 279.773 52.786V54.88ZM277.515 52.583C277.515 51.64 277.385 50.955 277.124 50.528C276.869 50.096 276.468 49.8799 275.921 49.8799C275.39 49.8799 274.997 50.086 274.741 50.497C274.491 50.903 274.359 51.541 274.343 52.411V55.177C274.343 56.104 274.468 56.794 274.718 57.247C274.973 57.695 275.379 57.919 275.937 57.919C276.489 57.919 276.887 57.703 277.132 57.271C277.377 56.838 277.504 56.177 277.515 55.286V52.583ZM281.515 58.474C281.515 58.114 281.635 57.823 281.874 57.599C282.119 57.375 282.424 57.263 282.788 57.263C283.158 57.263 283.463 57.375 283.702 57.599C283.947 57.823 284.07 58.114 284.07 58.474C284.07 58.828 283.95 59.117 283.71 59.341C283.471 59.56 283.163 59.669 282.788 59.669C282.419 59.669 282.114 59.56 281.874 59.341C281.635 59.117 281.515 58.828 281.515 58.474ZM293.616 54.88C293.616 56.453 293.291 57.656 292.64 58.489C291.989 59.323 291.036 59.739 289.781 59.739C288.541 59.739 287.593 59.33 286.937 58.513C286.281 57.695 285.945 56.523 285.929 54.997V52.903C285.929 51.315 286.257 50.109 286.913 49.2861C287.575 48.4632 288.525 48.0518 289.765 48.0518C291.004 48.0518 291.952 48.4606 292.609 49.2783C293.265 50.091 293.601 51.26 293.616 52.786V54.88ZM291.359 52.583C291.359 51.64 291.228 50.955 290.968 50.528C290.713 50.096 290.312 49.8799 289.765 49.8799C289.234 49.8799 288.84 50.086 288.585 50.497C288.335 50.903 288.202 51.541 288.187 52.411V55.177C288.187 56.104 288.312 56.794 288.562 57.247C288.817 57.695 289.223 57.919 289.781 57.919C290.333 57.919 290.731 57.703 290.976 57.271C291.221 56.838 291.348 56.177 291.359 55.286V52.583ZM302.804 54.88C302.804 56.453 302.478 57.656 301.827 58.489C301.176 59.323 300.223 59.739 298.968 59.739C297.728 59.739 296.781 59.33 296.124 58.513C295.468 57.695 295.132 56.523 295.116 54.997V52.903C295.116 51.315 295.445 50.109 296.101 49.2861C296.762 48.4632 297.713 48.0518 298.952 48.0518C300.192 48.0518 301.14 48.4606 301.796 49.2783C302.452 50.091 302.788 51.26 302.804 52.786V54.88ZM300.546 52.583C300.546 51.64 300.416 50.955 300.156 50.528C299.9 50.096 299.499 49.8799 298.952 49.8799C298.421 49.8799 298.028 50.086 297.773 50.497C297.523 50.903 297.39 51.541 297.374 52.411V55.177C297.374 56.104 297.499 56.794 297.749 57.247C298.004 57.695 298.411 57.919 298.968 57.919C299.52 57.919 299.919 57.703 300.163 57.271C300.408 56.838 300.536 56.177 300.546 55.286V52.583Z" fill="#151515"/>
<path d="M83.437 55.083C83.437 39.1043 70.484 26.151 54.505 26.151C38.526 26.151 25.573 39.1043 25.573 55.083C25.573 71.062 38.526 84.015 54.505 84.015C70.484 84.015 83.437 71.062 83.437 55.083Z" fill="#3BB063"/>
<path d="M61.694 68.7H47.297C46.886 68.7 46.491 68.536 46.2 68.245C45.909 67.955 45.746 67.56 45.745 67.149V43.0179C45.745 42.6064 45.909 42.2118 46.2 41.9208C46.491 41.6298 46.885 41.4662 47.297 41.4659H61.697C62.108 41.4673 62.501 41.6313 62.792 41.9222C63.082 42.2131 63.245 42.6071 63.245 43.0179V67.149C63.244 67.56 63.081 67.954 62.79 68.245C62.499 68.536 62.105 68.699 61.694 68.7ZM54.495 44.2609C54.344 44.2609 54.197 44.3056 54.072 44.3893C53.946 44.473 53.849 44.5919 53.791 44.7311C53.733 44.8703 53.718 45.0234 53.748 45.1712C53.777 45.319 53.849 45.4548 53.956 45.5614C54.062 45.668 54.198 45.7407 54.346 45.7702C54.493 45.7997 54.647 45.7847 54.786 45.7272C54.925 45.6697 55.044 45.5722 55.128 45.447C55.212 45.3218 55.257 45.1746 55.257 45.0239C55.257 44.8218 55.177 44.6278 55.034 44.4848C54.891 44.3417 54.697 44.2612 54.495 44.2609Z" fill="white"/>
<path d="M54.495 50.245L50.38 55.084H52.363V59.922H56.633V55.083H58.613L54.495 50.245Z" fill="#3BB063"/>
</svg>
