<svg xmlns="http://www.w3.org/2000/svg" width="78" height="78" viewBox="0 0 78 78">
  <g id="phone_icon" transform="translate(0)">
    <circle id="Эллипс_975" data-name="Эллипс 975" cx="39" cy="39" r="39" transform="translate(0 0)" fill="#6e71c7"/>
    <path id="smartphone_3_" data-name="smartphone (3)" d="M112.387,0H94.377A3.381,3.381,0,0,0,91,3.377V35.044a3.381,3.381,0,0,0,3.377,3.377h18.01a3.381,3.381,0,0,0,3.377-3.377V3.377A3.381,3.381,0,0,0,112.387,0Zm-9,33.919a1.126,1.126,0,1,1,1.126-1.126A1.126,1.126,0,0,1,103.382,33.919Zm2.251-27.165h-4.5a1.126,1.126,0,1,1,0-2.251h4.5a1.126,1.126,0,1,1,0,2.251Z" transform="translate(-64.382 19.79)" fill="#fff"/>
  </g>
</svg>
