<svg width="333" height="151" viewBox="0 0 333 151" fill="none" xmlns="http://www.w3.org/2000/svg">
<g clip-path="url(#clip0)">
<rect width="332" height="150" rx="20" fill="white"/>
<path d="M74.2371 95.8081H71.1882V104.1H69.1375V95.8081H66.1296V94.147H74.2371V95.8081ZM78.4207 104.1C78.3295 103.922 78.2634 103.701 78.2224 103.437C77.7439 103.97 77.1218 104.237 76.3562 104.237C75.6316 104.237 75.03 104.027 74.5515 103.608C74.0776 103.189 73.8406 102.66 73.8406 102.022C73.8406 101.238 74.13 100.637 74.7087 100.217C75.2921 99.798 76.1329 99.5861 77.2312 99.5815H78.1404V99.1577C78.1404 98.8159 78.0515 98.5425 77.8738 98.3374C77.7006 98.1323 77.4249 98.0298 77.0466 98.0298C76.7139 98.0298 76.4519 98.1095 76.2605 98.269C76.0736 98.4285 75.9802 98.6473 75.9802 98.9253H74.0046C74.0046 98.4969 74.1368 98.1004 74.4011 97.7358C74.6654 97.3713 75.0391 97.0864 75.5222 96.8813C76.0053 96.6717 76.5476 96.5669 77.1492 96.5669C78.0606 96.5669 78.783 96.797 79.3162 97.2573C79.8539 97.7131 80.1228 98.3556 80.1228 99.1851V102.391C80.1274 103.093 80.2253 103.624 80.4167 103.984V104.1H78.4207ZM76.7869 102.726C77.0785 102.726 77.3474 102.662 77.5935 102.535C77.8396 102.403 78.0219 102.227 78.1404 102.008V100.737H77.4021C76.4132 100.737 75.8868 101.079 75.823 101.762L75.8162 101.878C75.8162 102.125 75.9028 102.327 76.0759 102.487C76.2491 102.646 76.4861 102.726 76.7869 102.726ZM84.4568 98.9116L85.7009 96.7036H87.8132L85.7078 100.327L87.9021 104.1H85.783L84.4636 101.776L83.1511 104.1H81.0251L83.2195 100.327L81.1208 96.7036H83.24L84.4568 98.9116ZM90.8484 104.1H88.866V96.7036H90.8484V104.1ZM88.7498 94.7896C88.7498 94.4933 88.8477 94.2495 89.0437 94.0581C89.2442 93.8667 89.5154 93.771 89.8572 93.771C90.1944 93.771 90.4633 93.8667 90.6638 94.0581C90.8643 94.2495 90.9646 94.4933 90.9646 94.7896C90.9646 95.0903 90.8621 95.3364 90.657 95.5278C90.4565 95.7192 90.1899 95.8149 89.8572 95.8149C89.5245 95.8149 89.2556 95.7192 89.0505 95.5278C88.85 95.3364 88.7498 95.0903 88.7498 94.7896Z" fill="#151515"/>
<path d="M87.7532 44.1014H84.6497V52.66H82.9338V44.1014H79.8577V42.7069H87.7532V44.1014ZM93.8167 50.3427H89.9612L89.1545 52.66H87.3567L91.1165 42.7069H92.6682L96.4348 52.66H94.6301L93.8167 50.3427ZM90.4465 48.9481H93.3313L91.8889 44.8192L90.4465 48.9481ZM105.048 51.368C104.688 51.8374 104.189 52.1929 103.551 52.4344C102.913 52.676 102.188 52.7968 101.377 52.7968C100.543 52.7968 99.8049 52.6076 99.1624 52.2294C98.5198 51.8511 98.023 51.3111 97.6721 50.6093C97.3258 49.9029 97.1458 49.0803 97.1321 48.1415V47.3622C97.1321 45.8583 97.4921 44.6848 98.2122 43.8417C98.9322 42.994 99.9371 42.5702 101.227 42.5702C102.334 42.5702 103.214 42.8436 103.865 43.3905C104.517 43.9374 104.909 44.7258 105.041 45.7557H103.346C103.155 44.5572 102.46 43.9579 101.261 43.9579C100.486 43.9579 99.8961 44.2382 99.4905 44.7987C99.0894 45.3547 98.8821 46.1727 98.8684 47.2528V48.0184C98.8684 49.094 99.094 49.9302 99.5452 50.5272C100.001 51.1197 100.632 51.4159 101.439 51.4159C102.323 51.4159 102.952 51.2154 103.325 50.8143V48.8661H101.275V47.5536H105.048V51.368ZM110.435 52.66V42.7069H113.846C114.972 42.7069 115.828 42.9325 116.416 43.3837C117.004 43.8348 117.298 44.507 117.298 45.4003C117.298 45.856 117.175 46.2662 116.929 46.6307C116.683 46.9953 116.323 47.2779 115.849 47.4784C116.387 47.6242 116.801 47.8999 117.093 48.3055C117.389 48.7066 117.537 49.1897 117.537 49.7548C117.537 50.689 117.237 51.4068 116.635 51.9081C116.038 52.4094 115.181 52.66 114.065 52.66H110.435ZM112.164 48.1688V51.2792H114.085C114.628 51.2792 115.051 51.1447 115.357 50.8759C115.662 50.607 115.815 50.2333 115.815 49.7548C115.815 48.7203 115.286 48.1916 114.229 48.1688H112.164ZM112.164 46.8973H113.86C114.397 46.8973 114.817 46.7766 115.117 46.535C115.423 46.2889 115.575 45.9426 115.575 45.496C115.575 45.0038 115.434 44.6483 115.152 44.4296C114.874 44.2108 114.438 44.1014 113.846 44.1014H112.164V46.8973ZM123.526 52.66C123.453 52.5188 123.389 52.2886 123.334 51.9696C122.806 52.521 122.158 52.7968 121.393 52.7968C120.65 52.7968 120.044 52.5848 119.574 52.161C119.105 51.7372 118.87 51.2131 118.87 50.5887C118.87 49.8003 119.162 49.1965 119.745 48.7772C120.333 48.3534 121.172 48.1415 122.261 48.1415H123.28V47.6561C123.28 47.2733 123.172 46.968 122.958 46.7401C122.744 46.5077 122.418 46.3915 121.981 46.3915C121.602 46.3915 121.293 46.4872 121.051 46.6786C120.809 46.8654 120.689 47.1047 120.689 47.3964H119.028C119.028 46.9908 119.162 46.6125 119.431 46.2616C119.7 45.9061 120.064 45.6281 120.525 45.4276C120.99 45.2271 121.507 45.1268 122.076 45.1268C122.942 45.1268 123.633 45.3456 124.148 45.7831C124.663 46.216 124.927 46.8267 124.941 47.6151V50.951C124.941 51.6164 125.034 52.1473 125.221 52.5438V52.66H123.526ZM121.7 51.4637C122.029 51.4637 122.336 51.384 122.623 51.2245C122.915 51.065 123.134 50.8508 123.28 50.5819V49.1874H122.384C121.769 49.1874 121.306 49.2945 120.996 49.5087C120.686 49.7229 120.531 50.0259 120.531 50.4178C120.531 50.7369 120.636 50.9921 120.846 51.1835C121.06 51.3703 121.345 51.4637 121.7 51.4637ZM128.222 45.2635L128.27 46.118C128.817 45.4572 129.534 45.1268 130.423 45.1268C131.963 45.1268 132.747 46.0087 132.775 47.7723V52.66H131.114V47.868C131.114 47.3986 131.011 47.0523 130.806 46.829C130.605 46.6011 130.275 46.4872 129.815 46.4872C129.145 46.4872 128.646 46.7902 128.318 47.3964V52.66H126.656V45.2635H128.222ZM136.876 49.4882L136.138 50.2469V52.66H134.477V42.16H136.138V48.2167L136.657 47.5673L138.701 45.2635H140.698L137.949 48.3466L140.991 52.66H139.071L136.876 49.4882Z" fill="#151515"/>
<path d="M237.19 48.0645L237.73 43.0469H243.075V44.4824H239.11L238.837 46.8613C239.297 46.597 239.817 46.4648 240.396 46.4648C241.343 46.4648 242.079 46.7679 242.604 47.374C243.132 47.9801 243.397 48.7959 243.397 49.8213C243.397 50.833 243.105 51.6396 242.522 52.2412C241.938 52.8382 241.138 53.1367 240.122 53.1367C239.211 53.1367 238.454 52.8792 237.853 52.3643C237.256 51.8447 236.932 51.1611 236.882 50.3135H238.488C238.552 50.7965 238.725 51.168 239.008 51.4277C239.29 51.6829 239.66 51.8105 240.115 51.8105C240.626 51.8105 241.022 51.6283 241.305 51.2637C241.592 50.8991 241.735 50.4023 241.735 49.7734C241.735 49.1673 241.578 48.6888 241.264 48.3379C240.949 47.9824 240.516 47.8047 239.965 47.8047C239.664 47.8047 239.409 47.8457 239.199 47.9277C238.99 48.0052 238.762 48.1602 238.516 48.3926L237.19 48.0645ZM249.857 45.6035L249.904 46.376C250.424 45.7699 251.135 45.4668 252.037 45.4668C253.026 45.4668 253.703 45.8451 254.067 46.6016C254.605 45.8451 255.362 45.4668 256.337 45.4668C257.153 45.4668 257.759 45.6924 258.155 46.1436C258.556 46.5947 258.761 47.2601 258.771 48.1396V53H257.109V48.1875C257.109 47.7181 257.007 47.374 256.802 47.1553C256.597 46.9365 256.257 46.8271 255.783 46.8271C255.405 46.8271 255.095 46.9297 254.854 47.1348C254.617 47.3353 254.45 47.5996 254.355 47.9277L254.361 53H252.7V48.1328C252.677 47.2624 252.233 46.8271 251.367 46.8271C250.702 46.8271 250.23 47.0983 249.952 47.6406V53H248.291V45.6035H249.857ZM262.243 53H260.582V45.6035H262.243V53ZM260.48 43.6826C260.48 43.4274 260.559 43.2155 260.719 43.0469C260.883 42.8783 261.115 42.7939 261.416 42.7939C261.717 42.7939 261.949 42.8783 262.113 43.0469C262.277 43.2155 262.359 43.4274 262.359 43.6826C262.359 43.9333 262.277 44.1429 262.113 44.3115C261.949 44.4756 261.717 44.5576 261.416 44.5576C261.115 44.5576 260.883 44.4756 260.719 44.3115C260.559 44.1429 260.48 43.9333 260.48 43.6826ZM265.6 45.6035L265.648 46.458C266.194 45.7972 266.912 45.4668 267.801 45.4668C269.341 45.4668 270.125 46.3486 270.152 48.1123V53H268.491V48.208C268.491 47.7386 268.389 47.3923 268.184 47.1689C267.983 46.9411 267.653 46.8271 267.192 46.8271C266.523 46.8271 266.023 47.1302 265.695 47.7363V53H264.034V45.6035H265.6ZM279.757 53C279.684 52.8587 279.62 52.6286 279.565 52.3096C279.037 52.861 278.39 53.1367 277.624 53.1367C276.881 53.1367 276.275 52.9248 275.806 52.501C275.336 52.0771 275.102 51.5531 275.102 50.9287C275.102 50.1403 275.393 49.5365 275.977 49.1172C276.565 48.6934 277.403 48.4814 278.492 48.4814H279.511V47.9961C279.511 47.6133 279.404 47.3079 279.19 47.0801C278.975 46.8477 278.649 46.7314 278.212 46.7314C277.834 46.7314 277.524 46.8271 277.282 47.0186C277.041 47.2054 276.92 47.4447 276.92 47.7363H275.259C275.259 47.3307 275.393 46.9525 275.662 46.6016C275.931 46.2461 276.296 45.9681 276.756 45.7676C277.221 45.5671 277.738 45.4668 278.308 45.4668C279.174 45.4668 279.864 45.6855 280.379 46.123C280.894 46.556 281.158 47.1667 281.172 47.9551V51.291C281.172 51.9564 281.265 52.4873 281.452 52.8838V53H279.757ZM277.932 51.8037C278.26 51.8037 278.567 51.724 278.855 51.5645C279.146 51.4049 279.365 51.1908 279.511 50.9219V49.5273H278.615C278 49.5273 277.537 49.6344 277.228 49.8486C276.918 50.0628 276.763 50.3659 276.763 50.7578C276.763 51.0768 276.868 51.332 277.077 51.5234C277.291 51.7103 277.576 51.8037 277.932 51.8037ZM282.621 49.2471C282.621 48.0986 282.89 47.1826 283.428 46.499C283.97 45.8109 284.688 45.4668 285.581 45.4668C286.424 45.4668 287.087 45.7607 287.57 46.3486L287.646 45.6035H289.143V52.7744C289.143 53.7451 288.84 54.5107 288.233 55.0713C287.632 55.6318 286.818 55.9121 285.793 55.9121C285.251 55.9121 284.72 55.7982 284.2 55.5703C283.685 55.347 283.293 55.0531 283.024 54.6885L283.811 53.6904C284.321 54.2965 284.95 54.5996 285.697 54.5996C286.249 54.5996 286.684 54.4492 287.003 54.1484C287.322 53.8522 287.482 53.4147 287.482 52.8359V52.3369C287.003 52.8701 286.365 53.1367 285.567 53.1367C284.702 53.1367 283.993 52.7926 283.441 52.1045C282.895 51.4163 282.621 50.4639 282.621 49.2471ZM284.275 49.3906C284.275 50.1335 284.426 50.7191 284.727 51.1475C285.032 51.5713 285.454 51.7832 285.991 51.7832C286.661 51.7832 287.158 51.4961 287.482 50.9219V47.668C287.167 47.1074 286.675 46.8271 286.005 46.8271C285.458 46.8271 285.032 47.0436 284.727 47.4766C284.426 47.9095 284.275 48.5475 284.275 49.3906ZM290.544 49.2334C290.544 48.5088 290.688 47.8571 290.975 47.2783C291.262 46.695 291.665 46.2484 292.185 45.9385C292.704 45.624 293.301 45.4668 293.976 45.4668C294.974 45.4668 295.783 45.7881 296.402 46.4307C297.027 47.0732 297.364 47.9255 297.414 48.9873L297.421 49.377C297.421 50.1061 297.28 50.7578 296.997 51.332C296.719 51.9062 296.318 52.3506 295.794 52.665C295.274 52.9795 294.673 53.1367 293.989 53.1367C292.946 53.1367 292.109 52.7904 291.481 52.0977C290.856 51.4004 290.544 50.473 290.544 49.3154V49.2334ZM292.205 49.377C292.205 50.138 292.362 50.735 292.677 51.168C292.991 51.5964 293.429 51.8105 293.989 51.8105C294.55 51.8105 294.985 51.5918 295.295 51.1543C295.609 50.7168 295.767 50.0765 295.767 49.2334C295.767 48.486 295.605 47.8936 295.281 47.4561C294.962 47.0186 294.527 46.7998 293.976 46.7998C293.433 46.7998 293.003 47.0163 292.684 47.4492C292.365 47.8776 292.205 48.5202 292.205 49.377Z" fill="#151515"/>
<path d="M62.1001 27.8H35.9301C31.5118 27.8 27.9301 31.3818 27.9301 35.8V61.9701C27.9301 66.3883 31.5118 69.9701 35.9301 69.9701H62.1001C66.5183 69.9701 70.1001 66.3883 70.1001 61.9701V35.8C70.1001 31.3818 66.5183 27.8 62.1001 27.8Z" fill="#151515"/>
<path d="M248.25 101.245C248.25 89.6001 257.695 80.16 269.34 80.16V80.16C280.985 80.16 290.43 89.6001 290.43 101.245V101.245C290.43 112.89 280.985 122.33 269.34 122.33V122.33C257.695 122.33 248.25 112.89 248.25 101.245V101.245Z" fill="black"/>
<path d="M259.84 98.4901V101.69C259.84 102.75 259.37 103.19 258.26 103.19C257.15 103.19 256.68 102.75 256.68 101.69V98.3501H255.62C255.53 98.3501 255.49 98.3501 255.49 98.4901V101.72C255.49 103.51 256.63 104.12 258.27 104.12C259.91 104.12 261.05 103.5 261.05 101.72V98.3401H260.03C260.007 98.3337 259.983 98.3329 259.96 98.3376C259.937 98.3422 259.916 98.3523 259.897 98.3669C259.878 98.3815 259.864 98.4002 259.854 98.4216C259.844 98.4431 259.839 98.4665 259.84 98.4901V98.4901Z" fill="white"/>
<path d="M275.29 99.2701C275.322 99.2743 275.354 99.2678 275.381 99.2514C275.408 99.235 275.429 99.2099 275.44 99.1801L275.75 98.4201V98.3401H271.46C271.06 98.3401 270.91 98.4701 270.91 98.7401V103.74C270.91 103.97 271.03 104.08 271.33 104.08H275.33C275.364 104.083 275.398 104.074 275.426 104.056C275.455 104.038 275.477 104.012 275.49 103.98L275.8 103.22C275.8 103.22 275.8 103.15 275.75 103.15H272.03V102.15C272.03 101.8 272.22 101.64 272.74 101.64H274.33C274.363 101.645 274.396 101.639 274.425 101.622C274.454 101.606 274.477 101.581 274.49 101.55L274.79 100.81C274.796 100.805 274.801 100.799 274.805 100.792C274.808 100.786 274.81 100.778 274.81 100.77C274.81 100.762 274.808 100.755 274.805 100.748C274.801 100.741 274.796 100.735 274.79 100.73H272.03V99.2601H275.27L275.29 99.2701Z" fill="white"/>
<path d="M267.73 101C267.947 100.879 268.124 100.697 268.24 100.477C268.355 100.257 268.404 100.008 268.38 99.7601C268.38 98.5001 267.38 98.3201 266.3 98.3201H263.87C263.47 98.3201 263.32 98.4401 263.32 98.7201V103.67C263.32 103.9 263.44 104.01 263.74 104.01H266.74C267.86 104.01 268.67 103.58 268.67 102.44C268.709 102.128 268.636 101.811 268.464 101.548C268.292 101.284 268.032 101.09 267.73 101V101ZM264.51 99.2201H266.38C267.02 99.2201 267.18 99.4501 267.18 99.9501C267.18 100.45 267.01 100.68 266.38 100.68H264.51V99.2601V99.2201ZM266.61 103.08H264.51V102.08C264.51 101.73 264.7 101.57 265.22 101.57H266.61C267.27 101.57 267.46 101.82 267.46 102.35C267.46 102.88 267.28 103.12 266.61 103.12V103.08Z" fill="white"/>
<path d="M283.18 103.94L281.91 101.75C282.274 101.673 282.594 101.46 282.808 101.156C283.021 100.852 283.111 100.478 283.06 100.11C283.06 98.72 282.2 98.36 280.79 98.36H278.36C277.96 98.36 277.81 98.48 277.81 98.76V103.91C277.81 104.01 277.81 104.05 277.95 104.05H278.95V102.39C278.95 102.05 279.14 101.89 279.66 101.89H280.66L281.81 103.96C281.819 103.992 281.839 104.019 281.867 104.037C281.894 104.056 281.927 104.064 281.96 104.06H283.05C283.06 104.059 283.07 104.056 283.079 104.05C283.088 104.045 283.096 104.038 283.101 104.029C283.107 104.021 283.111 104.011 283.112 104.001C283.114 103.99 283.113 103.98 283.11 103.97L283.18 103.94ZM280.96 100.94H278.96V99.27H280.96C281.69 99.27 281.86 99.56 281.86 100.14C281.86 100.72 281.7 101 280.96 101V100.94Z" fill="white"/>
<path d="M36.39 46.86H33.03V44.25H42.98V46.86H39.59V55.21H36.39V46.86Z" fill="white"/>
<path d="M61.51 49.43H64.71V54.07C64.0267 54.5303 63.2688 54.8686 62.47 55.07C61.6513 55.3088 60.8028 55.43 59.95 55.43C58.8603 55.449 57.7825 55.2018 56.81 54.71C55.9109 54.2561 55.1535 53.5643 54.62 52.71C54.1063 51.8063 53.8362 50.7846 53.8362 49.745C53.8362 48.7055 54.1063 47.6838 54.62 46.78C55.1548 45.9196 55.9206 45.2266 56.83 44.78C57.8194 44.2692 58.9165 44.0018 60.03 44C61.014 43.9869 61.9905 44.1741 62.9 44.55C63.7305 44.8864 64.4629 45.4263 65.03 46.12L62.76 48.12C62.452 47.7428 62.0648 47.438 61.6258 47.2272C61.1869 47.0164 60.7069 46.9047 60.22 46.9C59.482 46.8743 58.7635 47.1402 58.22 47.64C57.6687 48.1984 57.3505 48.9456 57.33 49.73C57.3595 50.5046 57.6727 51.2413 58.21 51.8C58.4738 52.056 58.7876 52.2547 59.1317 52.3837C59.4759 52.5128 59.8429 52.5694 60.21 52.55C60.67 52.5595 61.1268 52.4709 61.55 52.29L61.51 49.43Z" fill="white"/>
<path d="M45.03 55.2101H41.39L46.17 44.2101H49.79L54.57 55.2101H50.93L48.03 48.5001L45.03 55.2101Z" fill="white"/>
<path d="M46.4 55.33L48.03 51.64L49.62 55.33H46.4Z" fill="#21905B"/>
</g>
<defs>
<clipPath id="clip0">
<rect width="332.21" height="150.09" fill="white"/>
</clipPath>
</defs>
</svg>
