<svg width="56" height="40" viewBox="0 0 56 40" fill="none" xmlns="http://www.w3.org/2000/svg">
<g clip-path="url(#clip0)">
<path d="M11.68 33.2C11.68 27.7576 19.09 26.3484 27.872 26.3484C36.6056 26.3484 44.0632 27.7084 44.0632 33.1484C44.0632 38.5884 36.652 40 27.8704 40C19.136 40 11.68 38.64 11.68 33.2ZM6.9048 34.72C5.4368 34.5128 1.6604 33.7116 0.488401 31.2148C0.167988 30.5656 0.00132561 29.8514 0.00132561 29.1274C0.00132561 28.4034 0.167988 27.6892 0.488401 27.04C1.2548 25.4304 3.1008 24.3224 5.9108 23.7776C8.63181 23.2604 11.3987 23.0235 14.168 23.0708C14.186 23.0724 14.2032 23.0793 14.2174 23.0905C14.2316 23.1017 14.2422 23.1168 14.248 23.134C14.2509 23.159 14.2455 23.1842 14.2327 23.2059C14.2199 23.2275 14.2004 23.2444 14.1772 23.254C12.6316 24.008 6.6672 27.2888 7.4172 34.2056C7.42578 34.2698 7.4207 34.335 7.40228 34.3971C7.38387 34.4592 7.35254 34.5166 7.31034 34.5657C7.26815 34.6148 7.21605 34.6545 7.15747 34.682C7.09888 34.7096 7.03513 34.7244 6.9704 34.7256C6.94795 34.7261 6.9255 34.725 6.9032 34.7224L6.9048 34.72ZM48.5848 34.206C49.3352 27.286 43.3704 24.006 41.8268 23.2524C41.8033 23.2437 41.7834 23.2274 41.7703 23.2061C41.7571 23.1848 41.7514 23.1597 41.754 23.1348C41.7599 23.1172 41.7709 23.1017 41.7855 23.0902C41.8002 23.0788 41.8179 23.0719 41.8364 23.0704C44.6052 23.0224 47.3715 23.26 50.0916 23.7792C52.9016 24.322 54.75 25.4296 55.516 27.0396C55.8354 27.6891 56.0015 28.4032 56.0015 29.127C56.0015 29.8508 55.8354 30.5649 55.516 31.2144C54.344 33.7112 50.568 34.5124 49.1 34.7196C49.0772 34.723 49.0542 34.7248 49.0312 34.7248C48.9667 34.7237 48.9032 34.7091 48.8447 34.6818C48.7863 34.6546 48.7342 34.6153 48.692 34.5666C48.6497 34.5179 48.6182 34.4608 48.5994 34.3991C48.5807 34.3374 48.5752 34.2724 48.5832 34.2084L48.5848 34.206ZM17.1556 10.5824C17.1296 8.45772 17.7358 6.37328 18.8973 4.59399C20.0588 2.8147 21.7231 1.42091 23.6786 0.589759C25.6342 -0.241392 27.7927 -0.472374 29.8798 -0.0738289C31.9669 0.324716 33.8884 1.33479 35.4001 2.82802C36.9118 4.32125 37.9454 6.23021 38.3695 8.31229C38.7937 10.3944 38.5892 12.5555 37.7822 14.5211C36.9751 16.4867 35.6019 18.168 33.837 19.3512C32.0721 20.5345 29.9952 21.1663 27.8704 21.1664C26.4705 21.1802 25.0816 20.9169 23.784 20.3915C22.4863 19.8661 21.3054 19.0891 20.3094 18.1052C19.3134 17.1214 18.5219 15.9502 17.9806 14.659C17.4394 13.3679 17.159 11.9824 17.1556 10.5824V10.5824ZM42.16 19.6032C41.7474 19.5932 41.336 19.5542 40.9288 19.4864C40.8629 19.4768 40.8005 19.4506 40.7474 19.4103C40.6943 19.37 40.6523 19.3169 40.6253 19.256C40.5983 19.1951 40.5872 19.1283 40.593 19.0619C40.5988 18.9956 40.6213 18.9317 40.6584 18.8764C42.326 16.4329 43.2001 13.535 43.1617 10.5769C43.1234 7.61893 42.1744 4.74459 40.444 2.3452C40.4115 2.30823 40.3904 2.26263 40.3833 2.21393C40.3762 2.16522 40.3834 2.1155 40.404 2.0708C40.4555 2.00429 40.5305 1.95994 40.6136 1.9468C41.2071 1.8261 41.8112 1.76487 42.4168 1.764C43.5883 1.7646 44.7483 1.99595 45.8304 2.44483C46.9125 2.89371 47.8956 3.55133 48.7236 4.38015C49.5515 5.20897 50.2081 6.19275 50.6559 7.27533C51.1037 8.35791 51.3338 9.51808 51.3332 10.6896C51.3326 11.8611 51.1013 13.0211 50.6524 14.1032C50.2035 15.1853 49.5459 16.1684 48.717 16.9963C47.8882 17.8243 46.9044 18.4809 45.8219 18.9287C44.7393 19.3765 43.5791 19.6066 42.4076 19.606C42.3249 19.6063 42.2424 19.6053 42.16 19.6032ZM4.8668 13.0492C4.5113 11.7165 4.46785 10.3197 4.73982 8.9675C5.0118 7.61526 5.59187 6.34393 6.43498 5.25229C7.27809 4.16065 8.36153 3.27808 9.60113 2.67317C10.8407 2.06825 12.2031 1.75728 13.5824 1.7644C14.1887 1.76501 14.7935 1.82625 15.3876 1.9472C15.4701 1.96166 15.5446 2.00558 15.5972 2.0708C15.6174 2.11573 15.6243 2.16548 15.6172 2.21422C15.6101 2.26296 15.5893 2.30867 15.5572 2.346C13.8269 4.74541 12.8779 7.61974 12.8396 10.5777C12.8012 13.5357 13.6753 16.4337 15.3428 18.8772C15.3799 18.9326 15.4024 18.9964 15.4082 19.0628C15.4139 19.1292 15.4028 19.196 15.3757 19.2569C15.3487 19.3178 15.3066 19.3709 15.2535 19.4112C15.2004 19.4515 15.138 19.4776 15.072 19.4872C14.6649 19.5557 14.2535 19.5947 13.8408 19.604C13.7584 19.606 13.6768 19.6072 13.5948 19.6072C11.6187 19.6367 9.68895 19.0084 8.10896 17.8212C6.52898 16.6341 5.38846 14.9554 4.8668 13.0492V13.0492Z" fill="white"/>
</g>
<defs>
<clipPath id="clip0">
<rect width="56" height="40" fill="white"/>
</clipPath>
</defs>
</svg>
