<svg width="40" height="46" viewBox="0 0 40 46" fill="none" xmlns="http://www.w3.org/2000/svg">
<g clip-path="url(#clip0)">
<g filter="url(#filter0_d)">
<path d="M1.64384 37.7341C1.64384 31.5365 10.0443 29.9361 20 29.9361C29.9015 29.9361 38.3562 31.4839 38.3562 37.6815C38.3562 43.879 29.9557 45.4794 20 45.4794C10.1004 45.4767 1.64384 43.928 1.64384 37.7341ZM7.85294 11.9826C7.85294 10.409 8.16712 8.85089 8.77756 7.39702C9.38799 5.94324 10.2828 4.6223 11.4108 3.50964C12.5387 2.39697 13.8778 1.51435 15.3515 0.912092C16.8253 0.309925 18.4048 0 20 0C21.5952 0 23.1747 0.309925 24.6485 0.912092C26.1222 1.51435 27.4613 2.39697 28.5893 3.50964C29.7172 4.6223 30.612 5.94324 31.2224 7.39702C31.8329 8.85089 32.1471 10.409 32.1471 11.9826C32.1471 15.1605 30.8673 18.2084 28.5893 20.4556C26.3112 22.7027 23.2216 23.9652 20 23.9652C16.7784 23.9652 13.6888 22.7027 11.4108 20.4556C9.13273 18.2084 7.85294 15.1605 7.85294 11.9826Z" fill="white"/>
</g>
</g>
<defs>
<filter id="filter0_d" x="-14.3562" y="-13" width="68.7123" height="77.4795" filterUnits="userSpaceOnUse" color-interpolation-filters="sRGB">
<feFlood flood-opacity="0" result="BackgroundImageFix"/>
<feColorMatrix in="SourceAlpha" type="matrix" values="0 0 0 0 0 0 0 0 0 0 0 0 0 0 0 0 0 0 127 0" result="hardAlpha"/>
<feOffset dy="3"/>
<feGaussianBlur stdDeviation="8"/>
<feColorMatrix type="matrix" values="0 0 0 0 1 0 0 0 0 1 0 0 0 0 1 0 0 0 0.561 0"/>
<feBlend mode="normal" in2="BackgroundImageFix" result="effect1_dropShadow"/>
<feBlend mode="normal" in="SourceGraphic" in2="effect1_dropShadow" result="shape"/>
</filter>
<clipPath id="clip0">
<rect width="40" height="45.4795" fill="white"/>
</clipPath>
</defs>
</svg>
