<svg width="39" height="40" viewBox="0 0 39 40" fill="none" xmlns="http://www.w3.org/2000/svg">
<g clip-path="url(#clip0)">
<g filter="url(#filter0_d)">
<path d="M20.6649 39.9987H17.8998C17.3519 40.0123 16.8067 39.9165 16.2963 39.7167C15.7858 39.517 15.3204 39.2174 14.9272 38.8355C14.534 38.4536 14.221 37.9971 14.0064 37.4928C13.7919 36.9884 13.6801 36.4462 13.6777 35.8981C13.6377 34.9283 13.2276 34.0107 12.5319 33.3338C11.8362 32.657 10.9076 32.2724 9.9371 32.259C9.30829 32.2292 8.68512 32.3897 8.14901 32.7197C7.49651 33.1068 6.75291 33.3136 5.99426 33.3189C5.26279 33.316 4.54466 33.1228 3.91049 32.7583C3.27633 32.3937 2.74796 31.8704 2.37734 31.2397L0.973681 28.8391C0.600422 28.2221 0.399661 27.5162 0.392365 26.7952C0.385068 26.0741 0.571504 25.3644 0.932201 24.74C1.31921 24.075 1.88135 23.529 2.55733 23.1615C3.09564 22.8629 3.53956 22.4195 3.83877 21.8815C4.07875 21.4739 4.23562 21.0227 4.30033 20.5541C4.36504 20.0855 4.33631 19.6087 4.2158 19.1512C4.0974 18.6792 3.88633 18.2354 3.59488 17.8456C3.30343 17.4559 2.9374 17.128 2.51808 16.8809C2.04444 16.615 1.62897 16.2567 1.29626 15.8273C0.963556 15.3979 0.72037 14.9061 0.581101 14.381C0.438969 13.8519 0.403953 13.2996 0.478109 12.7568C0.552264 12.2139 0.734097 11.6913 1.01294 11.2196L2.37512 8.85972C2.93614 7.90121 3.85351 7.20353 4.92705 6.91891C6.00058 6.63429 7.14311 6.78585 8.10531 7.34051C8.65377 7.63435 9.26674 7.78708 9.88895 7.78494C10.5515 7.78835 11.2039 7.62249 11.7844 7.30309C12.3649 6.98368 12.8542 6.52131 13.2059 5.95981C13.5356 5.43338 13.699 4.81981 13.6748 4.19913C13.6389 3.45094 13.8378 2.71025 14.2436 2.08067C14.6236 1.46309 15.1511 0.949628 15.7787 0.586441C16.4063 0.223254 17.1143 0.0217337 17.8391 0L20.7042 0C21.4348 0.00890761 22.1509 0.204817 22.7844 0.56905C23.4178 0.933283 23.9474 1.4537 24.3226 2.08067C24.7218 2.71233 24.9132 3.45314 24.87 4.19913C24.8461 4.81957 25.0089 5.4329 25.3374 5.95981C25.6902 6.52235 26.1807 6.98552 26.7626 7.30543C27.3445 7.62534 27.9984 7.79141 28.6624 7.7879C29.2888 7.78966 29.906 7.63702 30.4594 7.34347C31.4184 6.78853 32.5584 6.63683 33.6292 6.92167C34.6999 7.2065 35.6138 7.9046 36.1703 8.86268L37.5303 11.2226C37.8134 11.6903 37.9993 12.2104 38.0769 12.7516C38.1545 13.2928 38.1221 13.8441 37.9818 14.3725C37.8414 14.9009 37.5959 15.3956 37.26 15.827C36.924 16.2584 36.5046 16.6176 36.0266 16.8832C35.6063 17.1303 35.2397 17.459 34.9482 17.8499C34.6568 18.2408 34.4465 18.686 34.3297 19.1594C34.2112 19.617 34.1851 20.0936 34.2531 20.5614C34.321 21.0292 34.4815 21.4787 34.7252 21.8838C35.0111 22.4241 35.4488 22.8691 35.9844 23.1637C36.6574 23.5424 37.2242 24.0845 37.6325 24.74C37.9883 25.3662 38.1721 26.0754 38.1652 26.7955C38.1583 27.5157 37.961 28.2213 37.5933 28.8406L36.1681 31.2397C35.8917 31.7188 35.5225 32.1379 35.0821 32.4726C34.6418 32.8072 34.1391 33.0506 33.6034 33.1886C33.0678 33.3265 32.5101 33.3562 31.9629 33.276C31.4156 33.1957 30.8899 33.0071 30.4164 32.7212C29.8784 32.3957 29.2567 32.2355 28.6284 32.2605C27.6537 32.2666 26.719 32.6483 26.0187 33.3261C25.3184 34.0039 24.9064 34.9257 24.8685 35.8996C24.8672 36.4464 24.7569 36.9875 24.5439 37.4911C24.3309 37.9947 24.0195 38.4507 23.6281 38.8325C23.2366 39.2142 22.7729 39.514 22.264 39.7143C21.7552 39.9145 21.2116 40.0112 20.6649 39.9987V39.9987ZM19.3027 14.3603C17.7875 14.3472 16.3289 14.9357 15.2469 15.9966C14.1649 17.0575 13.5479 18.5042 13.5311 20.0194C13.5288 20.7654 13.6772 21.5043 13.9674 22.1916C14.2576 22.8789 14.6836 23.5005 15.2199 24.0192C16.3125 25.0809 17.7785 25.671 19.302 25.6621C20.4254 25.6747 21.527 25.352 22.4662 24.7354C23.4053 24.1187 24.1392 23.236 24.5741 22.2001C25.009 21.1642 25.1252 20.0222 24.9078 18.9199C24.6905 17.8177 24.1494 16.8053 23.3537 16.0121C22.8204 15.4837 22.188 15.0658 21.4929 14.7823C20.7977 14.4989 20.0534 14.3555 19.3027 14.3603Z" fill="white"/>
</g>
</g>
<defs>
<filter id="filter0_d" x="-15.6078" y="-13" width="69.7732" height="72" filterUnits="userSpaceOnUse" color-interpolation-filters="sRGB">
<feFlood flood-opacity="0" result="BackgroundImageFix"/>
<feColorMatrix in="SourceAlpha" type="matrix" values="0 0 0 0 0 0 0 0 0 0 0 0 0 0 0 0 0 0 127 0" result="hardAlpha"/>
<feOffset dy="3"/>
<feGaussianBlur stdDeviation="8"/>
<feColorMatrix type="matrix" values="0 0 0 0 1 0 0 0 0 1 0 0 0 0 1 0 0 0 0.557 0"/>
<feBlend mode="normal" in2="BackgroundImageFix" result="effect1_dropShadow"/>
<feBlend mode="normal" in="SourceGraphic" in2="effect1_dropShadow" result="shape"/>
</filter>
<clipPath id="clip0">
<rect width="38.822" height="40" fill="white"/>
</clipPath>
</defs>
</svg>
