<svg width="42" height="40" viewBox="0 0 42 40" fill="none" xmlns="http://www.w3.org/2000/svg">
<g clip-path="url(#clip0)">
<g filter="url(#filter0_d)">
<path d="M32.5412 24.7787C32.287 25.0257 32.0965 25.3305 31.9858 25.6671C31.8751 26.0037 31.8476 26.3622 31.9057 26.7117L33.6773 36.5177C33.7504 36.9248 33.7046 37.3442 33.5455 37.726C33.3864 38.1077 33.1207 38.4355 32.7802 38.6701C32.446 38.9137 32.0498 39.0579 31.6372 39.086C31.2247 39.1142 30.8125 39.0251 30.4484 38.8292L21.6224 34.2259C21.3148 34.0631 20.9737 33.9739 20.6258 33.965H20.086C19.8974 33.9927 19.7152 34.0534 19.5477 34.1445L10.718 38.7696C10.2811 38.9896 9.78597 39.0663 9.30295 38.989C8.73531 38.8815 8.23213 38.5565 7.90073 38.0833C7.56934 37.6101 7.43595 37.0261 7.52902 36.4559L9.30295 26.6507C9.36096 26.2983 9.33352 25.9372 9.22292 25.5977C9.11233 25.2582 8.92181 24.9502 8.66741 24.6996L1.46991 17.7237C1.17496 17.4384 0.967773 17.0746 0.872798 16.6753C0.777823 16.276 0.79902 15.8579 0.933889 15.4703C1.06452 15.0831 1.29871 14.7391 1.61103 14.4755C1.92335 14.212 2.30189 14.039 2.70556 13.9753L12.6111 12.5384C12.9818 12.4999 13.3369 12.3684 13.6434 12.1563C13.9499 11.9441 14.198 11.6581 14.3646 11.3246L18.729 2.37582C18.8323 2.17671 18.9672 1.99569 19.1285 1.8398L19.308 1.69957C19.401 1.59702 19.5093 1.50953 19.6291 1.44023L19.8463 1.36032L20.1848 1.2216H21.0238C21.3925 1.25944 21.7459 1.38859 22.0521 1.59736C22.3582 1.80613 22.6075 2.08794 22.7774 2.41728L27.2013 11.3239C27.3587 11.6446 27.5913 11.9225 27.8793 12.1338C28.1674 12.3452 28.5022 12.4837 28.8554 12.5377L38.7609 13.9746C39.171 14.0339 39.557 14.2048 39.8766 14.4686C40.1962 14.7324 40.4372 15.0789 40.5733 15.4703C40.701 15.8618 40.7144 16.2816 40.612 16.6805C40.5096 17.0793 40.2956 17.4407 39.995 17.7222L32.5412 24.7787Z" fill="white"/>
</g>
</g>
<defs>
<filter id="filter0_d" x="-15.1856" y="-11.7784" width="71.8657" height="69.8695" filterUnits="userSpaceOnUse" color-interpolation-filters="sRGB">
<feFlood flood-opacity="0" result="BackgroundImageFix"/>
<feColorMatrix in="SourceAlpha" type="matrix" values="0 0 0 0 0 0 0 0 0 0 0 0 0 0 0 0 0 0 127 0" result="hardAlpha"/>
<feOffset dy="3"/>
<feGaussianBlur stdDeviation="8"/>
<feColorMatrix type="matrix" values="0 0 0 0 1 0 0 0 0 1 0 0 0 0 1 0 0 0 0.557 0"/>
<feBlend mode="normal" in2="BackgroundImageFix" result="effect1_dropShadow"/>
<feBlend mode="normal" in="SourceGraphic" in2="effect1_dropShadow" result="shape"/>
</filter>
<clipPath id="clip0">
<rect width="41.0779" height="40" fill="white"/>
</clipPath>
</defs>
</svg>
