<svg xmlns="http://www.w3.org/2000/svg" xmlns:xlink="http://www.w3.org/1999/xlink" width="424" height="282" viewBox="0 0 424 282">
  <defs>
    <filter id="Эллипс_987" x="44" y="0" width="95" height="95" filterUnits="userSpaceOnUse">
      <feOffset dy="3" input="SourceAlpha"/>
      <feGaussianBlur stdDeviation="3" result="blur"/>
      <feFlood flood-opacity="0.161"/>
      <feComposite operator="in" in2="blur"/>
      <feComposite in="SourceGraphic"/>
    </filter>
    <filter id="Эллипс_992" x="250" y="21" width="94" height="95" filterUnits="userSpaceOnUse">
      <feOffset dy="3" input="SourceAlpha"/>
      <feGaussianBlur stdDeviation="3" result="blur-2"/>
      <feFlood flood-opacity="0.161"/>
      <feComposite operator="in" in2="blur-2"/>
      <feComposite in="SourceGraphic"/>
    </filter>
    <filter id="Эллипс_988" x="117" y="52" width="95" height="95" filterUnits="userSpaceOnUse">
      <feOffset dy="3" input="SourceAlpha"/>
      <feGaussianBlur stdDeviation="3" result="blur-3"/>
      <feFlood flood-opacity="0.161"/>
      <feComposite operator="in" in2="blur-3"/>
      <feComposite in="SourceGraphic"/>
    </filter>
    <filter id="Эллипс_993" x="329" y="61" width="95" height="95" filterUnits="userSpaceOnUse">
      <feOffset dy="3" input="SourceAlpha"/>
      <feGaussianBlur stdDeviation="3" result="blur-4"/>
      <feFlood flood-opacity="0.161"/>
      <feComposite operator="in" in2="blur-4"/>
      <feComposite in="SourceGraphic"/>
    </filter>
    <filter id="Эллипс_989" x="38" y="110" width="95" height="95" filterUnits="userSpaceOnUse">
      <feOffset dy="3" input="SourceAlpha"/>
      <feGaussianBlur stdDeviation="3" result="blur-5"/>
      <feFlood flood-opacity="0.161"/>
      <feComposite operator="in" in2="blur-5"/>
      <feComposite in="SourceGraphic"/>
    </filter>
    <filter id="Эллипс_994" x="240" y="120" width="95" height="95" filterUnits="userSpaceOnUse">
      <feOffset dy="3" input="SourceAlpha"/>
      <feGaussianBlur stdDeviation="3" result="blur-6"/>
      <feFlood flood-opacity="0.161"/>
      <feComposite operator="in" in2="blur-6"/>
      <feComposite in="SourceGraphic"/>
    </filter>
    <filter id="Эллипс_990" x="116" y="188" width="94" height="94" filterUnits="userSpaceOnUse">
      <feOffset dy="3" input="SourceAlpha"/>
      <feGaussianBlur stdDeviation="3" result="blur-7"/>
      <feFlood flood-opacity="0.161"/>
      <feComposite operator="in" in2="blur-7"/>
      <feComposite in="SourceGraphic"/>
    </filter>
    <filter id="Эллипс_995" x="326" y="182" width="95" height="95" filterUnits="userSpaceOnUse">
      <feOffset dy="3" input="SourceAlpha"/>
      <feGaussianBlur stdDeviation="3" result="blur-8"/>
      <feFlood flood-opacity="0.161"/>
      <feComposite operator="in" in2="blur-8"/>
      <feComposite in="SourceGraphic"/>
    </filter>
    <filter id="Эллипс_991" x="0" y="188" width="95" height="94" filterUnits="userSpaceOnUse">
      <feOffset dy="3" input="SourceAlpha"/>
      <feGaussianBlur stdDeviation="3" result="blur-9"/>
      <feFlood flood-opacity="0.161"/>
      <feComposite operator="in" in2="blur-9"/>
      <feComposite in="SourceGraphic"/>
    </filter>
  </defs>
  <g id="strategy" transform="translate(8.927 6)">
    <path id="Контур_61511" data-name="Контур 61511" d="M1012.131,3118.649s62.234-9.988,66.844,27.967S996,3190.565,996,3218.532s33,38.109,62.048,68.506,17.716,37.41,17.716,37.41" transform="translate(-921.557 -3079.213)" fill="none" stroke="#dcdcdc" stroke-linecap="round" stroke-width="7" opacity="0.15"/>
    <path id="Контур_61513" data-name="Контур 61513" d="M1002.061,3150.337s86.053-9.716,74.256,43.027-99.933,32.617-88.829,93.687,96.463,58.294,96.463,58.294" transform="translate(-710.831 -3118.986)" fill="none" stroke="#dcdcdc" stroke-linecap="round" stroke-width="7" opacity="0.15"/>
    <path id="Контур_61512" data-name="Контур 61512" d="M1096.341,3266.655l-42.333,92.993" transform="translate(-1023.486 -3129.819)" fill="none" stroke="#dcdcdc" stroke-linecap="round" stroke-width="7" opacity="0.15"/>
    <g transform="matrix(1, 0, 0, 1, -8.93, -6)" filter="url(#Эллипс_987)">
      <circle id="Эллипс_987-2" data-name="Эллипс 987" cx="38.5" cy="38.5" r="38.5" transform="translate(53 6)" fill="#7e8288"/>
    </g>
    <g transform="matrix(1, 0, 0, 1, -8.93, -6)" filter="url(#Эллипс_992)">
      <ellipse id="Эллипс_992-2" data-name="Эллипс 992" cx="38" cy="38.5" rx="38" ry="38.5" transform="translate(259 27)" fill="#80848a"/>
    </g>
    <g transform="matrix(1, 0, 0, 1, -8.93, -6)" filter="url(#Эллипс_988)">
      <circle id="Эллипс_988-2" data-name="Эллипс 988" cx="38.5" cy="38.5" r="38.5" transform="translate(126 58)" fill="#7e8288"/>
    </g>
    <g transform="matrix(1, 0, 0, 1, -8.93, -6)" filter="url(#Эллипс_993)">
      <circle id="Эллипс_993-2" data-name="Эллипс 993" cx="38.5" cy="38.5" r="38.5" transform="translate(338 67)" fill="#80848a"/>
    </g>
    <g transform="matrix(1, 0, 0, 1, -8.93, -6)" filter="url(#Эллипс_989)">
      <circle id="Эллипс_989-2" data-name="Эллипс 989" cx="38.5" cy="38.5" r="38.5" transform="translate(47 116)" fill="#7e8288"/>
    </g>
    <g transform="matrix(1, 0, 0, 1, -8.93, -6)" filter="url(#Эллипс_994)">
      <circle id="Эллипс_994-2" data-name="Эллипс 994" cx="38.5" cy="38.5" r="38.5" transform="translate(249 126)" fill="#80848a"/>
    </g>
    <g transform="matrix(1, 0, 0, 1, -8.93, -6)" filter="url(#Эллипс_990)">
      <circle id="Эллипс_990-2" data-name="Эллипс 990" cx="38" cy="38" r="38" transform="translate(125 194)" fill="#7e8288"/>
    </g>
    <g transform="matrix(1, 0, 0, 1, -8.93, -6)" filter="url(#Эллипс_995)">
      <circle id="Эллипс_995-2" data-name="Эллипс 995" cx="38.5" cy="38.5" r="38.5" transform="translate(335 188)" fill="#80848a"/>
    </g>
    <g transform="matrix(1, 0, 0, 1, -8.93, -6)" filter="url(#Эллипс_991)">
      <ellipse id="Эллипс_991-2" data-name="Эллипс 991" cx="38.5" cy="38" rx="38.5" ry="38" transform="translate(9 194)" fill="#7e8288"/>
    </g>
    <text id="Stake_POL" data-name="Stake 
POL" transform="translate(82.573 36)" fill="#fff" font-size="16" font-family="Poppins-Medium, Poppins" font-weight="500"><tspan x="-24.68" y="0">Stake </tspan><tspan x="-14.584" y="18">POL</tspan></text>
    <text id="Sell_Black" data-name="Sell 
Black" transform="translate(288.573 57)" fill="#fff" font-size="16" font-family="Poppins-Medium, Poppins" font-weight="500"><tspan x="-16.072" y="0">Sell </tspan><tspan x="-21.808" y="18">Black</tspan></text>
    <text id="Claim_POL" data-name="Claim 
POL" transform="translate(155.573 87)" fill="#fff" font-size="16" font-family="Poppins-Medium, Poppins" font-weight="500"><tspan x="-26.224" y="0">Claim </tspan><tspan x="-14.584" y="18">POL</tspan></text>
    <text id="For_Black" data-name="For 
Black" transform="translate(367.573 96)" fill="#fff" font-size="16" font-family="Poppins-Medium, Poppins" font-weight="500"><tspan x="-14.376" y="0">For </tspan><tspan x="-21.808" y="18">Black</tspan></text>
    <text id="Add_Liquidity" data-name="Add 
Liquidity" transform="translate(76.573 147)" fill="#fff" font-size="15" font-family="Poppins-Medium, Poppins" font-weight="500"><tspan x="-17.347" y="0">Add </tspan><tspan x="-31.462" y="17">Liquidity</tspan></text>
    <text id="Swap_WHITE" data-name="Swap 
WHITE" transform="translate(278.573 158)" fill="#fff" font-size="15" font-family="Poppins-Medium, Poppins" font-weight="500"><tspan x="-22.838" y="0">Swap </tspan><tspan x="-22.92" y="17">WHITE</tspan></text>
    <text id="Buy_BLACK" data-name="Buy
BLACK" transform="translate(154.573 225)" fill="#fff" font-size="15" font-family="Poppins-Medium, Poppins" font-weight="500"><tspan x="-13.957" y="0">Buy</tspan><tspan x="-23.827" y="17">BLACK</tspan></text>
    <text id="Buy_WHITE" data-name="Buy 
WHITE" transform="translate(365.073 219)" fill="#fff" font-size="15" font-family="Poppins-Medium, Poppins" font-weight="500"><tspan x="-15.907" y="0">Buy </tspan><tspan x="-22.92" y="17">WHITE</tspan></text>
    <text id="Buy_White-2" data-name="Buy
White" transform="translate(38.573 224)" fill="#fff" font-size="15" font-family="Poppins-Medium, Poppins" font-weight="500"><tspan x="-13.957" y="0">Buy</tspan><tspan x="-22.92" y="17">WHITE</tspan></text>
  </g>
</svg>
