<svg width="43" height="40" viewBox="0 0 43 40" fill="none" xmlns="http://www.w3.org/2000/svg">
<g clip-path="url(#clip0)">
<g filter="url(#filter0_d)">
<path d="M11.6057 38.8969C8.02656 38.8969 5.073 37.8634 3.06579 35.91C1.05858 33.9566 0 31.0827 0 27.5991V12.1048C0 8.61664 1.06161 5.74649 3.06655 3.79312C5.07148 1.83975 8.02656 0.80619 11.6057 0.80619H30.7148C34.2992 0.80619 37.2521 1.84354 39.2547 3.80525C41.2574 5.76696 42.3213 8.67124 42.3213 12.195H33.3696V12.2709C31.3997 12.2486 29.5013 13.0084 28.0907 14.3837C26.6802 15.759 25.8726 17.6375 25.845 19.6074C25.8728 21.5771 26.6805 23.4554 28.091 24.8306C29.5015 26.2057 31.3998 26.9654 33.3696 26.9431H42.3228V27.6021C42.3228 31.0857 41.2612 33.9597 39.2562 35.9123C37.2513 37.8649 34.297 38.8992 30.7163 38.8992L11.6057 38.8969ZM8.40874 10.5996C8.41609 11.0238 8.58954 11.4283 8.89183 11.726C9.19412 12.0238 9.60113 12.1911 10.0254 12.192H21.9709C22.1809 12.1966 22.3897 12.1592 22.585 12.0821C22.7803 12.0049 22.9583 11.8895 23.1084 11.7426C23.2586 11.5957 23.3779 11.4203 23.4593 11.2267C23.5408 11.0331 23.5827 10.8252 23.5827 10.6151C23.5827 10.4051 23.5408 10.1972 23.4593 10.0036C23.3779 9.80996 23.2586 9.63456 23.1084 9.48768C22.9583 9.3408 22.7803 9.22538 22.585 9.14821C22.3897 9.07103 22.1809 9.03365 21.9709 9.03825H10.0254C9.60499 9.03434 9.19986 9.19584 8.89742 9.48792C8.59498 9.78001 8.41947 10.1793 8.40874 10.5996ZM29.1186 20.4112C29.0001 19.7968 29.0209 19.1636 29.1796 18.5584C29.3382 17.9531 29.6307 17.3912 30.0354 16.9139C30.4458 16.428 30.9565 16.0366 31.5324 15.7664C32.1083 15.4963 32.7358 15.3538 33.3719 15.3488H40.7448C41.1584 15.3439 41.5571 15.5034 41.8534 15.7921C42.1496 16.0808 42.3193 16.4753 42.3251 16.8889V22.2447C42.3123 22.6563 42.14 23.0467 41.8448 23.3337C41.5495 23.6206 41.1542 23.7816 40.7425 23.7826H33.4765C32.4762 23.7948 31.5012 23.4684 30.71 22.8563C29.9188 22.2442 29.3579 21.3825 29.1186 20.4112V20.4112ZM32.5468 18.2743C32.3976 18.4178 32.2786 18.5898 32.1969 18.7801C32.1152 18.9704 32.0726 19.1751 32.0714 19.3822C32.0785 19.8071 32.2522 20.2122 32.5549 20.5104C32.8577 20.8086 33.2654 20.9761 33.6903 20.9769H34.3849C34.5962 20.9834 34.8066 20.9475 35.0037 20.8712C35.2008 20.7948 35.3805 20.6797 35.5322 20.5326C35.684 20.3855 35.8046 20.2094 35.887 20.0148C35.9694 19.8201 36.0119 19.611 36.0119 19.3996C36.0119 19.1883 35.9694 18.9791 35.887 18.7845C35.8046 18.5898 35.684 18.4137 35.5322 18.2666C35.3805 18.1195 35.2008 18.0044 35.0037 17.9281C34.8066 17.8518 34.5962 17.8158 34.3849 17.8224H33.6683C33.2498 17.8207 32.8473 17.9829 32.5468 18.2743V18.2743Z" fill="white"/>
</g>
</g>
<defs>
<filter id="filter0_d" x="-16" y="-12.1938" width="74.3251" height="70.093" filterUnits="userSpaceOnUse" color-interpolation-filters="sRGB">
<feFlood flood-opacity="0" result="BackgroundImageFix"/>
<feColorMatrix in="SourceAlpha" type="matrix" values="0 0 0 0 0 0 0 0 0 0 0 0 0 0 0 0 0 0 127 0" result="hardAlpha"/>
<feOffset dy="3"/>
<feGaussianBlur stdDeviation="8"/>
<feColorMatrix type="matrix" values="0 0 0 0 1 0 0 0 0 1 0 0 0 0 1 0 0 0 0.557 0"/>
<feBlend mode="normal" in2="BackgroundImageFix" result="effect1_dropShadow"/>
<feBlend mode="normal" in="SourceGraphic" in2="effect1_dropShadow" result="shape"/>
</filter>
<clipPath id="clip0">
<rect width="42.2501" height="40" fill="white"/>
</clipPath>
</defs>
</svg>
